<svg width="1440" height="338" viewBox="0 0 1440 338" fill="none" xmlns="http://www.w3.org/2000/svg" preserveAspectRatio="none">
<path d="M1432.93 43.5293H1419.22C1416.46 43.5293 1414.22 45.7679 1414.22 48.5293V104.359C1414.22 107.12 1416.46 109.359 1419.22 109.359H1432.93C1435.69 109.359 1437.93 107.12 1437.93 104.359V48.5293C1437.93 45.7679 1435.69 43.5293 1432.93 43.5293Z" fill="#E9E9EB"/>
<path d="M1427.88 121.379V31.5093C1427.88 30.5288 1427.09 29.7339 1426.11 29.7339C1425.13 29.7339 1424.33 30.5288 1424.33 31.5093V121.379C1424.33 122.359 1425.13 123.154 1426.11 123.154C1427.09 123.154 1427.88 122.359 1427.88 121.379Z" fill="#E9E9EB"/>
<path d="M666.626 97.7954H652.91C650.149 97.7954 647.91 100.034 647.91 102.795V158.625C647.91 161.386 650.149 163.625 652.91 163.625H666.626C669.388 163.625 671.626 161.386 671.626 158.625V102.795C671.626 100.034 669.388 97.7954 666.626 97.7954Z" fill="#E9E9EB"/>
<path d="M661.511 175.645V85.7754C661.511 84.7949 660.716 84 659.735 84C658.755 84 657.96 84.7949 657.96 85.7754V175.645C657.96 176.626 658.755 177.42 659.735 177.42C660.716 177.42 661.511 176.626 661.511 175.645Z" fill="#E9E9EB"/>
<path d="M1392.47 82.9067H1378.75C1375.99 82.9067 1373.75 85.1453 1373.75 87.9067V103.622C1373.75 106.384 1375.99 108.622 1378.75 108.622H1392.47C1395.23 108.622 1397.47 106.384 1397.47 103.622V87.9067C1397.47 85.1453 1395.23 82.9067 1392.47 82.9067Z" fill="#E9E9EB"/>
<path d="M1387.35 111.803V78.186C1387.35 77.2055 1386.56 76.4106 1385.58 76.4106C1384.6 76.4106 1383.8 77.2055 1383.8 78.186V111.803C1383.8 112.783 1384.6 113.578 1385.58 113.578C1386.56 113.578 1387.35 112.783 1387.35 111.803Z" fill="#E9E9EB"/>
<path d="M1352 90.8755H1338.29C1335.52 90.8755 1333.29 93.1141 1333.29 95.8755V114.873C1333.29 117.634 1335.52 119.873 1338.29 119.873H1352C1354.76 119.873 1357 117.634 1357 114.873V95.8755C1357 93.1141 1354.76 90.8755 1352 90.8755Z" fill="#E9E9EB"/>
<path d="M1346.89 124.46V86.222C1346.89 85.2416 1346.09 84.4468 1345.11 84.4468C1344.13 84.4468 1343.34 85.2416 1343.34 86.222V124.46C1343.34 125.44 1344.13 126.235 1345.11 126.235C1346.09 126.235 1346.89 125.44 1346.89 124.46Z" fill="#E9E9EB"/>
<path d="M1352 90.8755H1338.29C1335.52 90.8755 1333.29 93.1141 1333.29 95.8755V114.873C1333.29 117.634 1335.52 119.873 1338.29 119.873H1352C1354.76 119.873 1357 117.634 1357 114.873V95.8755C1357 93.1141 1354.76 90.8755 1352 90.8755Z" fill="#6EE99F"/>
<path d="M1346.89 124.46V86.222C1346.89 85.2416 1346.09 84.4468 1345.11 84.4468C1344.13 84.4468 1343.34 85.2416 1343.34 86.222V124.46C1343.34 125.44 1344.13 126.235 1345.11 126.235C1346.09 126.235 1346.89 125.44 1346.89 124.46Z" fill="#6EE99F"/>
<path d="M1311.47 87.6611H1297.75C1294.99 87.6611 1292.75 89.8997 1292.75 92.6611V126.257C1292.75 129.019 1294.99 131.257 1297.75 131.257H1311.47C1314.23 131.257 1316.47 129.019 1316.47 126.257V92.6611C1316.47 89.8997 1314.23 87.6611 1311.47 87.6611Z" fill="#E9E9EB"/>
<path d="M1306.42 140.264V80.1279C1306.42 79.1474 1305.63 78.3525 1304.65 78.3525C1303.66 78.3525 1302.87 79.1474 1302.87 80.1279V140.264C1302.87 141.244 1303.66 142.039 1304.65 142.039C1305.63 142.039 1306.42 141.244 1306.42 140.264Z" fill="#E9E9EB"/>
<path d="M342.638 194.255H328.922C326.16 194.255 323.922 196.493 323.922 199.255V252.741C323.922 255.502 326.16 257.741 328.922 257.741H342.638C345.4 257.741 347.638 255.502 347.638 252.741V199.255C347.638 196.493 345.4 194.255 342.638 194.255Z" fill="#E9E9EB"/>
<path d="M337.589 266.479V183.775C337.589 182.795 336.794 182 335.813 182C334.833 182 334.038 182.795 334.038 183.775V266.479C334.038 267.46 334.833 268.255 335.813 268.255C336.794 268.255 337.589 267.46 337.589 266.479Z" fill="#E9E9EB"/>
<path d="M423.635 184.309H409.919C407.158 184.309 404.919 186.547 404.919 189.309V222.905C404.919 225.666 407.158 227.905 409.919 227.905H423.635C426.397 227.905 428.635 225.666 428.635 222.905V189.309C428.635 186.547 426.397 184.309 423.635 184.309Z" fill="#E9E9EB"/>
<path d="M418.586 236.911V176.775C418.586 175.795 417.791 175 416.811 175C415.83 175 415.035 175.795 415.035 176.775V236.911C415.035 237.892 415.83 238.687 416.811 238.687C417.791 238.687 418.586 237.892 418.586 236.911Z" fill="#E9E9EB"/>
<path d="M707.092 97.8062H693.376C690.615 97.8062 688.376 100.045 688.376 102.806V136.402C688.376 139.164 690.615 141.402 693.376 141.402H707.092C709.854 141.402 712.092 139.164 712.092 136.402V102.806C712.092 100.045 709.854 97.8062 707.092 97.8062Z" fill="#E9E9EB"/>
<path d="M702.043 150.476V90.3399C702.043 89.3593 701.248 88.5645 700.268 88.5645C699.287 88.5645 698.492 89.3593 698.492 90.3399V150.476C698.492 151.456 699.287 152.251 700.268 152.251C701.248 152.251 702.043 151.456 702.043 150.476Z" fill="#E9E9EB"/>
<path d="M585.63 135.782H571.914C569.153 135.782 566.914 138.02 566.914 140.782V186.231C566.914 188.993 569.153 191.231 571.914 191.231H585.63C588.392 191.231 590.63 188.993 590.63 186.231V140.782C590.63 138.02 588.392 135.782 585.63 135.782Z" fill="#E9E9EB"/>
<path d="M580.514 200.908V126.775C580.514 125.795 579.719 125 578.738 125C577.758 125 576.963 125.795 576.963 126.775V200.908C576.963 201.888 577.758 202.683 578.738 202.683C579.719 202.683 580.514 201.888 580.514 200.908Z" fill="#E9E9EB"/>
<path d="M545.097 163.282H531.381C528.619 163.282 526.381 165.521 526.381 168.282V195.249C526.381 198.01 528.619 200.249 531.381 200.249H545.097C547.859 200.249 550.097 198.01 550.097 195.249V168.282C550.097 165.521 547.859 163.282 545.097 163.282Z" fill="#E9E9EB"/>
<path d="M540.048 207.581V146.775C540.048 145.795 539.253 145 538.272 145C537.292 145 536.497 145.795 536.497 146.775V207.581C536.497 208.561 537.292 209.356 538.272 209.356C539.253 209.356 540.048 208.561 540.048 207.581Z" fill="#E9E9EB"/>
<path d="M261.641 218.831H247.925C245.163 218.831 242.925 221.069 242.925 223.831V245.64C242.925 248.402 245.163 250.64 247.925 250.64H261.641C264.403 250.64 266.641 248.402 266.641 245.64V223.831C266.641 221.069 264.403 218.831 261.641 218.831Z" fill="#E9E9EB"/>
<path d="M256.592 263.33V213.775C256.592 212.795 255.797 212 254.816 212C253.836 212 253.041 212.795 253.041 213.775V263.33C253.041 264.311 253.836 265.106 254.816 265.106C255.797 265.106 256.592 264.311 256.592 263.33Z" fill="#E9E9EB"/>
<path d="M504.632 170.764H490.916C488.155 170.764 485.916 173.002 485.916 175.764V197.573C485.916 200.335 488.155 202.573 490.916 202.573H504.632C507.394 202.573 509.632 200.335 509.632 197.573V175.764C509.632 173.002 507.394 170.764 504.632 170.764Z" fill="#E9E9EB"/>
<path d="M499.517 215.33V165.775C499.517 164.795 498.722 164 497.741 164C496.761 164 495.966 164.795 495.966 165.775V215.33C495.966 216.311 496.761 217.106 497.741 217.106C498.722 217.106 499.517 216.311 499.517 215.33Z" fill="#E9E9EB"/>
<path d="M747.557 93.0854H733.841C731.079 93.0854 728.841 95.324 728.841 98.0854V138.914C728.841 141.676 731.079 143.914 733.841 143.914H747.557C750.318 143.914 752.557 141.676 752.557 138.914V98.0854C752.557 95.324 750.318 93.0854 747.557 93.0854Z" fill="#E9E9EB"/>
<path d="M742.508 152.921V84.4141C742.508 83.4335 741.713 82.6387 740.732 82.6387C739.752 82.6387 738.957 83.4335 738.957 84.4141V152.921C738.957 153.901 739.752 154.696 740.732 154.696C741.713 154.696 742.508 153.901 742.508 152.921Z" fill="#E9E9EB"/>
<path d="M788.089 96.501H774.373C771.612 96.501 769.373 98.7396 769.373 101.501V130.008C769.373 132.769 771.612 135.008 774.373 135.008H788.089C790.851 135.008 793.089 132.769 793.089 130.008V101.501C793.089 98.7396 790.851 96.501 788.089 96.501Z" fill="#E9E9EB"/>
<path d="M782.973 140.599V91.5127C782.973 90.5322 782.178 89.7373 781.197 89.7373C780.217 89.7373 779.422 90.5322 779.422 91.5127V140.599C779.422 141.579 780.217 142.374 781.197 142.374C782.178 142.374 782.973 141.579 782.973 140.599Z" fill="#E9E9EB"/>
<path d="M1031.01 34.2876H1017.3C1014.54 34.2876 1012.3 36.5262 1012.3 39.2876V71.0756C1012.3 73.8371 1014.54 76.0756 1017.3 76.0756H1031.01C1033.78 76.0756 1036.01 73.8371 1036.01 71.0757V39.2876C1036.01 36.5262 1033.78 34.2876 1031.01 34.2876Z" fill="#E9E9EB"/>
<path d="M1025.96 80.5954V29.2993C1025.96 28.3188 1025.17 27.5239 1024.19 27.5239C1023.21 27.5239 1022.41 28.3188 1022.41 29.2993V80.5954C1022.41 81.5759 1023.21 82.3707 1024.19 82.3707C1025.17 82.3707 1025.96 81.5759 1025.96 80.5954Z" fill="#E9E9EB"/>
<path d="M383.17 194.434H369.454C366.693 194.434 364.454 196.672 364.454 199.434V220.507C364.454 223.268 366.693 225.507 369.454 225.507H383.17C385.932 225.507 388.17 223.268 388.17 220.507V199.434C388.17 196.672 385.932 194.434 383.17 194.434Z" fill="#E9E9EB"/>
<path d="M378.054 229.022V188.775C378.054 187.795 377.259 187 376.278 187C375.298 187 374.503 187.795 374.503 188.775V229.022C374.503 230.002 375.298 230.797 376.278 230.797C377.259 230.797 378.054 230.002 378.054 229.022Z" fill="#E9E9EB"/>
<path d="M626.095 132.764H612.379C609.617 132.764 607.379 135.002 607.379 137.764V169.552C607.379 172.313 609.617 174.552 612.379 174.552H626.095C628.857 174.552 631.095 172.313 631.095 169.552V137.764C631.095 135.002 628.857 132.764 626.095 132.764Z" fill="#E9E9EB"/>
<path d="M621.046 179.071V127.775C621.046 126.795 620.251 126 619.27 126C618.29 126 617.495 126.795 617.495 127.775V179.071C617.495 180.052 618.29 180.847 619.27 180.847C620.251 180.847 621.046 180.052 621.046 179.071Z" fill="#E9E9EB"/>
<path d="M869.086 74.3345H855.37C852.609 74.3345 850.37 76.573 850.37 79.3345V111.123C850.37 113.884 852.609 116.123 855.37 116.123H869.086C871.848 116.123 874.086 113.884 874.086 111.123V79.3345C874.086 76.573 871.848 74.3345 869.086 74.3345Z" fill="#E9E9EB"/>
<path d="M863.97 120.642V69.3462C863.97 68.3657 863.175 67.5708 862.194 67.5708C861.214 67.5708 860.419 68.3657 860.419 69.3462V120.642C860.419 121.623 861.214 122.418 862.194 122.418C863.175 122.418 863.97 121.623 863.97 120.642Z" fill="#E9E9EB"/>
<path d="M990.548 28.5957H976.832C974.071 28.5957 971.832 30.8343 971.832 33.5957V81.3222C971.832 84.0836 974.071 86.3222 976.832 86.3222H990.548C993.31 86.3222 995.548 84.0836 995.548 81.3222V33.5957C995.548 30.8343 993.31 28.5957 990.548 28.5957Z" fill="#E9E9EB"/>
<path d="M985.432 97.6723V19.8569C985.432 18.8764 984.637 18.0815 983.656 18.0815C982.676 18.0815 981.881 18.8764 981.881 19.8569V97.6723C981.881 98.6528 982.676 99.4477 983.656 99.4477C984.637 99.4477 985.432 98.6528 985.432 97.6723Z" fill="#E9E9EB"/>
<path d="M828.554 65.0264H814.838C812.076 65.0264 809.838 67.2649 809.838 70.0264V117.753C809.838 120.514 812.076 122.753 814.838 122.753H828.554C831.316 122.753 833.554 120.514 833.554 117.753V70.0264C833.554 67.2649 831.316 65.0264 828.554 65.0264Z" fill="#E9E9EB"/>
<path d="M823.505 134.103V56.2876C823.505 55.3071 822.71 54.5122 821.729 54.5122C820.749 54.5122 819.954 55.3071 819.954 56.2876V134.103C819.954 135.084 820.749 135.878 821.729 135.878C822.71 135.878 823.505 135.084 823.505 134.103Z" fill="#E9E9EB"/>
<path d="M950.017 51.2974H936.301C933.539 51.2974 931.301 53.5359 931.301 56.2974V108.979C931.301 111.741 933.539 113.979 936.301 113.979H950.017C952.778 113.979 955.017 111.741 955.017 108.979V56.2974C955.017 53.5359 952.778 51.2974 950.017 51.2974Z" fill="#E9E9EB"/>
<path d="M944.968 120.374V39.3442C944.968 38.3637 944.173 37.5688 943.192 37.5688C942.212 37.5688 941.417 38.3637 941.417 39.3442V120.374C941.417 121.355 942.212 122.149 943.192 122.149C944.173 122.149 944.968 121.355 944.968 120.374Z" fill="#E9E9EB"/>
<path d="M909.551 58.3965H895.835C893.074 58.3965 890.835 60.6351 890.835 63.3965V121.101C890.835 123.863 893.074 126.101 895.835 126.101H909.551C912.313 126.101 914.551 123.863 914.551 121.101V63.3965C914.551 60.6351 912.313 58.3965 909.551 58.3965Z" fill="#E9E9EB"/>
<path d="M904.502 143.546V46.4433C904.502 45.4628 903.707 44.668 902.727 44.668C901.746 44.668 900.951 45.4628 900.951 46.4433V143.546C900.951 144.526 901.746 145.321 902.727 145.321C903.707 145.321 904.502 144.526 904.502 143.546Z" fill="#E9E9EB"/>
<path d="M464.167 134.729H450.451C447.69 134.729 445.451 136.967 445.451 139.729V197.433C445.451 200.195 447.69 202.433 450.451 202.433H464.167C466.929 202.433 469.167 200.195 469.167 197.433V139.729C469.167 136.967 466.929 134.729 464.167 134.729Z" fill="#E9E9EB"/>
<path d="M459.052 219.878V122.775C459.052 121.795 458.257 121 457.276 121C456.296 121 455.501 121.795 455.501 122.775V219.878C455.501 220.858 456.296 221.653 457.276 221.653C458.257 221.653 459.052 220.858 459.052 219.878Z" fill="#E9E9EB"/>
<path d="M302.173 206.255H288.457C285.696 206.255 283.457 208.494 283.457 211.255V273.514C283.457 276.275 285.696 278.514 288.457 278.514H302.173C304.935 278.514 307.173 276.275 307.173 273.514V211.255C307.173 208.494 304.935 206.255 302.173 206.255Z" fill="#E9E9EB"/>
<path d="M297.057 295.623V195.775C297.057 194.795 296.262 194 295.281 194C294.301 194 293.506 194.795 293.506 195.775V295.623C293.506 296.604 294.301 297.399 295.281 297.399C296.262 297.399 297.057 296.604 297.057 295.623Z" fill="#E9E9EB"/>
<path d="M59.1812 271.111H45.4648C42.7034 271.111 40.4648 273.35 40.4648 276.111V291.827C40.4648 294.589 42.7034 296.827 45.4648 296.827H59.1811C61.9426 296.827 64.1811 294.589 64.1811 291.827V276.111C64.1811 273.35 61.9426 271.111 59.1812 271.111Z" fill="#E9E9EB"/>
<path d="M54.1318 300.075V266.458C54.1318 265.477 53.3369 264.683 52.3564 264.683C51.3759 264.683 50.5811 265.477 50.5811 266.458V300.075C50.5811 301.055 51.3759 301.85 52.3564 301.85C53.3369 301.85 54.1318 301.055 54.1318 300.075Z" fill="#E9E9EB"/>
<path d="M59.1812 271.111H45.4648C42.7034 271.111 40.4648 273.35 40.4648 276.111V291.827C40.4648 294.589 42.7034 296.827 45.4648 296.827H59.1811C61.9426 296.827 64.1811 294.589 64.1811 291.827V276.111C64.1811 273.35 61.9426 271.111 59.1812 271.111Z" fill="#E66969"/>
<path d="M54.1318 300.075V266.458C54.1318 265.477 53.3369 264.683 52.3564 264.683C51.3759 264.683 50.5811 265.477 50.5811 266.458V300.075C50.5811 301.055 51.3759 301.85 52.3564 301.85C53.3369 301.85 54.1318 301.055 54.1318 300.075Z" fill="#E66969"/>
<path d="M99.7134 251.29H85.9971C83.2356 251.29 80.9971 253.528 80.9971 256.29V289.886C80.9971 292.647 83.2356 294.886 85.9971 294.886H99.7134C102.475 294.886 104.713 292.647 104.713 289.886V256.29C104.713 253.528 102.475 251.29 99.7134 251.29Z" fill="#E9E9EB"/>
<path d="M94.5966 303.959V243.823C94.5966 242.843 93.8018 242.048 92.8213 242.048C91.8408 242.048 91.0459 242.843 91.0459 243.823V303.959C91.0459 304.94 91.8408 305.735 92.8213 305.735C93.8018 305.735 94.5966 304.94 94.5966 303.959Z" fill="#E9E9EB"/>
<path d="M221.176 197.782H207.46C204.699 197.782 202.46 200.02 202.46 202.782V248.231C202.46 250.993 204.699 253.231 207.46 253.231H221.176C223.938 253.231 226.176 250.993 226.176 248.231V202.782C226.176 200.02 223.938 197.782 221.176 197.782Z" fill="#E9E9EB"/>
<path d="M216.127 262.908V188.775C216.127 187.795 215.332 187 214.352 187C213.371 187 212.576 187.795 212.576 188.775V262.908C212.576 263.888 213.371 264.683 214.352 264.683C215.332 264.683 216.127 263.888 216.127 262.908Z" fill="#E9E9EB"/>
<path d="M18.7163 276.268H5C2.23858 276.268 0 278.507 0 281.268V322.097C0 324.858 2.23858 327.097 5 327.097H18.7163C21.4777 327.097 23.7163 324.858 23.7163 322.097V281.268C23.7163 278.507 21.4777 276.268 18.7163 276.268Z" fill="#E9E9EB"/>
<path d="M13.667 336.104V267.597C13.667 266.616 12.8721 265.821 11.8916 265.821C10.9111 265.821 10.1162 266.616 10.1162 267.597V336.104C10.1162 337.084 10.9111 337.879 11.8916 337.879C12.8721 337.879 13.667 337.084 13.667 336.104Z" fill="#E9E9EB"/>
<path d="M140.178 225.306H126.462C123.7 225.306 121.462 227.544 121.462 230.306V271.134C121.462 273.896 123.7 276.134 126.462 276.134H140.178C142.94 276.134 145.178 273.896 145.178 271.134V230.306C145.178 227.544 142.94 225.306 140.178 225.306Z" fill="#E9E9EB"/>
<path d="M135.129 285.141V216.634C135.129 215.653 134.334 214.858 133.354 214.858C132.373 214.858 131.578 215.653 131.578 216.634V285.141C131.578 286.121 132.373 286.916 133.354 286.916C134.334 286.916 135.129 286.121 135.129 285.141Z" fill="#E9E9EB"/>
<path d="M140.178 225.306H126.462C123.7 225.306 121.462 227.544 121.462 230.306V271.134C121.462 273.896 123.7 276.134 126.462 276.134H140.178C142.94 276.134 145.178 273.896 145.178 271.134V230.306C145.178 227.544 142.94 225.306 140.178 225.306Z" fill="#E9E9EB"/>
<path d="M135.129 285.141V216.634C135.129 215.653 134.334 214.858 133.354 214.858C132.373 214.858 131.578 215.653 131.578 216.634V285.141C131.578 286.121 132.373 286.916 133.354 286.916C134.334 286.916 135.129 286.121 135.129 285.141Z" fill="#E9E9EB"/>
<path d="M180.71 237.092H166.994C164.233 237.092 161.994 239.331 161.994 242.092V259.683C161.994 262.444 164.233 264.683 166.994 264.683H180.71C183.472 264.683 185.71 262.444 185.71 259.683V242.092C185.71 239.331 183.472 237.092 180.71 237.092Z" fill="#E9E9EB"/>
<path d="M175.594 272.149V232.171C175.594 231.19 174.799 230.396 173.818 230.396C172.838 230.396 172.043 231.19 172.043 232.171V272.149C172.043 273.13 172.838 273.925 173.818 273.925C174.799 273.925 175.594 273.13 175.594 272.149Z" fill="#E9E9EB"/>
</svg>
