<svg width="1440" height="185" viewBox="0 0 1440 185" fill="none" xmlns="http://www.w3.org/2000/svg" preserveAspectRatio="none">
<path fill-rule="evenodd" clip-rule="evenodd" d="M0 185V89.5H0.5C4 89.5 6.5 89.5 7.5 88.5C12 86 17.5 84 21.5 81.5C24 80.5 28 80 34.5 80C43 80 49.5 79.5 55 78.5C59 77.5 63 77 68 76.5C80 75.5 90 74 97 71.5C99 71 101 70.5 103.5 70C104.5 70 106 69.5 107.5 69.5C121.5 69 129.5 67.5 134.5 65C137 64 140.5 63 143.5 61.5C144 61.5 145 61 146.5 60.5C153 63 159 65.5 165.5 68C172 62.5 178.5 57 185 51.5C192 53.5 198.5 55.5 205 57C211.5 56 218 55 224.5 54C231 57 237 60 243.5 63C246.5 60.5 249.5 58 252.5 56C257 52.5 260 48.5 266.5 45.5C279 39.5 288 33 292.5 26.5C295 23 299 19.5 303 15.5C309 17 314.5 18 319.5 19.5C322 20 324 20 327.5 20C332.5 19.5 337.5 19.5 342.5 19C349.5 24 356 29 363 34.5C368.5 32 373 30 377.5 28C379 27 381.5 26.5 382 25.5C386 21 389.5 17 393 12.5C395.5 9.5 398 6.5 401 3.5C408 5.5 414 7 420.5 9C427 6 433.5 3 439.5 0C451 1 463.5 2 464.5 5C465 5.5 466.5 6.5 467.5 7C472 10 478.5 13 481 16C487 23.5 492 30.5 496 38C498 42 503.5 45.5 517 48.5C518.5 49 519.5 49.5 520 50C522.5 52 525 54.5 527.5 56.5C531 59.5 534 62.5 537.5 65.5H539C545 58 551.5 50.5 557.5 43C559 43.5 560 44 561 44C565.5 45.5 570.5 47 574.5 48.5C577.5 49.5 580.5 50 586.5 49.5C590 49 594 49 598.5 49C605 53 611.5 56.5 617.5 60.5C620 62 621 63.5 622.5 65C631 73.5 638.5 82 655.5 90C656.5 90.5 657.5 91 659 91C664.5 91.5 670 92 676 92.5C683 89 690 86 697 82.5C703.5 83.5 709.5 84.5 715.5 85C722 86 729 86.5 736 87C743 85 749 83.5 756 81.5C761 84.5 765.5 87 770.5 89.5C775.5 92.5 775.5 92.5 791 92.5C794.5 92.5 796 92.5 797.5 93.5C801 95 805.5 96 808.5 97.5C813 99.5 820 100.5 830 101C833.5 101 836 101 838.5 100.5C843.5 99.5 849 98.5 855 97C858 99 860.5 101 863.5 103C869.5 107.5 874 112.5 890.5 116.5C893.5 117 896.5 118 900.5 118.5C912 120 918 122 921 124.5C923.5 126.5 927 128.5 930.5 130.5C931.5 131 932.5 131.5 933.5 132C945.5 125 956 118 973 111C978 111 983 111.5 988 111.5C990 111.5 993 111.5 994.5 111C999.5 109.5 1003.5 108 1009.5 106.5C1016 105 1024.5 103.5 1033 102C1033.5 102.5 1034 102.5 1034 103C1040 109 1046 115 1052 121C1052.5 121.5 1054 122 1057.5 122C1067 122.5 1073.5 128.5 1083 128.5C1086.5 128.5 1092.5 124.5 1093 125.5C1094 126.5 1096 126.5 1097.5 127.5C1105 133 1109.5 138.5 1123.5 144C1129.5 146 1136 148 1147.5 149C1149.5 149 1151.5 149.5 1152.5 150C1158 153.5 1163.5 157 1169 160.5C1170 161 1171.5 161.5 1175 161.5C1186 161.5 1196 162.5 1205.5 163.5C1208 164 1210 164 1211 164.5C1216.5 166.5 1222 169 1228 171.5C1229 171 1230 170.5 1230.5 170C1236 167 1241 164 1247 161C1247.5 160.5 1250 160 1252 160C1263 159.5 1274 159.5 1285 160C1286.5 160 1288.5 160.5 1289.5 161C1293.5 163 1297 164.5 1300.5 166.5C1303 167.5 1305.5 169 1308 170C1313 170 1317.5 169.5 1321.5 169.5C1325.5 169 1328 169.5 1330.5 170C1335.5 171.5 1341.5 173.5 1347.5 175C1348.5 174.5 1349 174 1349 174C1354.5 170 1360.5 165.5 1366 161.5C1366.5 161 1366.5 161 1367.5 160.5C1374 160 1380.5 159.5 1387.5 159C1394 164.5 1400 169.5 1407 174.5C1413 171.5 1418.5 169 1424 166.5C1424.5 166 1425.5 166 1426.5 165.5C1431 165 1435.5 164.5 1440 163.5V185H0Z" fill="white"/>
</svg>
