<svg width="1440" height="185" viewBox="0 0 1440 185" fill="none" xmlns="http://www.w3.org/2000/svg" preserveAspectRatio="none">
<path fill-rule="evenodd" clip-rule="evenodd" d="M0 0V95.5H0.5C4 95.5 6.5 95.5 7.5 96.5C12 99 17.5 101 21.5 103.5C24 104.5 28 105 34.5 105C43 105 49.5 105.5 55 106.5C59 107.5 63 108 68 108.5C80 109.5 90 111 97 113.5C99 114 101 114.5 103.5 115C104.5 115 106 115.5 107.5 115.5C121.5 116 129.5 117.5 134.5 120C137 121 140.5 122 143.5 123.5C144 123.5 145 124 146.5 124.5C153 122 159 119.5 165.5 117C172 122.5 178.5 128 185 133.5C192 131.5 198.5 129.5 205 128C211.5 129 218 130 224.5 131C231 128 237 125 243.5 122C246.5 124.5 249.5 127 252.5 129C257 132.5 260 136.5 266.5 139.5C279 145.5 288 152 292.5 158.5C295 162 299 165.5 303 169.5C309 168 314.5 167 319.5 165.5C322 165 324 165 327.5 165C332.5 165.5 337.5 165.5 342.5 166C349.5 161 356 156 363 150.5C368.5 153 373 155 377.5 157C379 158 381.5 158.5 382 159.5C386 164 389.5 168 393 172.5C395.5 175.5 398 178.5 401 181.5C408 179.5 414 178 420.5 176C427 179 433.5 182 439.5 185C451 184 463.5 183 464.5 180C465 179.5 466.5 178.5 467.5 178C472 175 478.5 172 481 169C487 161.5 492 154.5 496 147C498 143 503.5 139.5 517 136.5C518.5 136 519.5 135.5 520 135C522.5 133 525 130.5 527.5 128.5C531 125.5 534 122.5 537.5 119.5H539C545 127 551.5 134.5 557.5 142C559 141.5 560 141 561 141C565.5 139.5 570.5 138 574.5 136.5C577.5 135.5 580.5 135 586.5 135.5C590 136 594 136 598.5 136C605 132 611.5 128.5 617.5 124.5C620 123 621 121.5 622.5 120C631 111.5 638.5 103 655.5 95C656.5 94.5 657.5 94 659 94C664.5 93.5 670 93 676 92.5C683 96 690 99 697 102.5C703.5 101.5 709.5 100.5 715.5 100C722 99 729 98.5 736 98C743 100 749 101.5 756 103.5C761 100.5 765.5 98 770.5 95.5C775.5 92.5 775.5 92.5 791 92.5C794.5 92.5 796 92.5 797.5 91.5C801 90 805.5 89 808.5 87.5C813 85.5 820 84.5 830 84C833.5 84 836 84 838.5 84.5C843.5 85.5 849 86.5 855 88C858 86 860.5 84 863.5 82C869.5 77.5 874 72.5 890.5 68.5C893.5 68 896.5 67 900.5 66.5C912 65 918 63 921 60.5C923.5 58.5 927 56.5 930.5 54.5C931.5 54 932.5 53.5 933.5 53C945.5 60 956 67 973 74C978 74 983 73.5 988 73.5C990 73.5 993 73.5 994.5 74C999.5 75.5 1003.5 77 1009.5 78.5C1016 80 1024.5 81.5 1033 83C1033.5 82.5 1034 82.5 1034 82C1040 76 1046 70 1052 64C1052.5 63.5 1054 63 1057.5 63C1067 62.5 1073.5 56.5 1083 56.5C1086.5 56.5 1092.5 60.5 1093 59.5C1094 58.5 1096 58.5 1097.5 57.5C1105 52 1109.5 46.5 1123.5 41C1129.5 39 1136 37 1147.5 36C1149.5 36 1151.5 35.5 1152.5 35C1158 31.5 1163.5 28 1169 24.5C1170 24 1171.5 23.5 1175 23.5C1186 23.5 1196 22.5 1205.5 21.5C1208 21 1210 21 1211 20.5C1216.5 18.5 1222 16 1228 13.5C1229 14 1230 14.5 1230.5 15C1236 18 1241 21 1247 24C1247.5 24.5 1250 25 1252 25C1263 25.5 1274 25.5 1285 25C1286.5 25 1288.5 24.5 1289.5 24C1293.5 22 1297 20.5 1300.5 18.5C1303 17.5 1305.5 16 1308 15C1313 15 1317.5 15.5 1321.5 15.5C1325.5 16 1328 15.5 1330.5 15C1335.5 13.5 1341.5 11.5 1347.5 10C1348.5 10.5 1349 11 1349 11C1354.5 15 1360.5 19.5 1366 23.5C1366.5 24 1366.5 24 1367.5 24.5C1374 25 1380.5 25.5 1387.5 26C1394 20.5 1400 15.5 1407 10.5C1413 13.5 1418.5 16 1424 18.5C1424.5 19 1425.5 19 1426.5 19.5C1431 20 1435.5 20.5 1440 21.5V0H0Z" fill="white"/>
</svg>
