<svg width="186" height="132" viewBox="0 0 186 132" fill="none" xmlns="http://www.w3.org/2000/svg">
<path d="M19 132H5C2.23858 132 0 129.761 0 127V67C0 64.2386 2.23858 62 5 62H19C21.7614 62 24 64.2386 24 67V127C24 129.761 21.7614 132 19 132Z" fill="#DAB865"/>
<path d="M13 103H11C10.4477 103 10 102.552 10 102V45C10 44.4477 10.4477 44 11 44H13C13.5523 44 14 44.4477 14 45V102C14 102.552 13.5523 103 13 103Z" fill="#DAB865"/>
<path d="M59 118H46C43.2386 118 41 115.761 41 113V50C41 47.2386 43.2386 45 46 45H59C61.7614 45 64 47.2386 64 50V113C64 115.761 61.7614 118 59 118Z" fill="#DAB865"/>
<path d="M53.5352 103H51.5352C50.9829 103 50.5352 102.552 50.5352 102V35C50.5352 34.4477 50.9829 34 51.5352 34H53.5352C54.0874 34 54.5352 34.4477 54.5352 35V102C54.5352 102.552 54.0874 103 53.5352 103Z" fill="#DAB865"/>
<path d="M180.535 80H166.535C163.774 80 161.535 77.7614 161.535 75V15C161.535 12.2386 163.774 10 166.535 10H180.535C183.297 10 185.535 12.2386 185.535 15V75C185.535 77.7614 183.297 80 180.535 80Z" fill="#DAB865"/>
<path d="M175 100H173C172.448 100 172 99.5523 172 99V1C172 0.447716 172.448 0 173 0H175C175.552 0 176 0.447716 176 1V99C176 99.5523 175.552 100 175 100Z" fill="#DAB865"/>
<path d="M100 132H86C83.2386 132 81 129.761 81 127V60C81 57.2386 83.2386 55 86 55H100C102.761 55 105 57.2386 105 60V127C105 129.761 102.761 132 100 132Z" fill="#DAB865"/>
<path d="M93.5352 124H91.5352C90.9829 124 90.5352 123.552 90.5352 123V45C90.5352 44.4477 90.9829 44 91.5352 44H93.5352C94.0874 44 94.5352 44.4477 94.5352 45V123C94.5352 123.552 94.0874 124 93.5352 124Z" fill="#DAB865"/>
<path d="M141 88H127C124.239 88 122 85.7614 122 83V35C122 32.2386 124.239 30 127 30H141C143.761 30 146 32.2386 146 35V83C146 85.7614 143.761 88 141 88Z" fill="#DAB865"/>
<path d="M134.535 88H132.535C131.983 88 131.535 87.5523 131.535 87V20C131.535 19.4477 131.983 19 132.535 19H134.535C135.087 19 135.535 19.4477 135.535 20V87C135.535 87.5523 135.087 88 134.535 88Z" fill="#DAB865"/>
</svg>
