<svg width="186" height="128" viewBox="0 0 186 128" fill="none" xmlns="http://www.w3.org/2000/svg">
<path d="M19.1812 93.1113H5.46484C2.70342 93.1113 0.464844 95.3499 0.464844 98.1113V113.827C0.464844 116.589 2.70342 118.827 5.46484 118.827H19.1811C21.9426 118.827 24.1811 116.589 24.1811 113.827V98.1113C24.1811 95.3499 21.9426 93.1113 19.1812 93.1113Z" fill="#DAB865"/>
<path d="M13.1318 86.6826H11.5811C11.0288 86.6826 10.5811 87.1303 10.5811 87.6826V122.85C10.5811 123.402 11.0288 123.85 11.5811 123.85H13.1318C13.6841 123.85 14.1318 123.402 14.1318 122.85V87.6826C14.1318 87.1303 13.6841 86.6826 13.1318 86.6826Z" fill="#DAB865"/>
<path d="M59.7134 73.2896H45.9971C43.2356 73.2896 40.9971 75.5281 40.9971 78.2896V111.886C40.9971 114.647 43.2356 116.886 45.9971 116.886H59.7134C62.4748 116.886 64.7134 114.647 64.7134 111.886V78.2896C64.7134 75.5281 62.4748 73.2896 59.7134 73.2896Z" fill="#DAB865"/>
<path d="M54 59H52C51.4477 59 51 59.4477 51 60V127C51 127.552 51.4477 128 52 128H54C54.5523 128 55 127.552 55 127V60C55 59.4477 54.5523 59 54 59Z" fill="#DAB865"/>
<path d="M181 20H167C164.239 20 162 22.2386 162 25V85C162 87.7614 164.239 90 167 90H181C183.761 90 186 87.7614 186 85V25C186 22.2386 183.761 20 181 20Z" fill="#DAB865"/>
<path d="M175 0H173C172.448 0 172 0.447715 172 1V104C172 104.552 172.448 105 173 105H175C175.552 105 176 104.552 176 104V1C176 0.447715 175.552 0 175 0Z" fill="#DAB865"/>
<path d="M100 47H86C83.2386 47 81 49.2386 81 52V94C81 96.7614 83.2386 99 86 99H100C102.761 99 105 96.7614 105 94V52C105 49.2386 102.761 47 100 47Z" fill="#DAB865"/>
<path d="M94 30H92C91.4477 30 91 30.4477 91 31V109C91 109.552 91.4477 110 92 110H94C94.5523 110 95 109.552 95 109V31C95 30.4477 94.5523 30 94 30Z" fill="#DAB865"/>
<path d="M141 59H127C124.239 59 122 61.2386 122 64V94C122 96.7614 124.239 99 127 99H141C143.761 99 146 96.7614 146 94V64C146 61.2386 143.761 59 141 59Z" fill="#DAB865"/>
<path d="M135 41H133C132.448 41 132 41.4477 132 42V109C132 109.552 132.448 110 133 110H135C135.552 110 136 109.552 136 109V42C136 41.4477 135.552 41 135 41Z" fill="#DAB865"/>
</svg>
