<svg width="94" height="84" viewBox="0 0 94 84" fill="none" xmlns="http://www.w3.org/2000/svg">
<g clip-path="url(#clip0)">
<path d="M88.3175 0H5.68247C2.54216 0 0 2.55 0 5.685V62.925C0 66.06 2.54216 68.61 5.68247 68.61H38.895V72.75C38.895 76.545 35.8145 79.635 32.0312 79.635H25.7954C24.5991 79.635 23.6271 80.61 23.6271 81.81C23.6271 83.01 24.5991 83.985 25.7954 83.985H68.2195C69.4158 83.985 70.3879 83.01 70.3879 81.81C70.3879 80.61 69.4158 79.635 68.2195 79.635H61.9838C58.2004 79.635 55.12 76.545 55.12 72.75V68.61H88.3325C91.4578 68.61 94.015 66.06 94.015 62.925V5.685C94 2.55 91.4578 0 88.3175 0ZM40.8689 79.65C42.3493 77.745 43.2316 75.36 43.2316 72.765V68.625H50.7833V72.765C50.7833 75.36 51.6656 77.745 53.146 79.65H40.8689ZM44.6672 60.3C44.6672 59.01 45.714 57.96 47 57.96C48.286 57.96 49.3328 59.01 49.3328 60.3C49.3328 61.59 48.286 62.64 47 62.64C45.714 62.64 44.6672 61.59 44.6672 60.3ZM89.6634 53.16H4.33662V5.685C4.33662 4.95 4.93478 4.335 5.68247 4.335H88.3325C89.0652 4.335 89.6783 4.935 89.6783 5.685V53.16H89.6634Z" fill="#6B6B79"/>
<path d="M62.1031 13.6049C60.9068 12.4049 59.3217 11.7449 57.6319 11.7449H36.3525C32.8683 11.7449 30.042 14.5799 30.042 18.0749V39.4199C30.042 42.9149 32.8683 45.7499 36.3525 45.7499H57.6319C61.1161 45.7499 63.9424 42.9149 63.9424 39.4199V18.0749C63.9574 16.3949 63.2994 14.7899 62.1031 13.6049ZM61.9685 39.4349C61.9685 41.8349 60.0245 43.7699 57.6468 43.7699H36.3525C33.9599 43.7699 32.0309 41.8199 32.0309 39.4349V18.0899C32.0309 15.6899 33.9749 13.7549 36.3525 13.7549H57.6319C58.7833 13.7549 59.8749 14.2049 60.6974 15.0299C61.5199 15.8549 61.9685 16.9349 61.9685 18.1049V39.4349ZM46.2968 32.8949C46.4763 33.0749 46.7305 33.1799 46.9997 33.1799C47.2688 33.1799 47.5231 33.0749 47.7025 32.8949L52.9663 27.6149C53.3551 27.2249 53.3551 26.5949 52.9663 26.2049C52.5775 25.8149 51.9494 25.8149 51.5606 26.2049L47.9866 29.7899V19.1549C47.9866 18.5999 47.538 18.1649 46.9997 18.1649C46.4464 18.1649 46.0127 18.6149 46.0127 19.1549V29.7899L42.4387 26.2049C42.0499 25.8149 41.4219 25.8149 41.0331 26.2049C40.6443 26.5949 40.6443 27.2249 41.0331 27.6149L46.2968 32.8949ZM56.5701 37.3649H37.4292C36.8759 37.3649 36.4422 37.8149 36.4422 38.3549C36.4422 38.9099 36.8909 39.3449 37.4292 39.3449H56.5851C57.1384 39.3449 57.5721 38.8949 57.5721 38.3549C57.5721 37.8149 57.1234 37.3649 56.5701 37.3649Z" fill="#DAB865"/>
</g>
<defs>
<clipPath id="clip0">
<rect width="94" height="84" fill="white"/>
</clipPath>
</defs>
</svg>
