<svg width="178" height="58" viewBox="0 0 178 58" fill="none" xmlns="http://www.w3.org/2000/svg">
<path d="M27.8985 4.07784V6.08035L31.0104 3.82298L34.0861 0L29.9972 1.67483L27.8985 4.07784Z" fill="#DAB865"/>
<path fill-rule="evenodd" clip-rule="evenodd" d="M12.4476 16.2748L16.5003 15.9471L17.9477 15.401L19.5037 15.2189L17.0793 16.6389L11.9772 17.4399L9.73375 14.7092L10.0232 10.9226L6.9837 8.92014L10.4574 8.7745L8.35873 7.82786H12.3029L9.84231 7.24531L13.316 6.48071L14.5101 6.8084L15.7603 7.33327L19.576 8.84739L13.4608 5.46133L17.5496 5.64338L22.8688 8.37407L21.4576 6.88129L18.1648 5.49774C18.1648 5.49774 23.0859 6.22592 23.1221 6.22592L26.0531 2.00245L30.938 0.0727539L27.5366 4.07778L27.5728 6.66284L31.0104 4.187L35.2078 2.51218L32.5663 4.15059L31.9512 4.98801L34.6289 3.96855L33.4348 5.09724C33.4348 5.09724 35.6782 4.47828 35.7144 4.44187C35.7506 4.40546 40.9974 3.89573 40.9974 3.89573L36.619 5.64338L38.573 5.97106L41.9744 5.46133L38.5006 7.3182L40.8527 6.66284L44.7968 7.24538L42.3001 7.82793H46.2442L44.1455 8.77457L47.6192 8.92021L44.5797 10.9227L44.833 14.7821L42.5895 17.5128L37.4875 16.6754L34.5927 14.7457L36.619 15.4375L38.0664 15.9836L42.1191 16.3113L43.3494 14.1631L42.6981 10.9955L40.129 9.6484L36.3296 10.3402L34.6651 11.6145L33.7243 13.6898L28.0071 17.0031L25.5827 14.7093L23.1945 14.1996L20.0464 10.3766L19.9743 10.3307L14.4378 9.61191L11.8687 10.9591L11.2173 14.1267L12.4476 16.2748ZM25.5827 4.62392L26.7406 2.76704L28.4413 2.00245L26.9939 3.89573L27.1024 8.59253L25.5827 4.62392Z" fill="#DAB865"/>
<path fill-rule="evenodd" clip-rule="evenodd" d="M53.0108 25.268L54.5667 26.5059C54.5667 26.5059 51.491 20.0615 51.4548 20.0251C51.4186 19.9887 46.1357 18.8236 46.1357 18.8236L47.0041 15.9108C47.0041 15.9108 46.787 14.6001 46.787 14.5273C46.787 14.3816 45.5929 12.4155 45.5929 12.4155L45.7376 15.3283L43.5304 18.4231L41.3593 18.059L37.6684 17.2216L35.3164 16.02L37.3789 17.7313L41.6487 19.5882L46.3528 24.9403L50.9844 30.4745L53.5536 37.1739L53.5174 29.6007L49.8989 24.9039L53.0108 25.268ZM45.1225 21.7727L42.9514 19.8066L44.9416 20.2799L50.8397 21.1538C50.8397 21.1538 52.468 23.7024 52.5042 23.7388L49.3923 22.5373L45.1225 21.7727Z" fill="#DAB865"/>
<path d="M14.9443 33.8607L14.293 41.7616L16.7174 49.0798L11.6515 40.997L12.4837 29.8557L14.9443 33.8607Z" fill="#DAB865"/>
<path d="M20.2635 46.2398C20.2652 46.2372 20.2663 46.2322 20.2671 46.2248L20.2635 46.2398Z" fill="#DAB865"/>
<path d="M35.7849 46.1419C35.8333 45.4444 36.5467 41.3245 36.5467 41.3245L34.1947 37.6836C34.1947 37.6836 29.563 39.14 29.4183 39.2128C29.2863 39.2792 28.2218 43.1898 28.035 43.8792C27.9262 43.4765 26.7699 39.2093 26.632 39.14C26.5958 39.14 25.3294 38.7395 25.3294 38.7395L25.6912 42.2712L24.6057 38.521L23.0859 38.0477L23.2306 40.6327L22.4346 37.8656L21.8556 37.6836L19.5036 41.3245C19.5036 41.3245 20.2978 45.9106 20.2671 46.2248L20.7339 44.2737L20.951 46.7131L23.7372 49.8443L24.0629 47.3321L24.6057 50.8274L28.0071 57.8525V58L28.0428 57.9263L28.0432 57.9272V57.9253L31.4446 50.9002L32.2769 46.0213L32.3493 49.9171L35.1355 46.7859L35.7144 42.4896L35.7849 46.1419Z" fill="#DAB865"/>
<path d="M35.7849 46.1419C35.7811 46.1978 35.7815 46.2317 35.7868 46.2398L35.7849 46.1419Z" fill="#DAB865"/>
<path d="M41.106 34.4432L41.6488 41.6159L38.5007 49.8808L44.8692 41.179L40.6356 30.1833L41.106 34.4432Z" fill="#DAB865"/>
<path d="M10.385 42.9993L10.9278 36.9918L11.6153 33.5693L8.28632 43.2178L8.64816 46.0577L11.3982 51.6283L10.385 42.9993Z" fill="#DAB865"/>
<path d="M40.3099 33.533V33.0597L40.2737 32.1131L40.1289 28.7634L38.6092 27.0522L35.244 25.7414V26.3604C35.244 26.3968 37.5598 29.2731 37.5598 29.2731C37.5598 29.2731 37.2342 30.948 37.2342 30.9844C37.2342 31.0208 34.4841 34.0428 34.4841 34.0428L28.9478 31.2028V29.2731L32.5663 26.6517L32.1321 25.8871L31.517 24.9404L31.915 25.9599L30.9018 26.2148L28.0432 24.9404L28.0432 24.904L25.1484 26.2147L24.1353 25.9598L24.7504 23.7753L23.9181 25.887L23.4839 26.6516L27.1024 29.2731V31.2028L21.6023 34.0063C21.6023 34.0063 18.8885 30.9843 18.8523 30.9479C18.8523 30.9115 18.5266 29.2367 18.5266 29.2367C18.5266 29.2367 20.8424 26.3604 20.8424 26.3239V25.6686L17.0792 27.1249L15.3062 25.9598L15.9213 22.5374L15.7042 19.1877L16.3917 17.8406L15.6318 18.059L14.8358 19.1513L14.4739 22.9743L13.4088 26.1894L13.3884 26.1782L11.8325 27.4525L7.6712 40.4143L12.4476 28.6541L13.0027 28.0024L15.7766 33.0961L15.4871 41.361L18.9246 50.4269L24.4247 54.0314L20.2635 49.5167L18.4542 40.9241L21.7109 34.7709L28.0432 32.6227L28.0432 32.6592L34.3394 34.8438L37.6322 40.6328L35.7868 49.4439L31.6617 54.0314L37.1618 50.4269L40.5993 41.361L40.3099 33.533Z" fill="#DAB865"/>
<path d="M20.0464 5.17016L22.7964 5.53426L23.7734 4.62402H21.4214L20.0464 5.17016Z" fill="#DAB865"/>
<path d="M45.5205 46.8588L46.389 40.4508L41.8297 26.9429C41.8297 26.9429 40.2737 25.705 40.2737 25.5594C40.2737 25.4137 41.3955 23.0471 41.3955 23.0471L40.5994 19.9888L42.2277 23.0107L42.0106 25.3045L43.2771 26.0327L47.5107 39.9411L45.5205 46.8588Z" fill="#DAB865"/>
<path d="M23.7373 19.6609L24.461 22.7921L23.3392 20.5347L22.9774 20.3891C22.9774 20.3891 22.0004 20.6076 21.0596 20.2071C20.1188 19.7702 19.9017 18.6779 19.9017 18.6779L19.3951 18.3138L21.0596 17.6948L22.905 18.2774L23.7373 19.6609Z" fill="#DAB865"/>
<path d="M31.2999 22.6103L31.7703 19.6975L32.6025 18.314L34.4479 17.7314L36.1124 18.3504L35.6059 18.7145C35.6059 18.7145 35.3887 19.8068 34.4479 20.2437C33.5071 20.6442 32.5302 20.4257 32.5302 20.4257L32.0597 20.4986L31.2999 22.6103Z" fill="#DAB865"/>
<path d="M50.0436 45.4387L51.8167 37.6107L51.9614 36.1543L53.5535 40.1957L50.0436 45.4387Z" fill="#DAB865"/>
<path d="M46.606 34.4068L48.162 39.941L47.583 49.0797L50.2245 39.6133L48.2705 33.8606L45.3034 28.6541L42.9514 23.666L46.606 34.4068Z" fill="#DAB865"/>
<path d="M50.0436 31.3848L41.9382 20.6077L45.5205 27.7439L49.0305 33.1325L50.8759 38.5939L51.2739 35.135L50.0436 31.3848Z" fill="#DAB865"/>
<path d="M39.0435 26.6151L39.8395 26.1782L41.3955 27.4525L45.5567 40.4143L40.7803 28.6541L39.0435 26.6151Z" fill="#DAB865"/>
<path d="M44.2178 49.1889L45.231 42.344L38.6454 52.0289L44.2178 49.1889Z" fill="#DAB865"/>
<path d="M3.07568 37.6107L4.84873 45.4387L1.33881 40.1957L2.96712 36.1543L3.07568 37.6107Z" fill="#DAB865"/>
<path d="M6.73038 39.941L8.28633 34.4068L11.9772 23.666L9.58898 28.6541L6.62183 33.8606L4.66785 39.6133L7.34552 49.0797L6.73038 39.941Z" fill="#DAB865"/>
<path d="M12.9903 20.6077L4.84875 31.3848L3.61847 35.135L4.0165 38.5939L5.89811 33.1325L9.37186 27.7439L12.9903 20.6077Z" fill="#DAB865"/>
<path d="M11.2897 43.2178L12.3028 50.0263L17.8753 52.8662L11.2897 43.2178Z" fill="#DAB865"/>
<path fill-rule="evenodd" clip-rule="evenodd" d="M12.918 18.423L15.3424 17.5856L15.3062 17.9133L14.2206 19.1876L12.7732 19.8429L8.17777 25.2679L3.65467 30.875L1.1941 37.6471L1.12173 30.074L4.63166 25.2679L1.51976 25.7048L0 26.9792C0 26.9792 2.96716 20.5347 3.00334 20.4619C3.03952 20.3891 8.32251 19.1876 8.32251 19.1876L7.41789 16.2748C7.41789 16.2748 7.635 14.9277 7.635 14.8913C7.635 14.7821 8.79291 12.7795 8.79291 12.7795L8.68436 15.6923L10.964 18.7507L12.918 18.423ZM9.62968 21.9604L9.66135 21.9547L11.8686 19.9886L9.87846 20.4619L3.98033 21.3357C3.98033 21.3357 3.9273 21.4158 3.84017 21.5477L9.66134 20.6076L11.6153 20.0979L9.62968 21.9604ZM2.31885 23.9109C2.34234 23.8553 2.50021 23.6029 2.71002 23.2763C2.55615 23.5226 2.41714 23.7475 2.31885 23.9109Z" fill="#DAB865"/>
<path d="M69.8356 26.5743V35.7973H67V21.4054H69.1986L76.8012 30.8514V21.4257H79.6367V35.7973H77.3354L69.8356 26.5743Z" fill="white"/>
<path d="M87.2364 36C86.3597 36 85.5721 35.8514 84.8734 35.5541C84.1748 35.2568 83.5789 34.8581 83.0858 34.3581C82.6064 33.8446 82.2365 33.2568 81.9762 32.5946C81.716 31.9324 81.5858 31.2365 81.5858 30.5068C81.5858 29.7635 81.716 29.0608 81.9762 28.3986C82.2365 27.7365 82.6064 27.1554 83.0858 26.6554C83.5789 26.1419 84.1748 25.7365 84.8734 25.4392C85.5721 25.1419 86.3597 24.9932 87.2364 24.9932C88.1131 24.9932 88.8939 25.1419 89.5788 25.4392C90.2774 25.7365 90.8665 26.1419 91.3459 26.6554C91.839 27.1554 92.2157 27.7365 92.476 28.3986C92.7363 29.0608 92.8664 29.7635 92.8664 30.5068C92.8664 31.2365 92.7363 31.9324 92.476 32.5946C92.2157 33.2568 91.8459 33.8446 91.3664 34.3581C90.887 34.8581 90.298 35.2568 89.5994 35.5541C88.9007 35.8514 88.1131 36 87.2364 36ZM84.4214 30.5068C84.4214 30.9797 84.4899 31.4122 84.6269 31.8041C84.7775 32.1824 84.9762 32.5135 85.2227 32.7973C85.483 33.0811 85.7844 33.3041 86.1268 33.4662C86.4693 33.6149 86.8391 33.6892 87.2364 33.6892C87.6337 33.6892 88.0035 33.6149 88.346 33.4662C88.6884 33.3041 88.9829 33.0811 89.2295 32.7973C89.4898 32.5135 89.6884 32.1757 89.8254 31.7838C89.9761 31.3919 90.0514 30.9595 90.0514 30.4865C90.0514 30.027 89.9761 29.6014 89.8254 29.2095C89.6884 28.8176 89.4898 28.4797 89.2295 28.1959C88.9829 27.9122 88.6884 27.6959 88.346 27.5473C88.0035 27.3851 87.6337 27.3041 87.2364 27.3041C86.8391 27.3041 86.4693 27.3851 86.1268 27.5473C85.7844 27.7095 85.483 27.9324 85.2227 28.2162C84.9762 28.5 84.7775 28.8378 84.6269 29.2297C84.4899 29.6216 84.4214 30.0473 84.4214 30.5068Z" fill="white"/>
<path d="M97.2408 35.7973L93.2751 25.1757H96.1107L98.8435 33.5878L101.597 25.1757H104.186L100.22 35.7973H97.2408Z" fill="white"/>
<path d="M110.232 36C109.355 36 108.568 35.8514 107.869 35.5541C107.17 35.2568 106.574 34.8581 106.081 34.3581C105.602 33.8446 105.232 33.2568 104.972 32.5946C104.712 31.9324 104.581 31.2365 104.581 30.5068C104.581 29.7635 104.712 29.0608 104.972 28.3986C105.232 27.7365 105.602 27.1554 106.081 26.6554C106.574 26.1419 107.17 25.7365 107.869 25.4392C108.568 25.1419 109.355 24.9932 110.232 24.9932C111.109 24.9932 111.889 25.1419 112.574 25.4392C113.273 25.7365 113.862 26.1419 114.341 26.6554C114.835 27.1554 115.211 27.7365 115.472 28.3986C115.732 29.0608 115.862 29.7635 115.862 30.5068C115.862 31.2365 115.732 31.9324 115.472 32.5946C115.211 33.2568 114.841 33.8446 114.362 34.3581C113.883 34.8581 113.294 35.2568 112.595 35.5541C111.896 35.8514 111.109 36 110.232 36ZM107.417 30.5068C107.417 30.9797 107.485 31.4122 107.622 31.8041C107.773 32.1824 107.972 32.5135 108.218 32.7973C108.479 33.0811 108.78 33.3041 109.122 33.4662C109.465 33.6149 109.835 33.6892 110.232 33.6892C110.629 33.6892 110.999 33.6149 111.342 33.4662C111.684 33.3041 111.978 33.0811 112.225 32.7973C112.485 32.5135 112.684 32.1757 112.821 31.7838C112.972 31.3919 113.047 30.9595 113.047 30.4865C113.047 30.027 112.972 29.6014 112.821 29.2095C112.684 28.8176 112.485 28.4797 112.225 28.1959C111.978 27.9122 111.684 27.6959 111.342 27.5473C110.999 27.3851 110.629 27.3041 110.232 27.3041C109.835 27.3041 109.465 27.3851 109.122 27.5473C108.78 27.7095 108.479 27.9324 108.218 28.2162C107.972 28.5 107.773 28.8378 107.622 29.2297C107.485 29.6216 107.417 30.0473 107.417 30.5068Z" fill="white"/>
<path d="M133.253 23.8581H128.588V35.7973H125.773V23.8581H121.109V21.4054H133.253V23.8581Z" fill="white"/>
<path d="M138.94 27.527C138.104 27.5405 137.358 27.7027 136.7 28.0135C136.043 28.3108 135.57 28.7635 135.282 29.3716V35.7973H132.529V25.1757H135.056V27.4459C135.248 27.0811 135.474 26.7568 135.734 26.473C135.995 26.1757 136.276 25.9189 136.577 25.7027C136.878 25.4865 137.18 25.3243 137.481 25.2162C137.796 25.0946 138.097 25.0338 138.385 25.0338C138.536 25.0338 138.645 25.0338 138.714 25.0338C138.796 25.0338 138.871 25.0405 138.94 25.0541V27.527Z" fill="white"/>
<path d="M143.273 36C142.752 36 142.266 35.9189 141.814 35.7568C141.362 35.5811 140.972 35.3446 140.643 35.0473C140.314 34.7365 140.054 34.3784 139.862 33.973C139.684 33.5676 139.595 33.1216 139.595 32.6351C139.595 32.1351 139.705 31.6757 139.924 31.2568C140.157 30.8243 140.472 30.4595 140.869 30.1622C141.28 29.8649 141.766 29.6351 142.328 29.473C142.889 29.2973 143.506 29.2095 144.177 29.2095C144.657 29.2095 145.122 29.25 145.574 29.3311C146.04 29.4122 146.451 29.527 146.807 29.6757V29.0676C146.807 28.3649 146.602 27.8243 146.191 27.4459C145.793 27.0676 145.198 26.8784 144.403 26.8784C143.828 26.8784 143.266 26.9797 142.718 27.1824C142.17 27.3851 141.609 27.6824 141.033 28.0743L140.191 26.3514C141.574 25.4459 143.067 24.9932 144.67 24.9932C146.218 24.9932 147.417 25.3716 148.266 26.1284C149.129 26.8716 149.561 27.9527 149.561 29.3716V32.6757C149.561 32.9595 149.608 33.1622 149.704 33.2838C149.814 33.4054 149.985 33.473 150.218 33.4865V35.7973C149.752 35.8919 149.348 35.9392 149.006 35.9392C148.485 35.9392 148.081 35.8243 147.793 35.5946C147.519 35.3649 147.348 35.0608 147.28 34.6824L147.218 34.0946C146.739 34.7162 146.156 35.1892 145.472 35.5135C144.787 35.8378 144.054 36 143.273 36ZM144.054 34.0135C144.52 34.0135 144.958 33.9324 145.369 33.7703C145.793 33.6081 146.122 33.3919 146.355 33.1216C146.656 32.8919 146.807 32.6351 146.807 32.3514V31.1351C146.478 31.0135 146.122 30.9189 145.739 30.8514C145.355 30.7703 144.985 30.7297 144.629 30.7297C143.917 30.7297 143.335 30.8919 142.883 31.2162C142.431 31.527 142.204 31.9257 142.204 32.4122C142.204 32.8716 142.383 33.2568 142.739 33.5676C143.095 33.8649 143.533 34.0135 144.054 34.0135Z" fill="white"/>
<path d="M156.592 36C155.853 36 155.168 35.8581 154.537 35.5743C153.907 35.2905 153.366 34.8986 152.914 34.3986C152.462 33.8986 152.106 33.3176 151.846 32.6554C151.599 31.9797 151.476 31.2568 151.476 30.4865C151.476 29.7162 151.592 29 151.825 28.3378C152.072 27.6757 152.407 27.0946 152.832 26.5946C153.257 26.0946 153.764 25.7027 154.353 25.4189C154.942 25.1351 155.585 24.9932 156.284 24.9932C157.079 24.9932 157.791 25.1824 158.421 25.5608C159.065 25.9392 159.565 26.4324 159.921 27.0405V21H162.674V32.6757C162.674 32.9595 162.722 33.1622 162.818 33.2838C162.914 33.4054 163.078 33.473 163.311 33.4865V35.7973C162.832 35.8919 162.441 35.9392 162.14 35.9392C161.647 35.9392 161.243 35.8176 160.928 35.5743C160.613 35.3311 160.435 35.0135 160.394 34.6216L160.332 33.9527C159.935 34.6284 159.394 35.1419 158.709 35.4932C158.037 35.8311 157.332 36 156.592 36ZM157.311 33.6892C157.572 33.6892 157.839 33.6486 158.113 33.5676C158.387 33.473 158.64 33.3446 158.873 33.1824C159.106 33.0203 159.311 32.8311 159.489 32.6149C159.681 32.3986 159.825 32.1622 159.921 31.9054V29.3716C159.811 29.0743 159.654 28.8041 159.448 28.5608C159.257 28.3041 159.031 28.0878 158.77 27.9122C158.524 27.723 158.257 27.5743 157.969 27.4662C157.695 27.3581 157.421 27.3041 157.147 27.3041C156.736 27.3041 156.353 27.3919 155.996 27.5676C155.654 27.7432 155.359 27.9865 155.113 28.2973C154.866 28.5946 154.674 28.9392 154.537 29.3311C154.401 29.723 154.332 30.1284 154.332 30.5473C154.332 30.9932 154.407 31.4054 154.558 31.7838C154.709 32.1622 154.914 32.4932 155.174 32.777C155.435 33.0608 155.743 33.2838 156.099 33.4459C156.469 33.6081 156.873 33.6892 157.311 33.6892Z" fill="white"/>
<path d="M170.37 36C169.507 36 168.726 35.8581 168.028 35.5743C167.329 35.277 166.733 34.8784 166.24 34.3784C165.747 33.8784 165.363 33.2973 165.089 32.6351C164.829 31.973 164.699 31.277 164.699 30.5473C164.699 29.7905 164.829 29.0811 165.089 28.4189C165.35 27.7432 165.726 27.1554 166.219 26.6554C166.713 26.1419 167.308 25.7365 168.007 25.4392C168.719 25.1419 169.514 24.9932 170.391 24.9932C171.267 24.9932 172.048 25.1419 172.733 25.4392C173.432 25.7365 174.021 26.1351 174.5 26.6351C174.993 27.1351 175.363 27.7162 175.61 28.3784C175.87 29.0405 176 29.7297 176 30.4459C176 30.6216 175.993 30.7905 175.979 30.9527C175.979 31.1149 175.966 31.25 175.938 31.3581H167.617C167.658 31.777 167.76 32.1486 167.925 32.473C168.089 32.7973 168.302 33.0743 168.562 33.3041C168.822 33.5338 169.117 33.7095 169.445 33.8311C169.774 33.9527 170.117 34.0135 170.473 34.0135C171.021 34.0135 171.534 33.8851 172.014 33.6284C172.507 33.3581 172.843 33.0068 173.021 32.5743L175.384 33.223C174.986 34.0338 174.349 34.7027 173.473 35.2297C172.61 35.7432 171.575 36 170.37 36ZM173.164 29.5946C173.096 28.7973 172.795 28.1622 172.26 27.6892C171.74 27.2027 171.103 26.9595 170.349 26.9595C169.98 26.9595 169.63 27.027 169.302 27.1622C168.986 27.2838 168.706 27.4595 168.459 27.6892C168.213 27.9189 168.007 28.1959 167.843 28.5203C167.692 28.8446 167.603 29.2027 167.576 29.5946H173.164Z" fill="white"/>
</svg>
