<svg width="94" height="85" viewBox="0 0 94 85" fill="none" xmlns="http://www.w3.org/2000/svg">
<g clip-path="url(#clip0)">
<path d="M90.249 46.9389C91.8471 46.0995 93.8367 42.4516 93.8367 42.4516C93.8367 42.4516 89.6619 42.0965 88.0637 42.9358C87.9006 43.0327 87.8027 43.1618 87.6396 43.2586C87.868 41.8059 87.9984 40.2887 88.0637 38.7714C89.0748 39.0296 90.5099 38.5777 91.5536 37.6738C92.9235 36.4793 93.9998 32.4763 93.9998 32.4763C93.9998 32.4763 89.8576 33.0896 88.5203 34.2518C88.3572 34.4132 88.2267 34.5746 88.0963 34.736C87.9984 33.1542 87.8027 31.6369 87.5418 30.0874C88.5529 30.0874 89.8249 29.3449 90.6403 28.2473C91.6841 26.7623 91.8145 22.6301 91.8145 22.6301C91.8145 22.6301 87.9332 24.1474 86.8569 25.6001C86.759 25.7615 86.6938 25.9229 86.5959 26.0843C86.2372 24.8899 85.8457 23.7277 85.3891 22.5655C86.4002 22.4041 87.5418 21.4033 88.0963 20.1443C88.8465 18.5302 88.1941 14.4303 88.1941 14.4303C88.1941 14.4303 84.6716 16.6578 83.9214 18.2719C83.8562 18.4656 83.8235 18.6593 83.7583 18.853C83.1386 17.6263 82.421 16.4318 81.6709 15.2697C82.5841 14.8823 83.4974 13.7847 83.8235 12.5256C84.3128 10.7824 83.0081 6.87619 83.0081 6.87619C83.0081 6.87619 79.877 9.62021 79.3877 11.3312C79.3225 11.5572 79.3225 11.7831 79.2899 12.0091C78.3114 10.7824 77.3003 9.62021 76.1913 8.5226C77.0394 7.94151 77.6591 6.65021 77.6917 5.29434C77.7569 3.55108 75.6042 0 75.6042 0C75.6042 0 73.1907 3.38967 73.1254 5.16521C73.1254 5.39119 73.1254 5.58489 73.1254 5.77858C72.2122 5.03608 71.2989 4.32586 70.3204 3.68021C70.0595 2.80858 69.3419 1.84011 68.3634 1.25902C66.7979 0.355108 62.623 0.516521 62.623 0.516521C62.623 0.516521 64.4169 4.2613 65.9825 5.16521C66.6674 5.58489 67.4502 5.77858 68.1677 5.84315C68.9179 6.32738 69.6355 6.84391 70.3204 7.39271C68.4613 7.5864 65.3627 9.42651 65.3627 9.42651C65.3627 9.42651 68.7875 11.8154 70.5813 11.88C71.9512 11.9123 73.3537 11.3957 73.9734 10.5564C74.7236 11.2989 75.4412 12.0737 76.0935 12.8807C74.2018 12.6871 70.8423 13.7524 70.8423 13.7524C70.8423 13.7524 73.6147 16.8515 75.3759 17.3357C76.7458 17.6908 78.2135 17.4649 78.9963 16.7547C79.5508 17.594 80.0727 18.4656 80.5619 19.3373C78.768 18.7885 75.115 19.3695 75.115 19.3695C75.115 19.3695 77.3655 22.8561 78.9963 23.5986C80.2358 24.1474 81.6709 24.1796 82.5515 23.6954C82.8451 24.4379 83.1386 25.245 83.3669 26.0198C81.7361 25.1158 77.9852 24.9867 77.9852 24.9867C77.9852 24.9867 79.5182 28.8606 80.9859 29.8937C82.0949 30.6684 83.53 30.9913 84.5085 30.6362C84.7042 31.6692 84.8346 32.7345 84.9325 33.7999C83.4648 32.5731 80.0074 31.6692 80.0074 31.6692C80.0074 31.6692 80.6272 35.7691 81.8013 37.0927C82.682 38.0934 84.0192 38.7068 85.0303 38.61C84.9977 39.6753 84.9325 40.7406 84.802 41.7736C83.7257 40.2564 80.4315 38.4808 80.4315 38.4808C80.4315 38.4808 80.0727 42.613 80.9207 44.1626C81.6056 45.4216 82.8777 46.3578 83.9214 46.3578C83.6931 47.294 83.4321 48.1979 83.1386 49.1018C82.3884 47.4554 79.0942 45.1633 79.0942 45.1633C79.0942 45.1633 78.2462 49.1986 78.8985 50.8773C79.3877 52.1041 80.3988 53.1048 81.3773 53.3954C80.9859 54.2347 80.5619 55.0418 80.1379 55.8166C79.7139 54.041 76.9089 51.2002 76.9089 51.2002C76.9089 51.2002 75.3107 55.0418 75.6369 56.785C75.8652 58.0441 76.6806 59.2385 77.5612 59.6905C76.9741 60.4653 76.387 61.2078 75.7673 61.9503C75.7347 60.1424 73.5168 56.7528 73.5168 56.7528C73.5168 56.7528 71.2011 60.1747 71.1684 61.9825C71.1684 63.3061 71.7229 64.6297 72.5383 65.2431C71.8534 65.8565 71.1358 66.4698 70.3857 67.0832C70.3857 67.0509 70.3857 67.0186 70.3857 66.9863C70.614 65.2108 68.7548 61.4983 68.7548 61.4983C68.7548 61.4983 66.0477 64.662 65.8194 66.4375C65.6563 67.6643 66.0151 68.891 66.6348 69.6335C65.7215 70.1823 64.7757 70.6988 63.8298 71.1831C63.9276 70.9248 64.0255 70.6666 64.0907 70.4083C64.4495 68.665 62.8513 64.8234 62.8513 64.8234C62.8513 64.8234 59.9158 67.7934 59.5897 69.5367C59.3614 70.7311 59.5897 71.9901 60.2094 72.7649C58.5133 73.4106 56.7521 73.8948 54.9908 74.2822C53.9471 70.8603 50.7833 68.3745 46.9672 68.3745C43.1837 68.3745 40.0199 70.8925 38.9436 74.2822C37.1497 73.8948 35.421 73.4106 33.725 72.7649C34.3121 71.9901 34.573 70.7311 34.3447 69.5367C33.9859 67.7934 31.0831 64.8234 31.0831 64.8234C31.0831 64.8234 29.4849 68.665 29.8437 70.4083C29.8763 70.6666 29.9741 70.9248 30.072 71.1831C29.0935 70.6988 28.1802 70.2146 27.267 69.6335C27.8867 68.891 28.2455 67.6643 28.115 66.4375C27.8867 64.662 25.1795 61.4983 25.1795 61.4983C25.1795 61.4983 23.3204 65.2108 23.5487 66.9863C23.5487 67.0186 23.5487 67.0509 23.5813 67.0832C22.8312 66.5021 22.1136 65.8887 21.4287 65.2431C22.2441 64.6297 22.7986 63.3061 22.7986 61.9825C22.7986 60.1747 20.4502 56.7528 20.4502 56.7528C20.4502 56.7528 18.2323 60.1747 18.1997 61.9503C17.58 61.2078 16.9603 60.4653 16.4058 59.6905C17.2864 59.2385 18.0692 58.0763 18.3301 56.785C18.6889 55.0095 17.0907 51.2002 17.0907 51.2002C17.0907 51.2002 14.2857 54.0733 13.8617 55.8166C13.4051 55.0418 13.0137 54.2024 12.6223 53.3954C13.6008 53.1371 14.6119 52.1041 15.1011 50.8773C15.7535 49.1986 14.9054 45.1633 14.9054 45.1633C14.9054 45.1633 11.6438 47.4554 10.861 49.1018C10.5675 48.1979 10.3065 47.2617 10.0782 46.3578C11.1546 46.3578 12.394 45.4216 13.0789 44.1626C13.9596 42.5807 13.5682 38.4808 13.5682 38.4808C13.5682 38.4808 10.2739 40.2564 9.19759 41.7736C9.06712 40.7406 9.00189 39.6753 8.96927 38.61C9.98038 38.7068 11.3176 38.0934 12.1983 37.0927C13.4051 35.7691 14.0248 31.6692 14.0248 31.6692C14.0248 31.6692 10.5675 32.6054 9.09974 33.7999C9.19759 32.7345 9.36067 31.6692 9.52375 30.6362C10.5022 30.959 11.9374 30.6684 13.0463 29.8937C14.514 28.8606 16.047 24.9867 16.047 24.9867C16.047 24.9867 12.2961 25.1481 10.6653 26.0198C10.8936 25.245 11.1872 24.4379 11.4807 23.6954C12.3614 24.1796 13.8291 24.1474 15.0359 23.5986C16.6993 22.8561 18.9498 19.3695 18.9498 19.3695C18.9498 19.3695 15.2968 18.8207 13.5029 19.3695C13.9922 18.4656 14.4814 17.6263 15.0359 16.7869C15.7861 17.4649 17.319 17.7231 18.6563 17.368C20.4176 16.8838 23.1573 13.7847 23.1573 13.7847C23.1573 13.7847 19.7979 12.7193 17.9061 12.913C18.5911 12.106 19.3086 11.3312 20.0262 10.5887C20.6459 11.428 22.0484 11.9446 23.4183 11.9123C25.2448 11.8477 28.6369 9.45879 28.6369 9.45879C28.6369 9.45879 25.5383 7.61869 23.6466 7.39271C24.3641 6.84391 25.0817 6.32738 25.8319 5.84315C26.5494 5.81086 27.3322 5.61717 28.0172 5.19749C29.5501 4.2613 31.344 0.516521 31.344 0.516521C31.344 0.516521 27.1691 0.355108 25.6362 1.25902C24.6577 1.84011 23.9401 2.7763 23.6792 3.64793C22.7007 4.32586 21.7875 5.03608 20.8742 5.77858C20.8742 5.58489 20.9068 5.35891 20.9068 5.16521C20.8416 3.38967 18.3954 0 18.3954 0C18.3954 0 16.2427 3.55108 16.3079 5.32662C16.3732 6.68249 16.9929 8.00608 17.8409 8.55488C16.7319 9.65249 15.7208 10.8147 14.7423 12.0414C14.7097 11.8154 14.7097 11.5894 14.6445 11.3635C14.1553 9.62021 11.0241 6.90847 11.0241 6.90847C11.0241 6.90847 9.71945 10.8469 10.2087 12.5579C10.5675 13.8169 11.4481 14.9468 12.3614 15.3342C11.6112 16.4964 10.9262 17.6586 10.3065 18.9176C10.2413 18.7239 10.2087 18.5302 10.1435 18.3365C9.39328 16.6901 5.87073 14.4626 5.87073 14.4626C5.87073 14.4626 5.21841 18.5625 5.96858 20.1766C6.55567 21.4356 7.66462 22.4364 8.67573 22.5978C8.2191 23.7277 7.82771 24.9221 7.46893 26.1166C7.37108 25.9552 7.33846 25.7615 7.208 25.6324C6.16428 24.1796 2.25033 22.6624 2.25033 22.6624C2.25033 22.6624 2.38079 26.8268 3.45713 28.2795C4.23992 29.3771 5.51195 30.1519 6.55567 30.1519C6.29474 31.6692 6.09904 33.1865 6.0012 34.7683C5.87073 34.6069 5.74027 34.4132 5.57718 34.2841C4.23992 33.0896 0.0976562 32.5085 0.0976562 32.5085C0.0976562 32.5085 1.20661 36.5116 2.54387 37.6738C3.58759 38.5777 5.02271 39.0296 6.0012 38.7714C6.06643 40.2887 6.19689 41.7737 6.42521 43.2586C6.29474 43.1618 6.16428 43.0327 6.0012 42.9358C4.403 42.0965 0.228121 42.4839 0.228121 42.4839C0.228121 42.4839 2.21771 46.1318 3.81591 46.9711C4.95748 47.5845 6.32736 47.7136 7.24061 47.3263C7.53416 48.4884 7.86032 49.6183 8.25172 50.7159C8.12125 50.6514 7.99079 50.5545 7.86032 50.4899C6.19689 49.8443 2.08725 50.6836 2.08725 50.6836C2.08725 50.6836 4.50085 54.0733 6.19689 54.719C7.50154 55.2032 9.00189 55.1386 9.84991 54.5575C10.3718 55.6874 10.9589 56.7528 11.5786 57.8504C11.4481 57.8181 11.3176 57.7858 11.1872 57.7535C9.4259 57.3984 5.54457 59.0125 5.54457 59.0125C5.54457 59.0125 8.54526 61.8857 10.3392 62.2085C11.7417 62.4668 13.2094 62.1117 13.9269 61.3369C14.6771 62.3377 15.4925 63.3384 16.3405 64.3069C16.2101 64.3069 16.1122 64.3069 15.9818 64.3069C14.1879 64.3069 10.6979 66.6312 10.6979 66.6312C10.6979 66.6312 14.1879 68.891 16.0144 68.8587C17.3843 68.8587 18.7868 68.2454 19.3739 67.3737C20.1893 68.1162 21.0047 68.8264 21.8853 69.5044C21.8201 69.5044 21.7548 69.5044 21.657 69.5044C19.8631 69.7304 16.6993 72.4098 16.6993 72.4098C16.6993 72.4098 20.4502 74.2499 22.2441 74.0239C23.7118 73.8625 25.1143 72.9586 25.4731 71.9579C26.1906 72.3775 26.843 72.8295 27.5605 73.2169C25.7993 73.9594 23.3856 76.2514 23.3856 76.2514C23.3856 76.2514 27.267 77.801 29.0283 77.4782C30.4634 77.2199 31.7354 76.2837 32.0942 75.283C34.2142 76.1223 36.4648 76.768 38.7479 77.2522C39.0414 81.5781 42.6618 84.9677 47.0977 84.9677C51.5335 84.9677 55.1539 81.5458 55.4474 77.2522C57.7306 76.768 59.9811 76.1223 62.1011 75.283C62.4273 76.2837 63.6993 77.2199 65.1671 77.4782C66.9283 77.8333 70.8097 76.2514 70.8097 76.2514C70.8097 76.2514 68.3961 73.9271 66.6348 73.2169C67.385 72.8295 68.0373 72.3775 68.7548 71.9579C69.1136 72.9586 70.4835 73.8302 71.9838 74.0239C73.7777 74.2499 77.5286 72.4098 77.5286 72.4098C77.5286 72.4098 74.3322 69.7304 72.5383 69.5044C72.4731 69.5044 72.4079 69.5044 72.31 69.5044C73.1907 68.8264 74.0387 68.1162 74.8215 67.3737C75.3759 68.2131 76.7784 68.8264 78.1483 68.8264C79.9422 68.8264 83.4648 66.5989 83.4648 66.5989C83.4648 66.5989 79.9748 64.3069 78.1809 64.2746C78.0505 64.2746 77.9526 64.2746 77.8222 64.3069C78.6702 63.3384 79.4856 62.3699 80.2358 61.3369C80.9533 62.1117 82.4211 62.4668 83.8235 62.2085C85.5848 61.8534 88.6181 58.9803 88.6181 58.9803C88.6181 58.9803 84.7368 57.3984 82.9755 57.7212C82.8451 57.7535 82.7146 57.7858 82.5841 57.8181C83.2038 56.7528 83.7909 55.6552 84.3128 54.5253C85.1608 55.1386 86.6612 55.2032 87.9658 54.6867C89.6619 54.041 92.0755 50.6514 92.0755 50.6514C92.0755 50.6514 87.9658 49.812 86.3024 50.4577C86.1719 50.5222 86.0741 50.5868 85.9436 50.6836C86.335 49.586 86.6612 48.4561 86.9547 47.294C87.7375 47.6814 89.1074 47.5522 90.249 46.9389Z" fill="#6B6B79"/>
<path d="M41.846 48.1655C42.2374 48.1655 42.5635 47.8427 42.5635 47.4553V43.8397H44.7488C45.1402 43.8397 45.4664 43.5168 45.4664 43.1294V24.2119C45.4664 23.8245 45.1402 23.5016 44.7488 23.5016H42.5635V20.5962C42.5635 20.2088 42.2374 19.886 41.846 19.886C41.4546 19.886 41.1284 20.2088 41.1284 20.5962V23.5016H38.9431C38.5517 23.5016 38.2256 23.8245 38.2256 24.2119V43.0972C38.2256 43.4845 38.5517 43.8074 38.9431 43.8074H41.1284V47.4553C41.1284 47.8427 41.4546 48.1655 41.846 48.1655ZM39.6607 42.3547V24.9221H44.0639V42.3547H39.6607Z" fill="#DAB865"/>
<path d="M52.1204 51.071C52.5118 51.071 52.838 50.7482 52.838 50.3608V46.7452H55.0233C55.4146 46.7452 55.7408 46.4223 55.7408 46.035V27.1174C55.7408 26.73 55.4146 26.4072 55.0233 26.4072H52.838V23.5017C52.838 23.1143 52.5118 22.7915 52.1204 22.7915C51.729 22.7915 51.4029 23.1143 51.4029 23.5017V26.4072H49.2176C48.8262 26.4072 48.5 26.73 48.5 27.1174V46.0027C48.5 46.3901 48.8262 46.7129 49.2176 46.7129H51.4029V50.3608C51.4029 50.7482 51.729 51.071 52.1204 51.071ZM49.9351 45.2602V27.8276H54.3383V45.2602H49.9351Z" fill="#DAB865"/>
<path d="M62.3948 42.3547C62.7862 42.3547 63.1124 42.0319 63.1124 41.6445V38.0289H65.2977C65.689 38.0289 66.0152 37.706 66.0152 37.3186V18.4011C66.0152 18.0137 65.689 17.6908 65.2977 17.6908H63.1124V14.7854C63.1124 14.398 62.7862 14.0752 62.3948 14.0752C62.0034 14.0752 61.6773 14.398 61.6773 14.7854V17.6908H59.492C59.1006 17.6908 58.7744 18.0137 58.7744 18.4011V37.2864C58.7744 37.6738 59.1006 37.9966 59.492 37.9966H61.6773V41.6445C61.6773 42.0319 62.0034 42.3547 62.3948 42.3547ZM60.2095 36.5761V19.1436H64.6127V36.5761H60.2095Z" fill="#DAB865"/>
<path d="M31.6048 57.6243C31.9962 57.6243 32.3223 57.3014 32.3223 56.914V53.2661H34.5076C34.899 53.2661 35.2252 52.9433 35.2252 52.5559V33.6706C35.2252 33.2832 34.899 32.9604 34.5076 32.9604H32.3223V30.0549C32.3223 29.6676 31.9962 29.3447 31.6048 29.3447C31.2134 29.3447 30.8872 29.6676 30.8872 30.0549V32.9604H28.7019C28.3105 32.9604 27.9844 33.2832 27.9844 33.6706V52.5559C27.9844 52.9433 28.3105 53.2661 28.7019 53.2661H30.8872V56.8818C30.8546 57.3014 31.1808 57.6243 31.6048 57.6243ZM29.3869 51.8134V34.3808H33.7901V51.8134H29.3869Z" fill="#DAB865"/>
</g>
<defs>
<clipPath id="clip0">
<rect width="94" height="85" fill="white"/>
</clipPath>
</defs>
</svg>
