<svg width="1440" height="101" viewBox="0 0 1440 101" fill="none" xmlns="http://www.w3.org/2000/svg" preserveAspectRatio="none">
<path fill-rule="evenodd" clip-rule="evenodd" d="M1441 102V49.3459H1440.5C1437 49.3459 1434.5 49.3459 1433.49 48.7946C1428.99 47.4162 1423.49 46.3135 1419.49 44.9351C1416.98 44.3838 1412.98 44.1081 1406.48 44.1081C1397.97 44.1081 1391.47 43.8324 1385.96 43.2811C1381.96 42.7297 1377.96 42.4541 1372.95 42.1784C1360.94 41.627 1350.94 40.8 1343.93 39.4216C1341.93 39.1459 1339.93 38.8703 1337.43 38.5946C1336.43 38.5946 1334.93 38.3189 1333.43 38.3189C1319.42 38.0432 1311.41 37.2162 1306.41 35.8378C1303.9 35.2865 1300.4 34.7351 1297.4 33.9081C1296.9 33.9081 1295.9 33.6324 1294.4 33.3568C1287.89 34.7351 1281.89 36.1135 1275.39 37.4919C1268.88 34.4595 1262.38 31.427 1255.87 28.3946C1248.87 29.4973 1242.36 30.6 1235.86 31.427C1229.35 30.8757 1222.85 30.3243 1216.34 29.773C1209.84 31.427 1203.84 33.0811 1197.33 34.7351C1194.33 33.3568 1191.33 31.9784 1188.32 30.8757C1183.82 28.9459 1180.82 26.7405 1174.31 25.0865C1161.81 21.7784 1152.8 18.1946 1148.3 14.6108C1145.8 12.6811 1141.79 10.7514 1137.79 8.54594C1131.79 9.37297 1126.28 9.92432 1121.28 10.7514C1118.78 11.027 1116.78 11.027 1113.27 11.027C1108.27 10.7514 1103.27 10.7514 1098.26 10.4757C1091.26 13.2324 1084.75 15.9892 1077.75 19.0216C1072.24 17.6432 1067.74 16.5405 1063.24 15.4378C1061.74 14.8865 1059.24 14.6108 1058.73 14.0595C1054.73 11.5784 1051.23 9.37297 1047.73 6.89189C1045.23 5.23783 1042.72 3.58378 1039.72 1.92973C1032.72 3.03243 1026.71 3.85946 1020.21 4.96216C1013.7 3.30811 1007.2 1.65405 1001.19 0C989.687 0.551346 977.178 1.1027 976.177 2.75675C975.677 3.03243 974.176 3.58378 973.175 3.85946C968.672 5.51351 962.168 7.16756 959.666 8.82162C953.662 12.9568 948.658 16.8162 944.656 20.9513C942.654 23.1568 937.15 25.0865 923.641 26.7405C922.14 27.0162 921.139 27.2919 920.639 27.5676C918.137 28.6703 915.635 30.0486 913.134 31.1514C909.631 32.8054 906.629 34.4595 903.127 36.1135H901.626C895.622 31.9784 889.117 27.8432 883.113 23.7081C881.612 23.9838 880.611 24.2595 879.61 24.2595C875.107 25.0865 870.104 25.9135 866.101 26.7405C863.099 27.2919 860.097 27.5676 854.093 27.2919C850.59 27.0162 846.588 27.0162 842.084 27.0162C835.58 29.2216 829.075 31.1514 823.071 33.3568C820.569 34.1838 819.569 35.0108 818.068 35.8378C809.562 40.5243 802.057 45.2108 785.045 49.6216C784.044 49.8973 783.043 50.173 781.542 50.173C776.039 50.4486 770.535 50.7243 764.531 51C757.526 49.0703 750.521 47.4162 743.516 45.4865C737.011 46.0378 731.007 46.5892 725.003 46.8649C718.499 47.4162 711.494 47.6919 704.489 47.9676C697.484 46.8649 691.48 46.0378 684.475 44.9351C679.472 46.5892 674.968 47.9676 669.965 49.3459C664.961 51 664.961 51 649.451 51C645.948 51 644.447 51 642.946 51.5513C639.444 52.3784 634.941 52.9297 631.939 53.7568C627.435 54.8595 620.431 55.4108 610.424 55.6865C606.921 55.6865 604.419 55.6865 601.918 55.4108C596.914 54.8595 591.41 54.3081 585.406 53.4811C582.404 54.5838 579.902 55.6865 576.9 56.7892C570.896 59.2703 566.393 62.027 549.882 64.2324C546.88 64.5081 543.878 65.0595 539.875 65.3351C528.367 66.1622 522.363 67.2649 519.36 68.6432C516.859 69.7459 513.356 70.8486 509.854 71.9514C508.853 72.227 507.852 72.5027 506.852 72.7784C494.843 68.9189 484.336 65.0595 467.324 61.2C462.321 61.2 457.317 61.4757 452.314 61.4757C450.313 61.4757 447.31 61.4757 445.809 61.2C440.806 60.373 436.803 59.5459 430.799 58.7189C424.294 57.8919 415.789 57.0649 407.283 56.2378C406.782 56.5135 406.282 56.5135 406.282 56.7892C400.278 60.0973 394.274 63.4054 388.27 66.7135C387.769 66.9892 386.268 67.2649 382.766 67.2649C373.259 67.5405 366.755 70.8486 357.248 70.8486C353.745 70.8486 347.741 68.6432 347.241 69.1946C346.24 69.7459 344.239 69.7459 342.738 70.2973C335.233 73.3297 330.73 76.3622 316.72 79.3946C310.716 80.4973 304.211 81.6 292.703 82.1514C290.702 82.1514 288.7 82.427 287.7 82.7027C282.196 84.6324 276.692 86.5622 271.188 88.4919C270.188 88.7676 268.687 89.0432 265.184 89.0432C254.176 89.0432 244.17 89.5946 234.663 90.1459C232.161 90.4216 230.16 90.4216 229.159 90.6973C223.655 91.8 218.151 93.1784 212.147 94.5568C211.147 94.2811 210.146 94.0054 209.646 93.7297C204.142 92.0757 199.138 90.4216 193.134 88.7676C192.634 88.4919 190.132 88.2162 188.131 88.2162C177.123 87.9405 166.115 87.9405 155.108 88.2162C153.607 88.2162 151.605 88.4919 150.605 88.7676C146.602 89.8703 143.099 90.6973 139.597 91.8C137.095 92.3514 134.594 93.1784 132.092 93.7297C127.088 93.7297 122.585 93.4541 118.582 93.4541C114.58 93.1784 112.078 93.4541 109.576 93.7297L102.071 88.2162L90.5629 90.1459L83.5581 92.9027C83.0577 92.627 73.5511 88.7676 72.5504 88.4919C66.0459 88.2162 59.5414 87.9405 52.5365 87.6649C46.032 90.6973 40.0278 93.4541 33.0229 96.2108C27.0188 94.5568 21.515 93.1784 16.0112 91.8C15.5109 91.5243 14.5101 91.5243 13.5094 91.2486C9.00635 90.973 4.50317 90.6973 0.00012207 90.1459V102H1441Z" fill="#DAB865"/>
</svg>
