<svg width="24" height="24" viewBox="0 0 24 24" fill="none" xmlns="http://www.w3.org/2000/svg">
<path d="M20.4604 9.63006C20.32 8.16898 19.8036 6.76915 18.9616 5.56688C18.1195 4.36462 16.9805 3.4009 15.6554 2.76956C14.3303 2.13822 12.8642 1.86079 11.4001 1.96427C9.93592 2.06775 8.5235 2.54863 7.30037 3.36006C6.24957 4.06271 5.36742 4.98936 4.71731 6.07346C4.0672 7.15755 3.66526 8.37217 3.54037 9.63006C3.41785 10.8797 3.57504 12.141 4.00054 13.3223C4.42604 14.5037 5.10917 15.5755 6.00037 16.4601L11.3004 21.7701C11.3933 21.8638 11.5039 21.9382 11.6258 21.989C11.7477 22.0397 11.8784 22.0659 12.0104 22.0659C12.1424 22.0659 12.2731 22.0397 12.3949 21.989C12.5168 21.9382 12.6274 21.8638 12.7204 21.7701L18.0004 16.4601C18.8916 15.5755 19.5747 14.5037 20.0002 13.3223C20.4257 12.141 20.5829 10.8797 20.4604 9.63006ZM16.6004 15.0501L12.0004 19.6501L7.40037 15.0501C6.72246 14.3721 6.20317 13.5524 5.87984 12.6498C5.5565 11.7473 5.43715 10.7843 5.53037 9.83006C5.62419 8.86117 5.93213 7.92522 6.43194 7.08991C6.93175 6.25459 7.61093 5.54077 8.42037 5.00006C9.48131 4.2953 10.7267 3.91936 12.0004 3.91936C13.2741 3.91936 14.5194 4.2953 15.5804 5.00006C16.3874 5.53868 17.065 6.24935 17.5647 7.081C18.0644 7.91266 18.3737 8.84467 18.4704 9.81007C18.5666 10.7675 18.4488 11.7343 18.1254 12.6406C17.8019 13.5469 17.281 14.3699 16.6004 15.0501ZM12.0004 6.00006C11.1104 6.00006 10.2403 6.26399 9.5003 6.75845C8.76028 7.25292 8.18351 7.95572 7.84291 8.77799C7.50232 9.60026 7.4132 10.5051 7.58684 11.378C7.76047 12.2509 8.18905 13.0527 8.81839 13.682C9.44773 14.3114 10.2495 14.74 11.1225 14.9136C11.9954 15.0872 12.9002 14.9981 13.7224 14.6575C14.5447 14.3169 15.2475 13.7402 15.742 13.0001C16.2364 12.2601 16.5004 11.3901 16.5004 10.5001C16.4977 9.3074 16.0228 8.16434 15.1794 7.321C14.3361 6.47766 13.193 6.00271 12.0004 6.00006ZM12.0004 13.0001C11.5059 13.0001 11.0226 12.8534 10.6114 12.5787C10.2003 12.304 9.87989 11.9136 9.69067 11.4568C9.50145 11 9.45194 10.4973 9.54841 10.0123C9.64487 9.52739 9.88297 9.08193 10.2326 8.7323C10.5822 8.38267 11.0277 8.14456 11.5126 8.0481C11.9976 7.95164 12.5003 8.00115 12.9571 8.19037C13.4139 8.37958 13.8043 8.70002 14.079 9.11114C14.3537 9.52226 14.5004 10.0056 14.5004 10.5001C14.5004 11.1631 14.237 11.799 13.7681 12.2678C13.2993 12.7367 12.6634 13.0001 12.0004 13.0001Z" fill="white"/>
</svg>
