<svg width="60" height="34" viewBox="0 0 60 34" fill="none" xmlns="http://www.w3.org/2000/svg">
<path d="M0 6C0 2.68629 2.68629 0 6 0H54C57.3137 0 60 2.68629 60 6V28C60 31.3137 57.3137 34 54 34H6C2.68629 34 0 31.3137 0 28V6Z" fill="#F45757"/>
<path d="M24.085 22H22.2505V14.9287L20.0605 15.6079V14.1162L23.8882 12.7451H24.085V22Z" fill="white"/>
<path d="M33.1177 15.2144C33.1177 15.6629 33.0055 16.0607 32.7812 16.4077C32.557 16.7547 32.248 17.0319 31.8545 17.2393C32.3031 17.4551 32.6585 17.7534 32.9209 18.1343C33.1833 18.5109 33.3145 18.9552 33.3145 19.4673C33.3145 20.2882 33.0352 20.9378 32.4766 21.416C31.918 21.89 31.1584 22.127 30.1978 22.127C29.2371 22.127 28.4754 21.8879 27.9126 21.4097C27.3498 20.9315 27.0684 20.284 27.0684 19.4673C27.0684 18.9552 27.1995 18.5088 27.4619 18.1279C27.7243 17.7471 28.0776 17.4508 28.522 17.2393C28.1284 17.0319 27.8195 16.7547 27.5952 16.4077C27.3752 16.0607 27.2651 15.6629 27.2651 15.2144C27.2651 14.4272 27.5275 13.8009 28.0522 13.3354C28.577 12.8657 29.29 12.6309 30.1914 12.6309C31.0885 12.6309 31.7995 12.8636 32.3242 13.3291C32.8532 13.7904 33.1177 14.4188 33.1177 15.2144ZM31.4736 19.334C31.4736 18.932 31.3573 18.6104 31.1245 18.3691C30.8918 18.1279 30.5786 18.0073 30.1851 18.0073C29.7957 18.0073 29.4847 18.1279 29.252 18.3691C29.0192 18.6061 28.9028 18.9277 28.9028 19.334C28.9028 19.7275 29.0171 20.0449 29.2456 20.2861C29.4741 20.5273 29.7915 20.6479 30.1978 20.6479C30.5955 20.6479 30.9066 20.5316 31.1309 20.2988C31.3594 20.0661 31.4736 19.7445 31.4736 19.334ZM31.2832 15.3032C31.2832 14.9435 31.188 14.6558 30.9976 14.4399C30.8071 14.2199 30.5384 14.1099 30.1914 14.1099C29.8486 14.1099 29.582 14.2157 29.3916 14.4272C29.2012 14.6388 29.106 14.9308 29.106 15.3032C29.106 15.6714 29.2012 15.9676 29.3916 16.1919C29.582 16.4162 29.8507 16.5283 30.1978 16.5283C30.5448 16.5283 30.8114 16.4162 30.9976 16.1919C31.188 15.9676 31.2832 15.6714 31.2832 15.3032Z" fill="white"/>
<path d="M38.3354 16.8267H40.627V18.4834H38.3354V21.0732H36.5898V18.4834H34.292V16.8267H36.5898V14.3447H38.3354V16.8267Z" fill="white"/>
<path fill-rule="evenodd" clip-rule="evenodd" d="M30 31C37.732 31 44 24.732 44 17C44 9.26801 37.732 3 30 3C22.268 3 16 9.26801 16 17C16 24.732 22.268 31 30 31ZM30 32C38.2843 32 45 25.2843 45 17C45 8.71573 38.2843 2 30 2C21.7157 2 15 8.71573 15 17C15 25.2843 21.7157 32 30 32Z" fill="white"/>
</svg>
