<svg width="60" height="34" viewBox="0 0 60 34" fill="none" xmlns="http://www.w3.org/2000/svg">
<rect width="60" height="34" rx="6" fill="#C9C9C9"/>
<path d="M15.34 23.266C14.5373 23.266 13.8467 23.1213 13.268 22.832C12.6893 22.5333 12.246 22.132 11.938 21.628C11.63 21.124 11.476 20.5547 11.476 19.92H13.688C13.688 20.3493 13.8327 20.6993 14.122 20.97C14.4113 21.2313 14.8173 21.362 15.34 21.362C15.8533 21.362 16.2547 21.222 16.544 20.942C16.8333 20.662 16.978 20.298 16.978 19.85C16.978 19.402 16.8333 19.0333 16.544 18.744C16.2547 18.4547 15.8533 18.31 15.34 18.31C15.06 18.31 14.8127 18.352 14.598 18.436C14.3927 18.52 14.2153 18.6227 14.066 18.744L13.03 16.994L16.124 14.978L15.998 14.74H11.896V12.78H18.784V14.908L15.942 16.714C16.95 16.8167 17.7433 17.148 18.322 17.708C18.91 18.2587 19.204 18.9633 19.204 19.822V19.99C19.204 20.6153 19.0453 21.1753 18.728 21.67C18.42 22.1647 17.9767 22.5567 17.398 22.846C16.8193 23.126 16.1333 23.266 15.34 23.266ZM20.9937 23.056V12.696H24.7877C25.7117 12.696 26.519 12.8313 27.2097 13.102C27.9004 13.3727 28.4744 13.7413 28.9317 14.208C29.3984 14.6747 29.7484 15.2113 29.9817 15.818C30.215 16.4153 30.3317 17.0453 30.3317 17.708V18.016C30.3317 18.6413 30.215 19.2527 29.9817 19.85C29.7484 20.4473 29.3984 20.9887 28.9317 21.474C28.4744 21.9593 27.9004 22.3467 27.2097 22.636C26.519 22.916 25.7117 23.056 24.7877 23.056H20.9937ZM24.9137 14.838H23.2897V20.914H24.9137C25.875 20.914 26.631 20.634 27.1817 20.074C27.7324 19.514 28.0077 18.7767 28.0077 17.862C28.0077 16.9007 27.7324 16.1587 27.1817 15.636C26.631 15.104 25.875 14.838 24.9137 14.838ZM33.2892 23L30.9932 15.328H33.3032L34.9412 21.138H35.2632L36.6772 15.328H38.8332L36.8452 23H33.2892ZM39.9767 23V20.9C39.9767 20.2467 40.1401 19.71 40.4667 19.29C40.8027 18.87 41.3627 18.492 42.1467 18.156L43.7987 17.442C44.2094 17.2647 44.5174 17.0453 44.7227 16.784C44.9281 16.5227 45.0307 16.1913 45.0307 15.79C45.0307 15.3793 44.9001 15.0433 44.6387 14.782C44.3867 14.5207 44.0227 14.39 43.5467 14.39C43.0614 14.39 42.6927 14.5253 42.4407 14.796C42.1887 15.0667 42.0627 15.4307 42.0627 15.888H39.8367C39.8367 15.244 39.9767 14.6653 40.2567 14.152C40.5367 13.6387 40.9521 13.2327 41.5027 12.934C42.0534 12.626 42.7347 12.472 43.5467 12.472C44.3494 12.472 45.0261 12.6167 45.5767 12.906C46.1274 13.1953 46.5427 13.5873 46.8227 14.082C47.1121 14.5673 47.2567 15.1087 47.2567 15.706V15.874C47.2567 16.658 47.0421 17.3067 46.6127 17.82C46.1834 18.3333 45.5207 18.7813 44.6247 19.164L42.9867 19.878C42.7067 19.9993 42.5061 20.13 42.3847 20.27C42.2727 20.4007 42.2167 20.5733 42.2167 20.788V21.026H47.2707V23H39.9767Z" fill="black"/>
</svg>
