<svg width="1461" height="657" viewBox="0 0 1461 657" fill="none" xmlns="http://www.w3.org/2000/svg" preserveAspectRatio="none">
<g opacity="0.05" clip-path="url(#clip0)" filter="url(#filter0_f)">
<path d="M1445.93 53.5293H1432.22C1429.46 53.5293 1427.22 55.7678 1427.22 58.5293V114.359C1427.22 117.12 1429.46 119.359 1432.22 119.359H1445.93C1448.69 119.359 1450.93 117.12 1450.93 114.359V58.5293C1450.93 55.7678 1448.69 53.5293 1445.93 53.5293Z" fill="#DAB865"/>
<path d="M1440.88 131.379V41.5092C1440.88 40.5287 1440.09 39.7339 1439.11 39.7339C1438.13 39.7339 1437.33 40.5287 1437.33 41.5092V131.379C1437.33 132.359 1438.13 133.154 1439.11 133.154C1440.09 133.154 1440.88 132.359 1440.88 131.379Z" fill="#DAB865"/>
<path d="M676.627 156.593H662.911C660.149 156.593 657.911 158.832 657.911 161.593V217.423C657.911 220.184 660.149 222.423 662.911 222.423H676.627C679.388 222.423 681.627 220.184 681.627 217.423V161.593C681.627 158.832 679.388 156.593 676.627 156.593Z" fill="#DAB865"/>
<path d="M671.511 234.443V144.573C671.511 143.592 670.716 142.798 669.735 142.798C668.755 142.798 667.96 143.592 667.96 144.573V234.443C667.96 235.423 668.755 236.218 669.735 236.218C670.716 236.218 671.511 235.423 671.511 234.443Z" fill="#DAB865"/>
<path d="M1405.47 92.9064H1391.75C1388.99 92.9064 1386.75 95.145 1386.75 97.9065V113.622C1386.75 116.384 1388.99 118.622 1391.75 118.622H1405.47C1408.23 118.622 1410.47 116.384 1410.47 113.622V97.9064C1410.47 95.145 1408.23 92.9064 1405.47 92.9064Z" fill="#DAB865"/>
<path d="M1400.35 121.802V88.1859C1400.35 87.2054 1399.56 86.4105 1398.58 86.4105C1397.6 86.4105 1396.8 87.2054 1396.8 88.1859V121.802C1396.8 122.783 1397.6 123.578 1398.58 123.578C1399.56 123.578 1400.35 122.783 1400.35 121.802Z" fill="#DAB865"/>
<path d="M69.1814 580.3H55.4651C52.7037 580.3 50.4651 582.538 50.4651 585.3V601.016C50.4651 603.777 52.7037 606.016 55.4651 606.016H69.1814C71.9428 606.016 74.1814 603.777 74.1814 601.016V585.3C74.1814 582.538 71.9428 580.3 69.1814 580.3Z" fill="#DAB865"/>
<path d="M64.1321 609.263V575.646C64.1321 574.666 63.3373 573.871 62.3567 573.871C61.3762 573.871 60.5814 574.666 60.5814 575.646V609.263C60.5814 610.243 61.3762 611.038 62.3567 611.038C63.3373 611.038 64.1321 610.243 64.1321 609.263Z" fill="#DAB865"/>
<path d="M1365 100.876H1351.29C1348.53 100.876 1346.29 103.114 1346.29 105.876V124.873C1346.29 127.634 1348.53 129.873 1351.29 129.873H1365C1367.76 129.873 1370 127.634 1370 124.873V105.876C1370 103.114 1367.76 100.876 1365 100.876Z" fill="#DAB865"/>
<path d="M1359.89 134.46V96.2219C1359.89 95.2415 1359.09 94.4467 1358.11 94.4467C1357.13 94.4467 1356.34 95.2415 1356.34 96.2219V134.46C1356.34 135.44 1357.13 136.235 1358.11 136.235C1359.09 136.235 1359.89 135.44 1359.89 134.46Z" fill="#DAB865"/>
<path d="M1324.47 97.6611H1310.75C1307.99 97.6611 1305.75 99.8997 1305.75 102.661V136.257C1305.75 139.019 1307.99 141.257 1310.75 141.257H1324.47C1327.23 141.257 1329.47 139.019 1329.47 136.257V102.661C1329.47 99.8997 1327.23 97.6611 1324.47 97.6611Z" fill="#DAB865"/>
<path d="M1319.42 150.264V90.128C1319.42 89.1475 1318.63 88.3526 1317.65 88.3526C1316.67 88.3526 1315.87 89.1475 1315.87 90.128V150.264C1315.87 151.244 1316.67 152.039 1317.65 152.039C1318.63 152.039 1319.42 151.244 1319.42 150.264Z" fill="#DAB865"/>
<path d="M109.714 560.477H95.9972C93.2358 560.477 90.9972 562.716 90.9972 565.477V599.073C90.9972 601.835 93.2358 604.073 95.9972 604.073H109.714C112.475 604.073 114.714 601.835 114.714 599.073V565.477C114.714 562.716 112.475 560.477 109.714 560.477Z" fill="#DAB865"/>
<path d="M104.597 613.147V553.011C104.597 552.031 103.802 551.236 102.822 551.236C101.841 551.236 101.047 552.031 101.047 553.011V613.147C101.047 614.128 101.841 614.922 102.822 614.922C103.802 614.922 104.597 614.128 104.597 613.147Z" fill="#DAB865"/>
<path d="M352.638 389.374H338.922C336.16 389.374 333.922 391.612 333.922 394.374V447.86C333.922 450.621 336.16 452.86 338.922 452.86H352.638C355.4 452.86 357.638 450.621 357.638 447.86V394.374C357.638 391.612 355.4 389.374 352.638 389.374Z" fill="#DAB865"/>
<path d="M347.589 461.598V378.894C347.589 377.914 346.794 377.119 345.813 377.119C344.833 377.119 344.038 377.914 344.038 378.894V461.598C344.038 462.579 344.833 463.374 345.813 463.374C346.794 463.374 347.589 462.579 347.589 461.598Z" fill="#DAB865"/>
<path d="M433.635 312.763H419.919C417.158 312.763 414.919 315.001 414.919 317.763V351.359C414.919 354.12 417.158 356.359 419.919 356.359H433.635C436.397 356.359 438.635 354.12 438.635 351.359V317.763C438.635 315.001 436.397 312.763 433.635 312.763Z" fill="#DAB865"/>
<path d="M428.586 365.365V305.229C428.586 304.249 427.791 303.454 426.811 303.454C425.83 303.454 425.035 304.249 425.035 305.229V365.365C425.035 366.346 425.83 367.141 426.811 367.141C427.791 367.141 428.586 366.346 428.586 365.365Z" fill="#DAB865"/>
<path d="M717.092 129.806H703.376C700.614 129.806 698.376 132.044 698.376 134.806V168.402C698.376 171.163 700.614 173.402 703.376 173.402H717.092C719.854 173.402 722.092 171.163 722.092 168.402V134.806C722.092 132.044 719.854 129.806 717.092 129.806Z" fill="#DAB865"/>
<path d="M712.043 182.475V122.34C712.043 121.359 711.248 120.564 710.267 120.564C709.287 120.564 708.492 121.359 708.492 122.34V182.475C708.492 183.456 709.287 184.251 710.267 184.251C711.248 184.251 712.043 183.456 712.043 182.475Z" fill="#DAB865"/>
<path d="M1284.01 113.867H1270.29C1267.53 113.867 1265.29 116.106 1265.29 118.867V158.089C1265.29 160.85 1267.53 163.089 1270.29 163.089H1284.01C1286.77 163.089 1289.01 160.85 1289.01 158.089V118.867C1289.01 116.106 1286.77 113.867 1284.01 113.867Z" fill="#DAB865"/>
<path d="M1278.89 171.828V104.861C1278.89 103.88 1278.09 103.086 1277.11 103.086C1276.13 103.086 1275.34 103.88 1275.34 104.861V171.828C1275.34 172.808 1276.13 173.603 1277.11 173.603C1278.09 173.603 1278.89 172.808 1278.89 171.828Z" fill="#DAB865"/>
<path d="M1243.47 86.0088H1229.76C1227 86.0088 1224.76 88.2473 1224.76 91.0088V136.458C1224.76 139.22 1227 141.458 1229.76 141.458H1243.47C1246.23 141.458 1248.47 139.22 1248.47 136.458V91.0088C1248.47 88.2473 1246.23 86.0088 1243.47 86.0088Z" fill="#DAB865"/>
<path d="M1238.42 151.134V77.0023C1238.42 76.0218 1237.63 75.2269 1236.65 75.2269C1235.67 75.2269 1234.87 76.0218 1234.87 77.0023V151.134C1234.87 152.115 1235.67 152.91 1236.65 152.91C1237.63 152.91 1238.42 152.115 1238.42 151.134Z" fill="#DAB865"/>
<path d="M231.176 506.97H217.46C214.698 506.97 212.46 509.208 212.46 511.97V557.419C212.46 560.181 214.698 562.419 217.46 562.419H231.176C233.937 562.419 236.176 560.181 236.176 557.419V511.97C236.176 509.208 233.937 506.97 231.176 506.97Z" fill="#DAB865"/>
<path d="M226.127 572.095V497.963C226.127 496.983 225.332 496.188 224.351 496.188C223.371 496.188 222.576 496.983 222.576 497.963V572.095C222.576 573.076 223.371 573.871 224.351 573.871C225.332 573.871 226.127 573.076 226.127 572.095Z" fill="#DAB865"/>
<path d="M595.63 227.981H581.914C579.152 227.981 576.914 230.22 576.914 232.981V278.431C576.914 281.192 579.152 283.431 581.914 283.431H595.63C598.391 283.431 600.63 281.192 600.63 278.431V232.981C600.63 230.22 598.391 227.981 595.63 227.981Z" fill="#DAB865"/>
<path d="M590.514 293.107V218.975C590.514 217.994 589.719 217.199 588.738 217.199C587.758 217.199 586.963 217.994 586.963 218.975V293.107C586.963 294.087 587.758 294.882 588.738 294.882C589.719 294.882 590.514 294.087 590.514 293.107Z" fill="#DAB865"/>
<path d="M555.098 274.591H541.381C538.62 274.591 536.381 276.829 536.381 279.591V306.557C536.381 309.318 538.62 311.557 541.381 311.557H555.098C557.859 311.557 560.098 309.318 560.098 306.557V279.591C560.098 276.829 557.859 274.591 555.098 274.591Z" fill="#DAB865"/>
<path d="M550.048 318.889V258.084C550.048 257.103 549.254 256.308 548.273 256.308C547.293 256.308 546.498 257.103 546.498 258.084V318.889C546.498 319.87 547.293 320.665 548.273 320.665C549.254 320.665 550.048 319.87 550.048 318.889Z" fill="#DAB865"/>
<path d="M1203.01 94.1571H1189.29C1186.53 94.1571 1184.29 96.3957 1184.29 99.1571V120.967C1184.29 123.728 1186.53 125.967 1189.29 125.967H1203.01C1205.77 125.967 1208.01 123.728 1208.01 120.967V99.1571C1208.01 96.3957 1205.77 94.1571 1203.01 94.1571Z" fill="#DAB865"/>
<path d="M1197.89 138.724V89.1685C1197.89 88.1881 1197.1 87.3933 1196.12 87.3933C1195.14 87.3933 1194.34 88.1881 1194.34 89.1685V138.724C1194.34 139.704 1195.14 140.499 1196.12 140.499C1197.1 140.499 1197.89 139.704 1197.89 138.724Z" fill="#DAB865"/>
<path d="M271.641 493.241H257.925C255.163 493.241 252.925 495.48 252.925 498.241V520.051C252.925 522.813 255.163 525.051 257.925 525.051H271.641C274.402 525.051 276.641 522.813 276.641 520.051V498.241C276.641 495.48 274.402 493.241 271.641 493.241Z" fill="#DAB865"/>
<path d="M266.592 537.741V488.186C266.592 487.205 265.797 486.411 264.816 486.411C263.836 486.411 263.041 487.205 263.041 488.186V537.741C263.041 538.722 263.836 539.516 264.816 539.516C265.797 539.516 266.592 538.722 266.592 537.741Z" fill="#DAB865"/>
<path d="M514.633 283.43H500.916C498.155 283.43 495.916 285.669 495.916 288.43V310.24C495.916 313.002 498.155 315.24 500.916 315.24H514.633C517.394 315.24 519.633 313.002 519.633 310.24V288.43C519.633 285.669 517.394 283.43 514.633 283.43Z" fill="#DAB865"/>
<path d="M509.516 327.997V278.442C509.516 277.462 508.721 276.667 507.741 276.667C506.76 276.667 505.966 277.462 505.966 278.442V327.997C505.966 328.978 506.76 329.772 507.741 329.772C508.721 329.772 509.516 328.978 509.516 327.997Z" fill="#DAB865"/>
<path d="M1162.48 58.6188H1148.76C1146 58.6188 1143.76 60.8574 1143.76 63.6188V104.448C1143.76 107.209 1146 109.448 1148.76 109.448H1162.48C1165.24 109.448 1167.48 107.209 1167.48 104.448V63.6188C1167.48 60.8574 1165.24 58.6188 1162.48 58.6188Z" fill="#DAB865"/>
<path d="M1157.43 118.454V49.9471C1157.43 48.9666 1156.63 48.1718 1155.65 48.1718C1154.67 48.1718 1153.88 48.9666 1153.88 49.9471V118.454C1153.88 119.435 1154.67 120.229 1155.65 120.229C1156.63 120.229 1157.43 119.435 1157.43 118.454Z" fill="#DAB865"/>
<path d="M28.7163 585.456H15C12.2386 585.456 10 587.695 10 590.456V631.285C10 634.047 12.2386 636.285 15 636.285H28.7163C31.4777 636.285 33.7163 634.047 33.7163 631.285V590.456C33.7163 587.695 31.4777 585.456 28.7163 585.456Z" fill="#DAB865"/>
<path d="M23.667 645.292V576.785C23.667 575.804 22.8722 575.009 21.8916 575.009C20.9111 575.009 20.1163 575.804 20.1163 576.785V645.292C20.1163 646.272 20.9111 647.067 21.8916 647.067C22.8722 647.067 23.667 646.272 23.667 645.292Z" fill="#DAB865"/>
<path d="M150.179 534.494H136.462C133.701 534.494 131.462 536.732 131.462 539.494V580.322C131.462 583.084 133.701 585.322 136.462 585.322H150.179C152.94 585.322 155.179 583.084 155.179 580.322V539.494C155.179 536.732 152.94 534.494 150.179 534.494Z" fill="#DAB865"/>
<path d="M145.129 594.329V525.822C145.129 524.841 144.335 524.047 143.354 524.047C142.373 524.047 141.579 524.841 141.579 525.822V594.329C141.579 595.309 142.373 596.104 143.354 596.104C144.335 596.104 145.129 595.309 145.129 594.329Z" fill="#DAB865"/>
<path d="M757.557 103.086H743.841C741.08 103.086 738.841 105.324 738.841 108.086V148.914C738.841 151.676 741.08 153.914 743.841 153.914H757.557C760.319 153.914 762.557 151.676 762.557 148.914V108.086C762.557 105.324 760.319 103.086 757.557 103.086Z" fill="#DAB865"/>
<path d="M752.508 162.921V94.414C752.508 93.4334 751.713 92.6386 750.733 92.6386C749.752 92.6386 748.957 93.4334 748.957 94.414V162.921C748.957 163.901 749.752 164.696 750.733 164.696C751.713 164.696 752.508 163.901 752.508 162.921Z" fill="#DAB865"/>
<path d="M1122.01 48.4397H1108.29C1105.53 48.4397 1103.29 50.6783 1103.29 53.4397V81.9463C1103.29 84.7077 1105.53 86.9463 1108.29 86.9463H1122.01C1124.77 86.9463 1127.01 84.7077 1127.01 81.9463V53.4397C1127.01 50.6783 1124.77 48.4397 1122.01 48.4397Z" fill="#DAB865"/>
<path d="M1116.96 92.6044V43.5183C1116.96 42.5378 1116.17 41.7429 1115.19 41.7429C1114.21 41.7429 1113.41 42.5378 1113.41 43.5183V92.6044C1113.41 93.5849 1114.21 94.3798 1115.19 94.3798C1116.17 94.3798 1116.96 93.5849 1116.96 92.6044Z" fill="#DAB865"/>
<path d="M798.089 106.501H784.373C781.612 106.501 779.373 108.74 779.373 111.501V140.008C779.373 142.769 781.612 145.008 784.373 145.008H798.089C800.851 145.008 803.089 142.769 803.089 140.008V111.501C803.089 108.74 800.851 106.501 798.089 106.501Z" fill="#DAB865"/>
<path d="M792.973 150.599V101.513C792.973 100.532 792.178 99.7372 791.198 99.7372C790.217 99.7372 789.422 100.532 789.422 101.513V150.599C789.422 151.579 790.217 152.374 791.198 152.374C792.178 152.374 792.973 151.579 792.973 150.599Z" fill="#DAB865"/>
<path d="M1041.01 44.2876H1027.3C1024.54 44.2876 1022.3 46.5262 1022.3 49.2876V81.0757C1022.3 83.8371 1024.54 86.0757 1027.3 86.0757H1041.01C1043.78 86.0757 1046.01 83.8371 1046.01 81.0757V49.2876C1046.01 46.5262 1043.78 44.2876 1041.01 44.2876Z" fill="#DAB865"/>
<path d="M1035.96 90.5953V39.2992C1035.96 38.3187 1035.17 37.5238 1034.19 37.5238C1033.21 37.5238 1032.41 38.3187 1032.41 39.2992V90.5953C1032.41 91.5758 1033.21 92.3707 1034.19 92.3707C1035.17 92.3707 1035.96 91.5758 1035.96 90.5953Z" fill="#DAB865"/>
<path d="M190.711 546.28H176.994C174.233 546.28 171.994 548.519 171.994 551.28V568.871C171.994 571.632 174.233 573.871 176.994 573.871H190.711C193.472 573.871 195.711 571.632 195.711 568.871V551.28C195.711 548.519 193.472 546.28 190.711 546.28Z" fill="#DAB865"/>
<path d="M185.594 581.337V541.359C185.594 540.378 184.8 539.583 183.819 539.583C182.839 539.583 182.044 540.378 182.044 541.359V581.337C182.044 582.318 182.839 583.112 183.819 583.112C184.8 583.112 185.594 582.318 185.594 581.337Z" fill="#DAB865"/>
<path d="M393.17 357.497H379.454C376.693 357.497 374.454 359.736 374.454 362.497V383.57C374.454 386.332 376.693 388.57 379.454 388.57H393.17C395.932 388.57 398.17 386.332 398.17 383.57V362.497C398.17 359.736 395.932 357.497 393.17 357.497Z" fill="#DAB865"/>
<path d="M388.054 392.085V351.839C388.054 350.859 387.259 350.064 386.279 350.064C385.298 350.064 384.503 350.859 384.503 351.839V392.085C384.503 393.066 385.298 393.861 386.279 393.861C387.259 393.861 388.054 393.066 388.054 392.085Z" fill="#DAB865"/>
<path d="M636.095 202.935H622.379C619.617 202.935 617.379 205.174 617.379 207.935V239.723C617.379 242.484 619.617 244.723 622.379 244.723H636.095C638.856 244.723 641.095 242.484 641.095 239.723V207.935C641.095 205.174 638.856 202.935 636.095 202.935Z" fill="#DAB865"/>
<path d="M631.046 249.243V197.946C631.046 196.966 630.251 196.171 629.27 196.171C628.29 196.171 627.495 196.966 627.495 197.946V249.243C627.495 250.223 628.29 251.018 629.27 251.018C630.251 251.018 631.046 250.223 631.046 249.243Z" fill="#DAB865"/>
<path d="M879.087 84.3345H865.37C862.609 84.3345 860.37 86.5731 860.37 89.3345V121.123C860.37 123.884 862.609 126.123 865.37 126.123H879.087C881.848 126.123 884.087 123.884 884.087 121.123V89.3345C884.087 86.5731 881.848 84.3345 879.087 84.3345Z" fill="#DAB865"/>
<path d="M873.97 130.642V79.3461C873.97 78.3656 873.175 77.5707 872.195 77.5707C871.214 77.5707 870.42 78.3656 870.42 79.3461V130.642C870.42 131.623 871.214 132.418 872.195 132.418C873.175 132.418 873.97 131.623 873.97 130.642Z" fill="#DAB865"/>
<path d="M1000.55 38.5954H986.833C984.071 38.5954 981.833 40.8339 981.833 43.5954V91.3218C981.833 94.0832 984.071 96.3218 986.833 96.3218H1000.55C1003.31 96.3218 1005.55 94.0832 1005.55 91.3218V43.5954C1005.55 40.8339 1003.31 38.5954 1000.55 38.5954Z" fill="#DAB865"/>
<path d="M995.433 107.672V29.8568C995.433 28.8762 994.638 28.0814 993.657 28.0814C992.677 28.0814 991.882 28.8762 991.882 29.8568V107.672C991.882 108.653 992.677 109.448 993.657 109.448C994.638 109.448 995.433 108.653 995.433 107.672Z" fill="#DAB865"/>
<path d="M838.554 75.026H824.838C822.077 75.026 819.838 77.2646 819.838 80.026V127.753C819.838 130.514 822.077 132.753 824.838 132.753H838.554C841.316 132.753 843.554 130.514 843.554 127.752V80.026C843.554 77.2646 841.316 75.026 838.554 75.026Z" fill="#DAB865"/>
<path d="M833.505 144.103V66.2874C833.505 65.3069 832.71 64.512 831.73 64.512C830.749 64.512 829.954 65.3069 829.954 66.2874V144.103C829.954 145.083 830.749 145.878 831.73 145.878C832.71 145.878 833.505 145.083 833.505 144.103Z" fill="#DAB865"/>
<path d="M960.017 61.2975H946.3C943.539 61.2975 941.3 63.5361 941.3 66.2975V118.98C941.3 121.741 943.539 123.98 946.3 123.98H960.017C962.778 123.98 965.017 121.741 965.017 118.98V66.2975C965.017 63.5361 962.778 61.2975 960.017 61.2975Z" fill="#DAB865"/>
<path d="M954.967 130.374V49.3445C954.967 48.3639 954.173 47.5691 953.192 47.5691C952.212 47.5691 951.417 48.3639 951.417 49.3445V130.374C951.417 131.355 952.212 132.15 953.192 132.15C954.173 132.15 954.967 131.355 954.967 130.374Z" fill="#DAB865"/>
<path d="M919.552 68.3961H905.835C903.074 68.3961 900.835 70.6347 900.835 73.3962V131.101C900.835 133.862 903.074 136.101 905.835 136.101H919.552C922.313 136.101 924.552 133.862 924.552 131.101V73.3961C924.552 70.6347 922.313 68.3961 919.552 68.3961Z" fill="#DAB865"/>
<path d="M914.502 153.545V56.4431C914.502 55.4626 913.707 54.6677 912.727 54.6677C911.747 54.6677 910.952 55.4626 910.952 56.4431V153.545C910.952 154.526 911.747 155.321 912.727 155.321C913.707 155.321 914.502 154.526 914.502 153.545Z" fill="#DAB865"/>
<path d="M474.167 278.676H460.451C457.69 278.676 455.451 280.914 455.451 283.676V341.38C455.451 344.142 457.69 346.38 460.451 346.38H474.167C476.929 346.38 479.167 344.142 479.167 341.38V283.676C479.167 280.914 476.929 278.676 474.167 278.676Z" fill="#DAB865"/>
<path d="M469.051 363.825V266.723C469.051 265.742 468.256 264.947 467.276 264.947C466.295 264.947 465.501 265.742 465.501 266.723V363.825C465.501 364.805 466.295 365.6 467.276 365.6C468.256 365.6 469.051 364.805 469.051 363.825Z" fill="#DAB865"/>
<path d="M1081.55 22.1882H1067.83C1065.07 22.1882 1062.83 24.4268 1062.83 27.1882V80.8079C1062.83 83.5693 1065.07 85.8079 1067.83 85.8079H1081.55C1084.31 85.8079 1086.55 83.5693 1086.55 80.8079V27.1882C1086.55 24.4268 1084.31 22.1882 1081.55 22.1882Z" fill="#DAB865"/>
<path d="M1076.43 96.0197V11.7754C1076.43 10.7949 1075.63 10 1074.65 10C1073.67 10 1072.88 10.7949 1072.88 11.7754V96.0197C1072.88 97.0002 1073.67 97.7951 1074.65 97.7951C1075.63 97.7951 1076.43 97.0002 1076.43 96.0197Z" fill="#DAB865"/>
<path d="M312.173 435.314H298.457C295.695 435.314 293.457 437.553 293.457 440.314V502.573C293.457 505.334 295.695 507.573 298.457 507.573H312.173C314.934 507.573 317.173 505.334 317.173 502.573V440.314C317.173 437.553 314.934 435.314 312.173 435.314Z" fill="#DAB865"/>
<path d="M307.057 524.682V424.834C307.057 423.854 306.262 423.059 305.281 423.059C304.301 423.059 303.506 423.854 303.506 424.834V524.682C303.506 525.663 304.301 526.458 305.281 526.458C306.262 526.458 307.057 525.663 307.057 524.682Z" fill="#DAB865"/>
</g>
<g opacity="0.15" clip-path="url(#clip1)">
<path d="M1445.93 43.5293H1432.22C1429.46 43.5293 1427.22 45.7678 1427.22 48.5293V104.359C1427.22 107.12 1429.46 109.359 1432.22 109.359H1445.93C1448.69 109.359 1450.93 107.12 1450.93 104.359V48.5293C1450.93 45.7678 1448.69 43.5293 1445.93 43.5293Z" fill="#DAB865"/>
<path d="M1440.88 121.379V31.5092C1440.88 30.5287 1440.09 29.7339 1439.11 29.7339C1438.13 29.7339 1437.33 30.5287 1437.33 31.5092V121.379C1437.33 122.359 1438.13 123.154 1439.11 123.154C1440.09 123.154 1440.88 122.359 1440.88 121.379Z" fill="#DAB865"/>
<path d="M676.627 146.593H662.911C660.149 146.593 657.911 148.832 657.911 151.593V207.423C657.911 210.184 660.149 212.423 662.911 212.423H676.627C679.388 212.423 681.627 210.184 681.627 207.423V151.593C681.627 148.832 679.388 146.593 676.627 146.593Z" fill="#DAB865"/>
<path d="M671.511 224.443V134.573C671.511 133.592 670.716 132.798 669.735 132.798C668.755 132.798 667.96 133.592 667.96 134.573V224.443C667.96 225.423 668.755 226.218 669.735 226.218C670.716 226.218 671.511 225.423 671.511 224.443Z" fill="#DAB865"/>
<path d="M1405.47 82.9064H1391.75C1388.99 82.9064 1386.75 85.145 1386.75 87.9064V103.622C1386.75 106.384 1388.99 108.622 1391.75 108.622H1405.47C1408.23 108.622 1410.47 106.384 1410.47 103.622V87.9064C1410.47 85.145 1408.23 82.9064 1405.47 82.9064Z" fill="#DAB865"/>
<path d="M1400.35 111.802V78.1859C1400.35 77.2054 1399.56 76.4105 1398.58 76.4105C1397.6 76.4105 1396.8 77.2054 1396.8 78.1859V111.802C1396.8 112.783 1397.6 113.578 1398.58 113.578C1399.56 113.578 1400.35 112.783 1400.35 111.802Z" fill="#DAB865"/>
<path d="M69.1814 570.3H55.4651C52.7037 570.3 50.4651 572.538 50.4651 575.3V591.016C50.4651 593.777 52.7037 596.016 55.4651 596.016H69.1814C71.9428 596.016 74.1814 593.777 74.1814 591.016V575.3C74.1814 572.538 71.9428 570.3 69.1814 570.3Z" fill="#DAB865"/>
<path d="M64.1321 599.263V565.646C64.1321 564.666 63.3373 563.871 62.3567 563.871C61.3762 563.871 60.5814 564.666 60.5814 565.646V599.263C60.5814 600.243 61.3762 601.038 62.3567 601.038C63.3373 601.038 64.1321 600.243 64.1321 599.263Z" fill="#DAB865"/>
<path d="M1365 90.8755H1351.29C1348.53 90.8755 1346.29 93.1141 1346.29 95.8755V114.873C1346.29 117.634 1348.53 119.873 1351.29 119.873H1365C1367.76 119.873 1370 117.634 1370 114.873V95.8755C1370 93.1141 1367.76 90.8755 1365 90.8755Z" fill="#DAB865"/>
<path d="M1359.89 124.459V86.2219C1359.89 85.2414 1359.09 84.4467 1358.11 84.4467C1357.13 84.4467 1356.34 85.2414 1356.34 86.2219V124.459C1356.34 125.44 1357.13 126.235 1358.11 126.235C1359.09 126.235 1359.89 125.44 1359.89 124.459Z" fill="#DAB865"/>
<path d="M1324.47 87.6611H1310.75C1307.99 87.6611 1305.75 89.8997 1305.75 92.6611V126.257C1305.75 129.019 1307.99 131.257 1310.75 131.257H1324.47C1327.23 131.257 1329.47 129.019 1329.47 126.257V92.6611C1329.47 89.8997 1327.23 87.6611 1324.47 87.6611Z" fill="#DAB865"/>
<path d="M1319.42 140.264V80.128C1319.42 79.1475 1318.63 78.3526 1317.65 78.3526C1316.67 78.3526 1315.87 79.1475 1315.87 80.128V140.264C1315.87 141.244 1316.67 142.039 1317.65 142.039C1318.63 142.039 1319.42 141.244 1319.42 140.264Z" fill="#DAB865"/>
<path d="M109.714 550.477H95.9972C93.2358 550.477 90.9972 552.716 90.9972 555.477V589.073C90.9972 591.835 93.2358 594.073 95.9972 594.073H109.714C112.475 594.073 114.714 591.835 114.714 589.073V555.477C114.714 552.716 112.475 550.477 109.714 550.477Z" fill="#DAB865"/>
<path d="M104.597 603.147V543.011C104.597 542.031 103.802 541.236 102.822 541.236C101.841 541.236 101.047 542.031 101.047 543.011V603.147C101.047 604.128 101.841 604.922 102.822 604.922C103.802 604.922 104.597 604.128 104.597 603.147Z" fill="#DAB865"/>
<path d="M352.638 379.374H338.922C336.16 379.374 333.922 381.612 333.922 384.374V437.86C333.922 440.621 336.16 442.86 338.922 442.86H352.638C355.4 442.86 357.638 440.621 357.638 437.86V384.374C357.638 381.612 355.4 379.374 352.638 379.374Z" fill="#DAB865"/>
<path d="M347.589 451.598V368.894C347.589 367.914 346.794 367.119 345.813 367.119C344.833 367.119 344.038 367.914 344.038 368.894V451.598C344.038 452.579 344.833 453.374 345.813 453.374C346.794 453.374 347.589 452.579 347.589 451.598Z" fill="#DAB865"/>
<path d="M433.635 302.763H419.919C417.158 302.763 414.919 305.001 414.919 307.763V341.359C414.919 344.12 417.158 346.359 419.919 346.359H433.635C436.397 346.359 438.635 344.12 438.635 341.359V307.763C438.635 305.001 436.397 302.763 433.635 302.763Z" fill="#DAB865"/>
<path d="M428.586 355.365V295.229C428.586 294.249 427.791 293.454 426.811 293.454C425.83 293.454 425.035 294.249 425.035 295.229V355.365C425.035 356.346 425.83 357.141 426.811 357.141C427.791 357.141 428.586 356.346 428.586 355.365Z" fill="#DAB865"/>
<path d="M717.092 119.806H703.376C700.614 119.806 698.376 122.044 698.376 124.806V158.402C698.376 161.163 700.614 163.402 703.376 163.402H717.092C719.854 163.402 722.092 161.163 722.092 158.402V124.806C722.092 122.044 719.854 119.806 717.092 119.806Z" fill="#DAB865"/>
<path d="M712.043 172.475V112.34C712.043 111.359 711.248 110.564 710.267 110.564C709.287 110.564 708.492 111.359 708.492 112.34V172.475C708.492 173.456 709.287 174.251 710.267 174.251C711.248 174.251 712.043 173.456 712.043 172.475Z" fill="#DAB865"/>
<path d="M1284.01 103.867H1270.29C1267.53 103.867 1265.29 106.106 1265.29 108.867V148.089C1265.29 150.85 1267.53 153.089 1270.29 153.089H1284.01C1286.77 153.089 1289.01 150.85 1289.01 148.089V108.867C1289.01 106.106 1286.77 103.867 1284.01 103.867Z" fill="#DAB865"/>
<path d="M1278.89 161.828V94.8609C1278.89 93.8804 1278.09 93.0856 1277.11 93.0856C1276.13 93.0856 1275.34 93.8804 1275.34 94.8609V161.828C1275.34 162.808 1276.13 163.603 1277.11 163.603C1278.09 163.603 1278.89 162.808 1278.89 161.828Z" fill="#DAB865"/>
<path d="M1243.47 76.0088H1229.76C1227 76.0088 1224.76 78.2473 1224.76 81.0088V126.458C1224.76 129.22 1227 131.458 1229.76 131.458H1243.47C1246.23 131.458 1248.47 129.22 1248.47 126.458V81.0088C1248.47 78.2473 1246.23 76.0088 1243.47 76.0088Z" fill="#DAB865"/>
<path d="M1238.42 141.134V67.0023C1238.42 66.0218 1237.63 65.2269 1236.65 65.2269C1235.67 65.2269 1234.87 66.0218 1234.87 67.0023V141.134C1234.87 142.115 1235.67 142.91 1236.65 142.91C1237.63 142.91 1238.42 142.115 1238.42 141.134Z" fill="#DAB865"/>
<path d="M231.176 496.97H217.46C214.698 496.97 212.46 499.208 212.46 501.97V547.419C212.46 550.181 214.698 552.419 217.46 552.419H231.176C233.937 552.419 236.176 550.181 236.176 547.419V501.97C236.176 499.208 233.937 496.97 231.176 496.97Z" fill="#DAB865"/>
<path d="M226.127 562.095V487.963C226.127 486.983 225.332 486.188 224.351 486.188C223.371 486.188 222.576 486.983 222.576 487.963V562.095C222.576 563.076 223.371 563.871 224.351 563.871C225.332 563.871 226.127 563.076 226.127 562.095Z" fill="#DAB865"/>
<path d="M595.63 217.981H581.914C579.152 217.981 576.914 220.22 576.914 222.981V268.431C576.914 271.192 579.152 273.431 581.914 273.431H595.63C598.391 273.431 600.63 271.192 600.63 268.431V222.981C600.63 220.22 598.391 217.981 595.63 217.981Z" fill="#DAB865"/>
<path d="M590.514 283.107V208.975C590.514 207.994 589.719 207.199 588.738 207.199C587.758 207.199 586.963 207.994 586.963 208.975V283.107C586.963 284.087 587.758 284.882 588.738 284.882C589.719 284.882 590.514 284.087 590.514 283.107Z" fill="#DAB865"/>
<path d="M555.098 264.591H541.381C538.62 264.591 536.381 266.829 536.381 269.591V296.557C536.381 299.318 538.62 301.557 541.381 301.557H555.098C557.859 301.557 560.098 299.318 560.098 296.557V269.591C560.098 266.829 557.859 264.591 555.098 264.591Z" fill="#DAB865"/>
<path d="M550.048 308.889V248.084C550.048 247.103 549.254 246.308 548.273 246.308C547.293 246.308 546.498 247.103 546.498 248.084V308.889C546.498 309.87 547.293 310.665 548.273 310.665C549.254 310.665 550.048 309.87 550.048 308.889Z" fill="#DAB865"/>
<path d="M1203.01 84.1571H1189.29C1186.53 84.1571 1184.29 86.3957 1184.29 89.1571V110.967C1184.29 113.728 1186.53 115.967 1189.29 115.967H1203.01C1205.77 115.967 1208.01 113.728 1208.01 110.967V89.1571C1208.01 86.3957 1205.77 84.1571 1203.01 84.1571Z" fill="#DAB865"/>
<path d="M1197.89 128.724V79.1685C1197.89 78.1881 1197.1 77.3933 1196.12 77.3933C1195.14 77.3933 1194.34 78.1881 1194.34 79.1685V128.724C1194.34 129.704 1195.14 130.499 1196.12 130.499C1197.1 130.499 1197.89 129.704 1197.89 128.724Z" fill="#DAB865"/>
<path d="M271.641 483.241H257.925C255.163 483.241 252.925 485.48 252.925 488.241V510.051C252.925 512.813 255.163 515.051 257.925 515.051H271.641C274.402 515.051 276.641 512.813 276.641 510.051V488.241C276.641 485.48 274.402 483.241 271.641 483.241Z" fill="#DAB865"/>
<path d="M266.592 527.741V478.186C266.592 477.205 265.797 476.411 264.816 476.411C263.836 476.411 263.041 477.205 263.041 478.186V527.741C263.041 528.722 263.836 529.516 264.816 529.516C265.797 529.516 266.592 528.722 266.592 527.741Z" fill="#DAB865"/>
<path d="M514.633 273.43H500.916C498.155 273.43 495.916 275.669 495.916 278.43V300.24C495.916 303.002 498.155 305.24 500.916 305.24H514.633C517.394 305.24 519.633 303.002 519.633 300.24V278.43C519.633 275.669 517.394 273.43 514.633 273.43Z" fill="#DAB865"/>
<path d="M509.516 317.997V268.442C509.516 267.462 508.721 266.667 507.741 266.667C506.76 266.667 505.966 267.462 505.966 268.442V317.997C505.966 318.978 506.76 319.772 507.741 319.772C508.721 319.772 509.516 318.978 509.516 317.997Z" fill="#DAB865"/>
<path d="M1162.48 48.6188H1148.76C1146 48.6188 1143.76 50.8574 1143.76 53.6188V94.4475C1143.76 97.2089 1146 99.4475 1148.76 99.4475H1162.48C1165.24 99.4475 1167.48 97.2089 1167.48 94.4475V53.6188C1167.48 50.8574 1165.24 48.6188 1162.48 48.6188Z" fill="#DAB865"/>
<path d="M1157.43 108.454V39.9471C1157.43 38.9666 1156.63 38.1718 1155.65 38.1718C1154.67 38.1718 1153.88 38.9666 1153.88 39.9471V108.454C1153.88 109.435 1154.67 110.229 1155.65 110.229C1156.63 110.229 1157.43 109.435 1157.43 108.454Z" fill="#DAB865"/>
<path d="M28.7163 575.456H15C12.2386 575.456 10 577.695 10 580.456V621.285C10 624.047 12.2386 626.285 15 626.285H28.7163C31.4777 626.285 33.7163 624.047 33.7163 621.285V580.456C33.7163 577.695 31.4777 575.456 28.7163 575.456Z" fill="#DAB865"/>
<path d="M23.667 635.292V566.785C23.667 565.804 22.8722 565.009 21.8916 565.009C20.9111 565.009 20.1163 565.804 20.1163 566.785V635.292C20.1163 636.272 20.9111 637.067 21.8916 637.067C22.8722 637.067 23.667 636.272 23.667 635.292Z" fill="#DAB865"/>
<path d="M150.179 524.494H136.462C133.701 524.494 131.462 526.732 131.462 529.494V570.322C131.462 573.084 133.701 575.322 136.462 575.322H150.179C152.94 575.322 155.179 573.084 155.179 570.322V529.494C155.179 526.732 152.94 524.494 150.179 524.494Z" fill="#DAB865"/>
<path d="M145.129 584.329V515.822C145.129 514.841 144.335 514.047 143.354 514.047C142.373 514.047 141.579 514.841 141.579 515.822V584.329C141.579 585.309 142.373 586.104 143.354 586.104C144.335 586.104 145.129 585.309 145.129 584.329Z" fill="#DAB865"/>
<path d="M757.557 93.0855H743.841C741.08 93.0855 738.841 95.3241 738.841 98.0855V138.914C738.841 141.676 741.08 143.914 743.841 143.914H757.557C760.319 143.914 762.557 141.676 762.557 138.914V98.0855C762.557 95.3241 760.319 93.0855 757.557 93.0855Z" fill="#DAB865"/>
<path d="M752.508 152.921V84.414C752.508 83.4334 751.713 82.6386 750.733 82.6386C749.752 82.6386 748.957 83.4334 748.957 84.414V152.921C748.957 153.901 749.752 154.696 750.733 154.696C751.713 154.696 752.508 153.901 752.508 152.921Z" fill="#DAB865"/>
<path d="M1122.01 38.4397H1108.29C1105.53 38.4397 1103.29 40.6783 1103.29 43.4397V71.9463C1103.29 74.7077 1105.53 76.9463 1108.29 76.9463H1122.01C1124.77 76.9463 1127.01 74.7077 1127.01 71.9463V43.4397C1127.01 40.6783 1124.77 38.4397 1122.01 38.4397Z" fill="#DAB865"/>
<path d="M1116.96 82.6044V33.5183C1116.96 32.5378 1116.17 31.7429 1115.19 31.7429C1114.21 31.7429 1113.41 32.5378 1113.41 33.5183V82.6044C1113.41 83.5849 1114.21 84.3798 1115.19 84.3798C1116.17 84.3798 1116.96 83.5849 1116.96 82.6044Z" fill="#DAB865"/>
<path d="M798.089 96.501H784.373C781.612 96.501 779.373 98.7396 779.373 101.501V130.008C779.373 132.769 781.612 135.008 784.373 135.008H798.089C800.851 135.008 803.089 132.769 803.089 130.008V101.501C803.089 98.7396 800.851 96.501 798.089 96.501Z" fill="#DAB865"/>
<path d="M792.973 140.599V91.5125C792.973 90.532 792.178 89.7372 791.198 89.7372C790.217 89.7372 789.422 90.532 789.422 91.5125V140.599C789.422 141.579 790.217 142.374 791.198 142.374C792.178 142.374 792.973 141.579 792.973 140.599Z" fill="#DAB865"/>
<path d="M1041.01 34.2876H1027.3C1024.54 34.2876 1022.3 36.5262 1022.3 39.2876V71.0757C1022.3 73.8371 1024.54 76.0757 1027.3 76.0757H1041.01C1043.78 76.0757 1046.01 73.8371 1046.01 71.0757V39.2876C1046.01 36.5262 1043.78 34.2876 1041.01 34.2876Z" fill="#DAB865"/>
<path d="M1035.96 80.5953V29.2992C1035.96 28.3187 1035.17 27.5238 1034.19 27.5238C1033.21 27.5238 1032.41 28.3187 1032.41 29.2992V80.5953C1032.41 81.5758 1033.21 82.3707 1034.19 82.3707C1035.17 82.3707 1035.96 81.5758 1035.96 80.5953Z" fill="#DAB865"/>
<path d="M190.711 536.28H176.994C174.233 536.28 171.994 538.519 171.994 541.28V558.871C171.994 561.632 174.233 563.871 176.994 563.871H190.711C193.472 563.871 195.711 561.632 195.711 558.871V541.28C195.711 538.519 193.472 536.28 190.711 536.28Z" fill="#DAB865"/>
<path d="M185.594 571.337V531.359C185.594 530.378 184.8 529.583 183.819 529.583C182.839 529.583 182.044 530.378 182.044 531.359V571.337C182.044 572.318 182.839 573.112 183.819 573.112C184.8 573.112 185.594 572.318 185.594 571.337Z" fill="#DAB865"/>
<path d="M393.17 347.497H379.454C376.693 347.497 374.454 349.736 374.454 352.497V373.57C374.454 376.332 376.693 378.57 379.454 378.57H393.17C395.932 378.57 398.17 376.332 398.17 373.57V352.497C398.17 349.736 395.932 347.497 393.17 347.497Z" fill="#DAB865"/>
<path d="M388.054 382.085V341.839C388.054 340.859 387.259 340.064 386.279 340.064C385.298 340.064 384.503 340.859 384.503 341.839V382.085C384.503 383.066 385.298 383.861 386.279 383.861C387.259 383.861 388.054 383.066 388.054 382.085Z" fill="#DAB865"/>
<path d="M636.095 192.935H622.379C619.617 192.935 617.379 195.174 617.379 197.935V229.723C617.379 232.484 619.617 234.723 622.379 234.723H636.095C638.856 234.723 641.095 232.484 641.095 229.723V197.935C641.095 195.174 638.856 192.935 636.095 192.935Z" fill="#DAB865"/>
<path d="M631.046 239.243V187.946C631.046 186.966 630.251 186.171 629.27 186.171C628.29 186.171 627.495 186.966 627.495 187.946V239.243C627.495 240.223 628.29 241.018 629.27 241.018C630.251 241.018 631.046 240.223 631.046 239.243Z" fill="#DAB865"/>
<path d="M879.087 74.3345H865.37C862.609 74.3345 860.37 76.5731 860.37 79.3345V111.123C860.37 113.884 862.609 116.123 865.37 116.123H879.087C881.848 116.123 884.087 113.884 884.087 111.123V79.3345C884.087 76.5731 881.848 74.3345 879.087 74.3345Z" fill="#DAB865"/>
<path d="M873.97 120.642V69.3461C873.97 68.3656 873.175 67.5707 872.195 67.5707C871.214 67.5707 870.42 68.3656 870.42 69.3461V120.642C870.42 121.623 871.214 122.418 872.195 122.418C873.175 122.418 873.97 121.623 873.97 120.642Z" fill="#DAB865"/>
<path d="M1000.55 28.5954H986.833C984.071 28.5954 981.833 30.8339 981.833 33.5954V81.3218C981.833 84.0832 984.071 86.3218 986.833 86.3218H1000.55C1003.31 86.3218 1005.55 84.0832 1005.55 81.3218V33.5954C1005.55 30.8339 1003.31 28.5954 1000.55 28.5954Z" fill="#DAB865"/>
<path d="M995.433 97.6721V19.8568C995.433 18.8762 994.638 18.0814 993.657 18.0814C992.677 18.0814 991.882 18.8762 991.882 19.8568V97.6721C991.882 98.6527 992.677 99.4475 993.657 99.4475C994.638 99.4475 995.433 98.6527 995.433 97.6721Z" fill="#DAB865"/>
<path d="M838.554 65.026H824.838C822.077 65.026 819.838 67.2646 819.838 70.026V117.753C819.838 120.514 822.077 122.753 824.838 122.753H838.554C841.316 122.753 843.554 120.514 843.554 117.752V70.026C843.554 67.2646 841.316 65.026 838.554 65.026Z" fill="#DAB865"/>
<path d="M833.505 134.103V56.2874C833.505 55.3069 832.71 54.512 831.73 54.512C830.749 54.512 829.954 55.3069 829.954 56.2874V134.103C829.954 135.083 830.749 135.878 831.73 135.878C832.71 135.878 833.505 135.083 833.505 134.103Z" fill="#DAB865"/>
<path d="M960.017 51.2975H946.3C943.539 51.2975 941.3 53.5361 941.3 56.2975V108.98C941.3 111.741 943.539 113.98 946.3 113.98H960.017C962.778 113.98 965.017 111.741 965.017 108.98V56.2975C965.017 53.5361 962.778 51.2975 960.017 51.2975Z" fill="#DAB865"/>
<path d="M954.967 120.374V39.3445C954.967 38.3639 954.173 37.5691 953.192 37.5691C952.212 37.5691 951.417 38.3639 951.417 39.3445V120.374C951.417 121.355 952.212 122.15 953.192 122.15C954.173 122.15 954.967 121.355 954.967 120.374Z" fill="#DAB865"/>
<path d="M919.552 58.3961H905.835C903.074 58.3961 900.835 60.6347 900.835 63.3962V121.101C900.835 123.862 903.074 126.101 905.835 126.101H919.552C922.313 126.101 924.552 123.862 924.552 121.101V63.3961C924.552 60.6347 922.313 58.3961 919.552 58.3961Z" fill="#DAB865"/>
<path d="M914.502 143.545V46.4431C914.502 45.4626 913.707 44.6677 912.727 44.6677C911.747 44.6677 910.952 45.4626 910.952 46.4431V143.545C910.952 144.526 911.747 145.321 912.727 145.321C913.707 145.321 914.502 144.526 914.502 143.545Z" fill="#DAB865"/>
<path d="M474.167 268.676H460.451C457.69 268.676 455.451 270.914 455.451 273.676V331.38C455.451 334.142 457.69 336.38 460.451 336.38H474.167C476.929 336.38 479.167 334.142 479.167 331.38V273.676C479.167 270.914 476.929 268.676 474.167 268.676Z" fill="#DAB865"/>
<path d="M469.051 353.825V256.723C469.051 255.742 468.256 254.947 467.276 254.947C466.295 254.947 465.501 255.742 465.501 256.723V353.825C465.501 354.805 466.295 355.6 467.276 355.6C468.256 355.6 469.051 354.805 469.051 353.825Z" fill="#DAB865"/>
<path d="M1081.55 12.1882H1067.83C1065.07 12.1882 1062.83 14.4268 1062.83 17.1882V70.8079C1062.83 73.5693 1065.07 75.8079 1067.83 75.8079H1081.55C1084.31 75.8079 1086.55 73.5693 1086.55 70.8079V17.1882C1086.55 14.4268 1084.31 12.1882 1081.55 12.1882Z" fill="#DAB865"/>
<path d="M1076.43 86.0197V1.77539C1076.43 0.794869 1075.63 0 1074.65 0C1073.67 0 1072.88 0.794867 1072.88 1.77539V86.0197C1072.88 87.0002 1073.67 87.7951 1074.65 87.7951C1075.63 87.7951 1076.43 87.0002 1076.43 86.0197Z" fill="#DAB865"/>
<path d="M312.173 425.314H298.457C295.695 425.314 293.457 427.553 293.457 430.314V492.573C293.457 495.334 295.695 497.573 298.457 497.573H312.173C314.934 497.573 317.173 495.334 317.173 492.573V430.314C317.173 427.553 314.934 425.314 312.173 425.314Z" fill="#DAB865"/>
<path d="M307.057 514.682V414.834C307.057 413.854 306.262 413.059 305.281 413.059C304.301 413.059 303.506 413.854 303.506 414.834V514.682C303.506 515.663 304.301 516.458 305.281 516.458C306.262 516.458 307.057 515.663 307.057 514.682Z" fill="#DAB865"/>
</g>
<defs>
<filter id="filter0_f" x="0" y="0" width="1461" height="657" filterUnits="userSpaceOnUse" color-interpolation-filters="sRGB">
<feFlood flood-opacity="0" result="BackgroundImageFix"/>
<feBlend mode="normal" in="SourceGraphic" in2="BackgroundImageFix" result="shape"/>
<feGaussianBlur stdDeviation="5" result="effect1_foregroundBlur"/>
</filter>
<clipPath id="clip0">
<rect width="1441" height="637" fill="white" transform="translate(10 10)"/>
</clipPath>
<clipPath id="clip1">
<rect width="1441" height="637" fill="white" transform="translate(10)"/>
</clipPath>
</defs>
</svg>
