<svg width="1441" height="180" viewBox="0 0 1441 180" fill="none" xmlns="http://www.w3.org/2000/svg" preserveAspectRatio="none">
<path fill-rule="evenodd" clip-rule="evenodd" d="M1441 179.5L1441 11C1436.5 10 1431.99 9.5 1427.49 9C1427.05 8.78078 1426.61 8.65767 1426.22 8.5464C1425.71 8.40388 1425.27 8.28078 1424.99 8C1419.48 5.5 1413.98 3 1407.98 0C1400.97 5 1394.97 10 1388.46 15.5C1381.46 15 1374.95 14.5 1368.45 14C1367.45 13.5 1357.94 6.5 1357.44 6L1350.44 11L1338.93 14.5L1331.42 4.5C1328.92 5 1326.42 5.5 1322.42 5C1320.53 5 1318.53 4.88854 1316.41 4.77088C1314.05 4.63932 1311.55 4.5 1308.91 4.5C1307.66 5.00003 1306.41 5.62508 1305.16 6.25011C1303.9 6.87508 1302.65 7.50003 1301.4 8C1299.1 9.31372 1296.8 10.4117 1294.36 11.5774C1293.08 12.1863 1291.77 12.8137 1290.4 13.5C1289.39 14 1287.39 14.5 1285.89 14.5C1274.88 15 1263.88 15 1252.87 14.5C1250.87 14.5 1248.37 14 1247.87 13.5C1243.86 11.4999 1240.3 9.49984 1236.75 7.49976C1234.97 6.49984 1233.19 5.49992 1231.35 4.5C1230.85 4 1229.85 3.5 1228.85 3C1227.06 3.7485 1225.3 4.497 1223.58 5.23207C1219.55 6.95218 1215.7 8.5988 1211.84 10C1211.25 10.2953 1210.31 10.4162 1209.12 10.5687C1208.3 10.6744 1207.36 10.7953 1206.34 11C1196.83 12 1186.82 13 1175.82 13C1172.31 13 1170.81 13.5 1169.81 14L1153.3 24.5C1152.3 25 1150.3 25.5 1148.3 25.5C1136.79 26.5 1130.28 28.5 1124.28 30.5C1113.63 34.68 1108.48 38.8599 1103.32 43.0399C1101.69 44.3599 1100.06 45.68 1098.26 47C1097.56 47.4689 1096.74 47.7179 1095.98 47.9532C1095.1 48.2198 1094.29 48.4689 1093.76 49C1093.52 49.4712 1092.07 48.8322 1090.22 48.0246C1088.16 47.1184 1085.6 46 1083.75 46C1078.83 46 1074.71 47.6103 1070.56 49.2319C1066.7 50.7406 1062.82 52.259 1058.23 52.5C1054.73 52.5 1053.23 53 1052.73 53.5L1034.72 71.5C1034.72 71.809 1034.53 71.927 1034.26 72.0902C1034.1 72.191 1033.91 72.309 1033.72 72.5C1025.21 71 1016.71 69.5 1010.2 68C1006.2 67 1003.08 66 999.972 65C998.415 64.5 996.858 64 995.191 63.5C993.69 63 990.687 63 988.686 63C986.184 63 983.683 63.125 981.181 63.25C978.679 63.375 976.177 63.5 973.676 63.5C959.854 57.8125 950.326 52.1251 940.798 46.4376C938.599 45.1251 936.4 43.8125 934.148 42.5L931.146 44C927.644 46 924.141 48 921.64 50C918.637 52.5 912.633 54.5 901.125 56C898.744 56.2974 896.717 56.7718 894.833 57.2126C893.551 57.5128 892.335 57.7974 891.118 58C876.894 61.4458 871.582 65.6337 866.545 69.6048C865.734 70.2435 864.931 70.8765 864.1 71.5C862.599 72.5 861.223 73.5 859.847 74.5C858.471 75.5 857.095 76.5 855.594 77.5C850.767 76.2943 846.264 75.4116 842.085 74.5923C841.065 74.3923 840.064 74.1962 839.082 74C836.581 73.5 834.079 73.5 830.576 73.5C820.569 74 813.565 75 809.061 77C807.427 77.8169 805.347 78.4854 803.225 79.1672C801.452 79.7374 799.649 80.3169 798.054 81C796.553 82 795.052 82 791.549 82C780.471 82 777.305 82 774.577 83.0931C773.486 83.5304 772.465 84.1427 771.035 85C766.032 87.5 761.528 90 756.525 93C753.023 92 749.77 91.125 746.518 90.25C743.266 89.375 740.013 88.5 736.511 87.5C729.506 88 722.501 88.5 715.997 89.5C710.8 89.9327 705.604 90.74 700.083 91.5976C699.225 91.7309 698.359 91.8655 697.484 92C693.982 90.25 690.479 88.6251 686.977 87.0001C683.474 85.3751 679.972 83.75 676.469 82C670.465 82.5 664.961 83 659.458 83.5C657.957 83.5 656.956 84 655.955 84.5C640.491 91.7724 632.882 99.4579 625.236 107.181C624.471 107.954 623.706 108.727 622.932 109.5C622.557 109.875 622.213 110.25 621.869 110.625C620.837 111.75 619.805 112.875 617.929 114C614.247 116.453 610.376 118.718 606.433 121.026C603.947 122.481 601.431 123.953 598.916 125.5C594.412 125.5 590.41 125.5 586.907 125C580.903 124.5 577.901 125 574.899 126C572.23 127 569.117 128 566.003 129C564.447 129.5 562.89 130 561.39 130.5C560.657 130.5 559.924 130.768 558.996 131.108C558.656 131.232 558.289 131.366 557.887 131.5C554.885 127.75 551.758 124 548.631 120.251C545.504 116.5 542.377 112.75 539.374 109H537.873C536.122 110.5 534.496 112 532.87 113.5C531.244 115 529.617 116.5 527.866 118C526.615 119 525.365 120.125 524.114 121.25C522.863 122.375 521.612 123.5 520.361 124.5C519.861 125 518.86 125.5 517.359 126C503.85 129 498.346 132.5 496.344 136.5C492.342 144 487.338 151 481.334 158.5C479.666 160.5 476.219 162.5 472.772 164.5C471.049 165.5 469.326 166.5 467.825 167.5C466.824 168 465.323 169 464.823 169.5C463.85 172.416 452.008 173.442 440.778 174.416L439.805 174.5C433.801 171.5 427.297 168.5 420.792 165.5C416.787 166.732 412.971 167.774 408.995 168.859C406.514 169.537 403.97 170.232 401.278 171C398.276 168 395.775 165 393.273 162C389.77 157.5 386.268 153.5 382.265 149C381.969 148.407 380.969 147.99 379.892 147.541C379.151 147.232 378.374 146.907 377.762 146.5C373.259 144.5 368.756 142.5 363.252 140C356.247 145.5 349.743 150.5 342.738 155.5C340.236 155.25 337.734 155.125 335.233 155C332.731 154.875 330.229 154.75 327.727 154.5C324.225 154.5 322.224 154.5 319.722 155C316.657 155.919 313.405 156.65 309.965 157.423C307.789 157.913 305.537 158.419 303.21 159C302.185 157.975 301.16 156.984 300.16 156.016C297.255 153.207 294.564 150.603 292.703 148C288.2 141.5 279.194 135 266.685 129C262.186 126.925 259.362 124.371 256.559 121.836C255.309 120.706 254.064 119.579 252.675 118.5C249.673 116.5 246.671 114 243.669 111.5L243.669 111.5C240.417 113 237.29 114.5 234.162 116C231.035 117.5 227.908 119 224.656 120.5L205.142 117.5C200.102 118.662 195.061 120.125 189.787 121.655C188.256 122.1 186.705 122.55 185.128 123L165.615 106.5C162.363 107.75 159.236 109 156.108 110.25C152.981 111.5 149.854 112.75 146.602 114C146.028 113.809 145.528 113.618 145.101 113.455C144.409 113.191 143.909 113 143.6 113C141.625 112.013 139.434 111.243 137.454 110.547C136.423 110.185 135.45 109.842 134.593 109.5C129.59 107 121.584 105.5 107.575 105C106.748 105 105.922 104.848 105.179 104.712C104.573 104.601 104.022 104.5 103.572 104.5C101.07 104 99.0687 103.5 97.0674 103C90.0625 100.5 80.0555 99 68.0472 98C63.0437 97.5 59.041 97 55.0382 96C49.5344 95 43.0299 94.5 34.524 94.5C28.0194 94.5 24.0167 94 21.5149 93C19.2994 91.6162 16.624 90.3857 13.9129 89.1387C11.726 88.1328 9.51584 87.1162 7.50521 86C6.50451 85 4.00278 85 0.500347 85H0V179.5H1441Z" fill="white"/>
</svg>
