<svg width="1440" height="185" viewBox="0 0 1440 185" fill="none" xmlns="http://www.w3.org/2000/svg" preserveAspectRatio="none">
<path fill-rule="evenodd" clip-rule="evenodd" d="M1440 185V89.5H1439.5C1436 89.5 1433.5 89.5 1432.5 88.5C1428 86 1422.5 84 1418.5 81.5C1416 80.5 1412 80 1405.5 80C1397 80 1390.5 79.5 1385 78.5C1381 77.5 1377 77 1372 76.5C1360 75.5 1350 74 1343 71.5C1341 71 1339 70.5 1336.5 70C1335.5 70 1334 69.5 1332.5 69.5C1318.5 69 1310.5 67.5 1305.5 65C1303 64 1299.5 63 1296.5 61.5C1296 61.5 1295 61 1293.5 60.5C1287 63 1281 65.5 1274.5 68C1268 62.5 1261.5 57 1255 51.5C1248 53.5 1241.5 55.5 1235 57C1228.5 56 1222 55 1215.5 54C1209 57 1203 60 1196.5 63C1193.5 60.5 1190.5 58 1187.5 56C1183 52.5 1180 48.5 1173.5 45.5C1161 39.5 1152 33 1147.5 26.5C1145 23 1141 19.5 1137 15.5C1131 17 1125.5 18 1120.5 19.5C1118 20 1116 20 1112.5 20C1107.5 19.5 1102.5 19.5 1097.5 19C1090.5 24 1084 29 1077 34.5C1071.5 32 1067 30 1062.5 28C1061 27 1058.5 26.5 1058 25.5C1054 21 1050.5 17 1047 12.5C1044.5 9.5 1042 6.5 1039 3.5C1032 5.5 1026 7 1019.5 9C1013 6 1006.5 3 1000.5 0C989 1 976.5 2 975.5 5C975 5.5 973.5 6.5 972.5 7C968 10 961.5 13 959 16C953 23.5 948 30.5 944 38C942 42 936.5 45.5 923 48.5C921.5 49 920.5 49.5 920 50C917.5 52 915 54.5 912.5 56.5C909 59.5 906 62.5 902.5 65.5H901C895 58 888.5 50.5 882.5 43C881 43.5 880 44 879 44C874.5 45.5 869.5 47 865.5 48.5C862.5 49.5 859.5 50 853.5 49.5C850 49 846 49 841.5 49C835 53 828.5 56.5 822.5 60.5C820 62 819 63.5 817.5 65C809 73.5 801.5 82 784.5 90C783.5 90.5 782.5 91 781 91C775.5 91.5 770 92 764 92.5C757 89 750 86 743 82.5C736.5 83.5 730.5 84.5 724.5 85C718 86 711 86.5 704 87C697 85 691 83.5 684 81.5C679 84.5 674.5 87 669.5 89.5C664.5 92.5 664.5 92.5 649 92.5C645.5 92.5 644 92.5 642.5 93.5C639 95 634.5 96 631.5 97.5C627 99.5 620 100.5 610 101C606.5 101 604 101 601.5 100.5C596.5 99.5 591 98.5 585 97C582 99 579.5 101 576.5 103C570.5 107.5 566 112.5 549.5 116.5C546.5 117 543.5 118 539.5 118.5C528 120 522 122 519 124.5C516.5 126.5 513 128.5 509.5 130.5C508.5 131 507.5 131.5 506.5 132C494.5 125 484 118 467 111C462 111 457 111.5 452 111.5C450 111.5 447 111.5 445.5 111C440.5 109.5 436.5 108 430.5 106.5C424 105 415.5 103.5 407 102C406.5 102.5 406 102.5 406 103C400 109 394 115 388 121C387.5 121.5 386 122 382.5 122C373 122.5 366.5 128.5 357 128.5C353.5 128.5 347.5 124.5 347 125.5C346 126.5 344 126.5 342.5 127.5C335 133 330.5 138.5 316.5 144C310.5 146 304 148 292.5 149C290.5 149 288.5 149.5 287.5 150C282 153.5 276.5 157 271 160.5C270 161 268.5 161.5 265 161.5C254 161.5 244 162.5 234.5 163.5C232 164 230 164 229 164.5C223.5 166.5 218 169 212 171.5C211 171 210 170.5 209.5 170C204 167 199 164 193 161C192.5 160.5 190 160 188 160C177 159.5 166 159.5 155 160C153.5 160 151.5 160.5 150.5 161C146.5 163 143 164.5 139.5 166.5C137 167.5 134.5 169 132 170C127 170 122.5 169.5 118.5 169.5C114.5 169 112 169.5 109.5 170C104.5 171.5 98.5 173.5 92.5 175C91.5 174.5 91 174 91 174C85.5 170 79.5 165.5 74 161.5C73.5 161 73.5 161 72.5 160.5C66 160 59.5 159.5 52.5 159C46 164.5 40 169.5 33 174.5C27 171.5 21.5 169 16 166.5C15.5 166 14.5 166 13.5 165.5C9 165 4.5 164.5 0 163.5V185H1440Z" fill="white"/>
</svg>
