<svg width="1440" height="180" viewBox="0 0 1440 180" fill="none" xmlns="http://www.w3.org/2000/svg" preserveAspectRatio="none">
<path fill-rule="evenodd" clip-rule="evenodd" d="M1440 11C1435.5 10 1431 9.5 1426.5 9C1426.06 8.78076 1425.62 8.65771 1425.23 8.54639C1424.72 8.40393 1424.28 8.28076 1424 8C1418.5 5.5 1413 3 1407 0C1400 5 1394 10 1387.5 15.5C1380.5 15 1374 14.5 1367.5 14C1366.5 13.5 1357 6.5 1356.5 6L1349.5 11L1338 14.5L1330.5 4.5C1328 5 1325.5 5.5 1321.5 5C1319.61 5 1317.61 4.88855 1315.5 4.77087C1313.14 4.63928 1310.64 4.5 1308 4.5C1306.75 5 1305.5 5.625 1304.25 6.25C1303 6.875 1301.75 7.5 1300.5 8C1298.2 9.31372 1295.9 10.4116 1293.46 11.5773C1292.19 12.1863 1290.87 12.8137 1289.5 13.5C1288.5 14 1286.5 14.5 1285 14.5C1274 15 1263 15 1252 14.5C1250 14.5 1247.5 14 1247 13.5C1243 11.5 1239.44 9.5 1235.89 7.5C1234.11 6.5 1232.33 5.5 1230.5 4.5C1230 4 1229 3.5 1228 3C1226.2 3.74854 1224.45 4.49707 1222.73 5.23206C1218.71 6.95215 1214.85 8.59875 1211 10C1210.41 10.2953 1209.47 10.4163 1208.28 10.5687C1207.46 10.6744 1206.52 10.7953 1205.5 11C1196 12 1186 13 1175 13C1171.5 13 1170 13.5 1169 14L1152.5 24.5C1151.5 25 1149.5 25.5 1147.5 25.5C1136 26.5 1129.5 28.5 1123.5 30.5C1112.86 34.6801 1107.71 38.8601 1102.55 43.0402C1100.93 44.3601 1099.3 45.6801 1097.5 47C1096.8 47.4689 1095.98 47.7179 1095.21 47.9532C1094.34 48.2198 1093.53 48.4689 1093 49C1092.76 49.4712 1091.31 48.8322 1089.47 48.0245C1087.4 47.1184 1084.85 46 1083 46C1078.08 46 1073.96 47.6102 1069.82 49.2318C1065.96 50.7405 1062.08 52.259 1057.5 52.5C1054 52.5 1052.5 53 1052 53.5L1034 71.5C1034 71.809 1033.81 71.927 1033.55 72.0901C1033.38 72.1909 1033.19 72.309 1033 72.5C1024.5 71 1016 69.5 1009.5 68C1005.5 67 1002.39 66 999.278 65C997.722 64.5 996.167 64 994.5 63.5C993 63 990 63 988 63C985.5 63 983 63.125 980.5 63.25C978 63.375 975.5 63.5 973 63.5C959.188 57.8125 949.666 52.125 940.145 46.4375C937.947 45.125 935.75 43.8125 933.5 42.5L930.5 44C927 46 923.5 48 921 50C918 52.5 912 54.5 900.5 56C898.12 56.2975 896.095 56.7719 894.213 57.2126C892.931 57.5128 891.715 57.7975 890.5 58C876.286 61.4458 870.977 65.6337 865.943 69.6049C865.134 70.2435 864.331 70.8766 863.5 71.5C862 72.5 860.625 73.5 859.25 74.5C857.875 75.5 856.5 76.5 855 77.5C850.177 76.2942 845.677 75.4115 841.5 74.5923C840.481 74.3923 839.481 74.1962 838.5 74C836 73.5 833.5 73.5 830 73.5C820 74 813 75 808.5 77C806.866 77.8169 804.788 78.4855 802.668 79.1672C800.895 79.7374 799.094 80.3169 797.5 81C796 82 794.5 82 791 82C779.93 82 776.766 82 774.04 83.0929C772.95 83.5303 771.929 84.1426 770.5 85C765.5 87.5 761 90 756 93C752.5 92 749.25 91.125 746 90.25C742.75 89.375 739.5 88.5 736 87.5C729 88 722 88.5 715.5 89.5C710.307 89.9327 705.115 90.74 699.598 91.5977C698.74 91.731 697.875 91.8655 697 92C693.5 90.25 690 88.625 686.5 87C683 85.375 679.5 83.75 676 82C670 82.5 664.5 83 659 83.5C657.5 83.5 656.5 84 655.5 84.5C640.046 91.7723 632.443 99.458 624.802 107.181C624.038 107.954 623.273 108.727 622.5 109.5C622.125 109.875 621.781 110.25 621.438 110.625C620.406 111.75 619.375 112.875 617.5 114C613.82 116.453 609.953 118.718 606.013 121.026C603.528 122.481 601.014 123.953 598.5 125.5C594 125.5 590 125.5 586.5 125C580.5 124.5 577.5 125 574.5 126C571.833 127 568.722 128 565.611 129C564.056 129.5 562.5 130 561 130.5C560.268 130.5 559.536 130.768 558.608 131.108C558.268 131.232 557.902 131.366 557.5 131.5C554.5 127.75 551.375 124 548.25 120.25C545.125 116.5 542 112.75 539 109H537.5C535.75 110.5 534.125 112 532.5 113.5C530.875 115 529.25 116.5 527.5 118C526.25 119 525 120.125 523.75 121.25C522.5 122.375 521.25 123.5 520 124.5C519.5 125 518.5 125.5 517 126C503.5 129 498 132.5 496 136.5C492 144 487 151 481 158.5C479.333 160.5 475.889 162.5 472.444 164.5C470.722 165.5 469 166.5 467.5 167.5C466.5 168 465 169 464.5 169.5C463.528 172.416 451.694 173.442 440.472 174.416L439.5 174.5C433.5 171.5 427 168.5 420.5 165.5C416.497 166.732 412.685 167.774 408.711 168.859C406.232 169.537 403.69 170.232 401 171C398 168 395.5 165 393 162C389.5 157.5 386 153.5 382 149C381.704 148.407 380.705 147.99 379.628 147.541C378.888 147.232 378.111 146.907 377.5 146.5C373 144.5 368.5 142.5 363 140C356 145.5 349.5 150.5 342.5 155.5C340 155.25 337.5 155.125 335 155C332.5 154.875 330 154.75 327.5 154.5C324 154.5 322 154.5 319.5 155C316.438 155.919 313.188 156.65 309.75 157.423C307.575 157.912 305.325 158.419 303 159C301.975 157.975 300.951 156.984 299.951 156.016C297.049 153.207 294.36 150.604 292.5 148C288 141.5 279 135 266.5 129C262.004 126.925 259.182 124.371 256.381 121.836C255.132 120.706 253.887 119.579 252.5 118.5C249.5 116.5 246.5 114 243.5 111.5C240.25 113 237.125 114.5 234 116C230.875 117.5 227.75 119 224.5 120.5L205 117.5C199.963 118.662 194.925 120.125 189.655 121.656C188.125 122.1 186.575 122.55 185 123L165.5 106.5C162.25 107.75 159.125 109 156 110.25C152.875 111.5 149.75 112.75 146.5 114C145.927 113.809 145.427 113.618 145 113.455C144.309 113.191 143.809 113 143.5 113C141.527 112.014 139.338 111.243 137.359 110.547C136.329 110.185 135.356 109.842 134.5 109.5C129.5 107 121.5 105.5 107.5 105C106.674 105 105.848 104.849 105.106 104.712C104.5 104.601 103.949 104.5 103.5 104.5C101 104 99 103.5 97 103C90 100.5 80 99 68 98C63 97.5 59 97 55 96C49.5 95 43 94.5 34.5 94.5C28 94.5 24 94 21.5 93C19.286 91.6162 16.6124 90.3856 13.9033 89.1387C11.7178 88.1328 9.50924 87.1162 7.5 86C6.5 85 4 85 0.5 85H0L0 180H1440V11Z" fill="#2B2B3A"/>
</svg>
