<svg width="85" height="134" viewBox="0 0 85 134" fill="none" xmlns="http://www.w3.org/2000/svg">
<path d="M79.5352 20H65.5352C62.7737 20 60.5352 22.2386 60.5352 25V85C60.5352 87.7614 62.7737 90 65.5352 90H79.5352C82.2966 90 84.5352 87.7614 84.5352 85V25C84.5352 22.2386 82.2966 20 79.5352 20Z" fill="#DAB865"/>
<path d="M74 0H72C71.4477 0 71 0.447714 71 0.999999V99C71 99.5523 71.4477 100 72 100H74C74.5523 100 75 99.5523 75 99V1C75 0.447715 74.5523 0 74 0Z" fill="#DAB865"/>
<path d="M19 30H5C2.23858 30 0 32.2386 0 35V102C0 104.761 2.23858 107 5 107H19C21.7614 107 24 104.761 24 102V35C24 32.2386 21.7614 30 19 30Z" fill="#DAB865"/>
<path d="M12.5352 38H10.5352C9.98287 38 9.53516 38.4477 9.53516 39V117C9.53516 117.552 9.98287 118 10.5352 118H12.5352C13.0874 118 13.5352 117.552 13.5352 117V39C13.5352 38.4477 13.0874 38 12.5352 38Z" fill="#DAB865"/>
<path d="M50 65H36C33.2386 65 31 67.2386 31 70V118C31 120.761 33.2386 123 36 123H50C52.7614 123 55 120.761 55 118V70C55 67.2386 52.7614 65 50 65Z" fill="#DAB865"/>
<path d="M43.5352 65H41.5352C40.9829 65 40.5352 65.4477 40.5352 66V133C40.5352 133.552 40.9829 134 41.5352 134H43.5352C44.0874 134 44.5352 133.552 44.5352 133V66C44.5352 65.4477 44.0874 65 43.5352 65Z" fill="#DAB865"/>
</svg>
