<svg width="1440" height="502" viewBox="0 0 1440 502" fill="none" xmlns="http://www.w3.org/2000/svg">
<g opacity="0.5" clip-path="url(#clip0)">
<mask id="path-1-inside-1" fill="white">
<path fill-rule="evenodd" clip-rule="evenodd" d="M-3.00136 502C0.49745 502 10.9938 502 11.9935 500.913C16.492 498.194 21.9901 496.02 25.9887 493.301C28.4879 492.214 32.4865 491.67 38.9843 491.67C47.4814 491.67 53.9792 491.127 59.4773 490.039C63.476 488.952 67.4746 488.408 72.4729 487.865C84.4688 486.777 94.4654 485.146 101.463 482.428C103.462 481.884 105.462 481.34 107.961 480.797C108.96 480.797 110.46 480.253 111.959 480.253C125.955 479.709 133.952 478.078 138.95 475.36C141.449 474.273 144.948 473.185 147.947 471.554C148.447 471.554 149.447 471.011 150.946 470.467C157.444 473.185 163.442 475.904 169.94 478.622C176.438 472.642 182.935 466.661 189.433 460.681C196.431 462.855 202.929 465.03 209.426 466.661C215.924 465.574 222.422 464.486 228.92 463.399C235.417 466.661 241.415 469.923 247.913 473.185C250.912 470.467 253.911 467.749 256.91 465.574C261.409 461.768 264.408 457.419 270.905 454.157C283.401 447.633 292.398 440.565 296.897 433.497C299.396 429.691 303.394 417.73 307.393 422.08C313.391 420.449 318.889 419.361 323.887 417.73C326.387 417.187 328.386 417.187 331.885 417.187C336.883 417.73 341.881 417.73 346.88 418.274C353.877 412.837 360.375 407.401 367.373 401.42C372.871 404.139 377.369 406.313 381.868 408.488C383.367 409.575 385.866 410.119 386.366 411.206C390.365 416.099 393.864 420.449 397.363 425.342C399.862 428.604 402.361 431.866 405.36 435.128C412.357 432.953 418.355 431.322 424.853 429.148C431.351 432.41 437.849 435.672 443.847 438.934C455.343 437.846 467.839 436.759 468.838 433.497C469.338 432.953 470.838 431.866 471.837 431.322C476.336 428.06 482.833 424.798 485.333 421.536C491.331 413.381 496.329 405.77 500.328 397.614C502.327 393.265 507.825 389.459 521.32 386.197C522.82 385.654 523.82 385.11 524.319 384.566C526.819 382.392 529.318 379.673 531.817 377.498C535.316 374.236 538.315 370.974 541.813 367.712H543.313C549.311 375.867 555.809 384.023 561.807 392.178C563.306 391.634 564.306 391.09 565.305 391.09C569.804 389.459 574.802 387.828 578.801 386.197C581.8 385.11 584.799 384.566 590.797 385.11C594.296 385.654 598.294 385.654 602.793 385.654C609.29 381.304 615.788 377.499 621.786 373.149C624.285 371.518 625.285 369.887 626.785 368.256C635.282 359.014 642.779 349.771 659.773 341.072C660.773 340.529 661.773 339.985 663.272 339.985C668.77 339.441 674.268 338.898 680.266 338.354C687.264 342.16 694.262 345.422 701.259 349.227C707.757 348.14 713.755 347.053 719.753 346.509C726.251 345.422 733.248 344.878 740.246 344.334C747.244 346.509 753.242 348.14 760.239 350.315C765.237 347.053 769.736 344.334 774.734 341.616C779.732 338.354 779.732 338.354 795.227 338.354C798.726 338.354 800.226 338.354 801.725 337.267C805.224 335.636 809.722 334.548 812.721 332.917C817.22 330.742 824.217 329.655 834.214 329.112C837.713 329.112 840.212 329.111 842.711 329.655C847.709 330.742 853.207 331.83 859.205 333.461C862.204 331.286 864.703 329.112 867.702 326.937C873.7 322.044 878.199 316.607 894.693 312.258C897.692 311.714 900.691 310.627 904.69 310.083C916.186 308.452 922.184 306.277 925.183 303.559C927.682 301.384 931.181 299.209 934.679 297.035C935.679 296.491 936.679 295.947 937.678 295.404C949.674 303.015 960.171 310.627 977.165 318.238C982.163 318.238 987.162 317.694 992.16 317.694C994.159 317.694 997.158 317.694 998.658 318.238C1003.66 319.869 1007.65 321.5 1013.65 323.131C1020.15 324.762 1028.65 326.393 1037.14 328.024C1037.64 327.48 1038.14 327.48 1038.14 326.937C1044.14 320.413 1050.14 313.889 1056.14 307.365C1056.64 306.821 1058.14 306.277 1061.64 306.277C1071.13 305.733 1081.13 305.19 1090.63 305.19C1094.13 305.19 1096.62 305.19 1097.12 304.102C1098.12 303.015 1100.12 301.384 1101.62 300.297C1109.12 294.316 1113.62 288.336 1127.61 282.355C1133.61 280.181 1140.11 278.006 1151.61 276.919C1153.6 276.919 1155.6 276.375 1156.6 275.831C1162.1 272.026 1167.6 268.22 1173.1 264.414C1174.1 263.871 1175.6 263.327 1179.1 263.327C1190.09 263.327 1200.09 262.24 1209.59 261.152C1212.09 260.609 1214.08 260.609 1215.08 260.065C1220.58 257.89 1226.08 255.172 1232.08 252.453C1233.08 252.997 1234.08 253.541 1234.58 254.084C1240.08 257.346 1245.07 260.609 1251.07 263.871C1251.57 264.414 1254.07 264.958 1256.07 264.958C1267.07 265.502 1278.06 265.502 1289.06 264.958C1290.56 264.958 1292.56 264.414 1293.56 263.871C1297.56 261.696 1301.05 260.065 1304.55 257.89C1307.05 256.803 1309.55 255.172 1312.05 254.084C1317.05 254.084 1321.55 254.628 1325.55 254.628C1329.55 255.172 1332.04 254.628 1334.54 254.084C1339.54 252.453 1345.54 250.279 1351.54 248.648C1352.54 249.191 1353.04 249.735 1353.04 249.735C1358.54 254.084 1364.53 258.978 1370.03 263.327C1370.53 263.871 1370.53 263.871 1371.53 264.414C1378.03 264.958 1384.53 265.502 1391.52 266.045C1398.02 260.065 1404.02 254.628 1411.02 249.191C1417.02 252.453 1422.51 255.172 1428.01 257.89C1428.51 258.434 1429.51 258.434 1430.51 258.977C1435.01 259.521 1439.51 260.065 1444.01 261.152L1463 -87.8871V-224.893L1444.01 -551.098L-7 -581L-3.00136 502Z"/>
</mask>
<path fill-rule="evenodd" clip-rule="evenodd" d="M-3.00136 502C0.49745 502 10.9938 502 11.9935 500.913C16.492 498.194 21.9901 496.02 25.9887 493.301C28.4879 492.214 32.4865 491.67 38.9843 491.67C47.4814 491.67 53.9792 491.127 59.4773 490.039C63.476 488.952 67.4746 488.408 72.4729 487.865C84.4688 486.777 94.4654 485.146 101.463 482.428C103.462 481.884 105.462 481.34 107.961 480.797C108.96 480.797 110.46 480.253 111.959 480.253C125.955 479.709 133.952 478.078 138.95 475.36C141.449 474.273 144.948 473.185 147.947 471.554C148.447 471.554 149.447 471.011 150.946 470.467C157.444 473.185 163.442 475.904 169.94 478.622C176.438 472.642 182.935 466.661 189.433 460.681C196.431 462.855 202.929 465.03 209.426 466.661C215.924 465.574 222.422 464.486 228.92 463.399C235.417 466.661 241.415 469.923 247.913 473.185C250.912 470.467 253.911 467.749 256.91 465.574C261.409 461.768 264.408 457.419 270.905 454.157C283.401 447.633 292.398 440.565 296.897 433.497C299.396 429.691 303.394 417.73 307.393 422.08C313.391 420.449 318.889 419.361 323.887 417.73C326.387 417.187 328.386 417.187 331.885 417.187C336.883 417.73 341.881 417.73 346.88 418.274C353.877 412.837 360.375 407.401 367.373 401.42C372.871 404.139 377.369 406.313 381.868 408.488C383.367 409.575 385.866 410.119 386.366 411.206C390.365 416.099 393.864 420.449 397.363 425.342C399.862 428.604 402.361 431.866 405.36 435.128C412.357 432.953 418.355 431.322 424.853 429.148C431.351 432.41 437.849 435.672 443.847 438.934C455.343 437.846 467.839 436.759 468.838 433.497C469.338 432.953 470.838 431.866 471.837 431.322C476.336 428.06 482.833 424.798 485.333 421.536C491.331 413.381 496.329 405.77 500.328 397.614C502.327 393.265 507.825 389.459 521.32 386.197C522.82 385.654 523.82 385.11 524.319 384.566C526.819 382.392 529.318 379.673 531.817 377.498C535.316 374.236 538.315 370.974 541.813 367.712H543.313C549.311 375.867 555.809 384.023 561.807 392.178C563.306 391.634 564.306 391.09 565.305 391.09C569.804 389.459 574.802 387.828 578.801 386.197C581.8 385.11 584.799 384.566 590.797 385.11C594.296 385.654 598.294 385.654 602.793 385.654C609.29 381.304 615.788 377.499 621.786 373.149C624.285 371.518 625.285 369.887 626.785 368.256C635.282 359.014 642.779 349.771 659.773 341.072C660.773 340.529 661.773 339.985 663.272 339.985C668.77 339.441 674.268 338.898 680.266 338.354C687.264 342.16 694.262 345.422 701.259 349.227C707.757 348.14 713.755 347.053 719.753 346.509C726.251 345.422 733.248 344.878 740.246 344.334C747.244 346.509 753.242 348.14 760.239 350.315C765.237 347.053 769.736 344.334 774.734 341.616C779.732 338.354 779.732 338.354 795.227 338.354C798.726 338.354 800.226 338.354 801.725 337.267C805.224 335.636 809.722 334.548 812.721 332.917C817.22 330.742 824.217 329.655 834.214 329.112C837.713 329.112 840.212 329.111 842.711 329.655C847.709 330.742 853.207 331.83 859.205 333.461C862.204 331.286 864.703 329.112 867.702 326.937C873.7 322.044 878.199 316.607 894.693 312.258C897.692 311.714 900.691 310.627 904.69 310.083C916.186 308.452 922.184 306.277 925.183 303.559C927.682 301.384 931.181 299.209 934.679 297.035C935.679 296.491 936.679 295.947 937.678 295.404C949.674 303.015 960.171 310.627 977.165 318.238C982.163 318.238 987.162 317.694 992.16 317.694C994.159 317.694 997.158 317.694 998.658 318.238C1003.66 319.869 1007.65 321.5 1013.65 323.131C1020.15 324.762 1028.65 326.393 1037.14 328.024C1037.64 327.48 1038.14 327.48 1038.14 326.937C1044.14 320.413 1050.14 313.889 1056.14 307.365C1056.64 306.821 1058.14 306.277 1061.64 306.277C1071.13 305.733 1081.13 305.19 1090.63 305.19C1094.13 305.19 1096.62 305.19 1097.12 304.102C1098.12 303.015 1100.12 301.384 1101.62 300.297C1109.12 294.316 1113.62 288.336 1127.61 282.355C1133.61 280.181 1140.11 278.006 1151.61 276.919C1153.6 276.919 1155.6 276.375 1156.6 275.831C1162.1 272.026 1167.6 268.22 1173.1 264.414C1174.1 263.871 1175.6 263.327 1179.1 263.327C1190.09 263.327 1200.09 262.24 1209.59 261.152C1212.09 260.609 1214.08 260.609 1215.08 260.065C1220.58 257.89 1226.08 255.172 1232.08 252.453C1233.08 252.997 1234.08 253.541 1234.58 254.084C1240.08 257.346 1245.07 260.609 1251.07 263.871C1251.57 264.414 1254.07 264.958 1256.07 264.958C1267.07 265.502 1278.06 265.502 1289.06 264.958C1290.56 264.958 1292.56 264.414 1293.56 263.871C1297.56 261.696 1301.05 260.065 1304.55 257.89C1307.05 256.803 1309.55 255.172 1312.05 254.084C1317.05 254.084 1321.55 254.628 1325.55 254.628C1329.55 255.172 1332.04 254.628 1334.54 254.084C1339.54 252.453 1345.54 250.279 1351.54 248.648C1352.54 249.191 1353.04 249.735 1353.04 249.735C1358.54 254.084 1364.53 258.978 1370.03 263.327C1370.53 263.871 1370.53 263.871 1371.53 264.414C1378.03 264.958 1384.53 265.502 1391.52 266.045C1398.02 260.065 1404.02 254.628 1411.02 249.191C1417.02 252.453 1422.51 255.172 1428.01 257.89C1428.51 258.434 1429.51 258.434 1430.51 258.977C1435.01 259.521 1439.51 260.065 1444.01 261.152L1463 -87.8871V-224.893L1444.01 -551.098L-7 -581L-3.00136 502Z" stroke="#DAB865" stroke-width="6" mask="url(#path-1-inside-1)"/>
</g>
<defs>
<clipPath id="clip0">
<rect width="1470" height="502" fill="white" transform="translate(-11)"/>
</clipPath>
</defs>
</svg>
