<svg width="39" height="56" viewBox="0 0 39 56" fill="none" xmlns="http://www.w3.org/2000/svg">
<path d="M33.2211 9.91797H32.4375C29.6761 9.91797 27.4375 12.1565 27.4375 14.918V36.37C27.4375 39.1315 29.6761 41.37 32.4375 41.37H33.2211C35.9825 41.37 38.2211 39.1315 38.2211 36.37V14.918C38.2211 12.1565 35.9825 9.91797 33.2211 9.91797Z" fill="#DAB865"/>
<path d="M33.9359 44.965V1.83076C33.9359 1.33446 33.5336 0.932129 33.0373 0.932129C32.541 0.932129 32.1387 1.33446 32.1387 1.83076V44.965C32.1387 45.4613 32.541 45.8637 33.0373 45.8637C33.5336 45.8637 33.9359 45.4613 33.9359 44.965Z" fill="#DAB865"/>
<path d="M6.02185 16.2085H5.23828C2.47686 16.2085 0.238281 18.4471 0.238281 21.2085V45.8058C0.238281 48.5672 2.47686 50.8058 5.23828 50.8058H6.02185C8.78327 50.8058 11.0218 48.5672 11.0218 45.8058V21.2085C11.0218 18.4471 8.78327 16.2085 6.02185 16.2085Z" fill="#DAB865"/>
<path d="M6.52773 54.85V10.8171C6.52773 10.3208 6.1254 9.91846 5.6291 9.91846C5.1328 9.91846 4.73047 10.3208 4.73047 10.8171V54.85C4.73047 55.3463 5.1328 55.7486 5.6291 55.7486C6.1254 55.7486 6.52773 55.3463 6.52773 54.85Z" fill="#DAB865"/>
<path d="M19.9496 5.87451H19.166C16.4046 5.87451 14.166 8.11309 14.166 10.8745V26.9348C14.166 29.6962 16.4046 31.9348 19.166 31.9348H19.9496C22.711 31.9348 24.9496 29.6962 24.9496 26.9348V10.8745C24.9496 8.11309 22.711 5.87451 19.9496 5.87451Z" fill="#DAB865"/>
<path d="M20.4555 35.9787V1.83076C20.4555 1.33446 20.0531 0.932129 19.5568 0.932129C19.0605 0.932129 18.6582 1.33446 18.6582 1.83076V35.9787C18.6582 36.475 19.0605 36.8774 19.5568 36.8774C20.0531 36.8774 20.4555 36.475 20.4555 35.9787Z" fill="#DAB865"/>
</svg>
