<svg width="186" height="150" viewBox="0 0 186 150" fill="none" xmlns="http://www.w3.org/2000/svg">
<path d="M19 32H5C2.23858 32 0 34.2386 0 37V97C0 99.7614 2.23858 102 5 102H19C21.7614 102 24 99.7614 24 97V37C24 34.2386 21.7614 32 19 32Z" fill="#DAB865"/>
<path d="M13 61H11C10.4477 61 10 61.4477 10 62V119C10 119.552 10.4477 120 11 120H13C13.5523 120 14 119.552 14 119V62C14 61.4477 13.5523 61 13 61Z" fill="#DAB865"/>
<path d="M59 44H46C43.2386 44 41 46.2386 41 49V112C41 114.761 43.2386 117 46 117H59C61.7614 117 64 114.761 64 112V49C64 46.2386 61.7614 44 59 44Z" fill="#DAB865"/>
<path d="M53.5352 59H51.5352C50.9829 59 50.5352 59.4477 50.5352 60V127C50.5352 127.552 50.9829 128 51.5352 128H53.5352C54.0874 128 54.5352 127.552 54.5352 127V60C54.5352 59.4477 54.0874 59 53.5352 59Z" fill="#DAB865"/>
<path d="M180.535 20H166.535C163.774 20 161.535 22.2386 161.535 25V85C161.535 87.7614 163.774 90 166.535 90H180.535C183.297 90 185.535 87.7614 185.535 85V25C185.535 22.2386 183.297 20 180.535 20Z" fill="#DAB865"/>
<path d="M175 0H173C172.448 0 172 0.447714 172 0.999999V99C172 99.5523 172.448 100 173 100H175C175.552 100 176 99.5523 176 99V1C176 0.447715 175.552 0 175 0Z" fill="#DAB865"/>
<path d="M100 62H86C83.2386 62 81 64.2386 81 67V134C81 136.761 83.2386 139 86 139H100C102.761 139 105 136.761 105 134V67C105 64.2386 102.761 62 100 62Z" fill="#DAB865"/>
<path d="M93.5352 70H91.5352C90.9829 70 90.5352 70.4477 90.5352 71V149C90.5352 149.552 90.9829 150 91.5352 150H93.5352C94.0874 150 94.5352 149.552 94.5352 149V71C94.5352 70.4477 94.0874 70 93.5352 70Z" fill="#DAB865"/>
<path d="M141 39H127C124.239 39 122 41.2386 122 44V92C122 94.7614 124.239 97 127 97H141C143.761 97 146 94.7614 146 92V44C146 41.2386 143.761 39 141 39Z" fill="#DAB865"/>
<path d="M134.535 39H132.535C131.983 39 131.535 39.4477 131.535 40V107C131.535 107.552 131.983 108 132.535 108H134.535C135.087 108 135.535 107.552 135.535 107V40C135.535 39.4477 135.087 39 134.535 39Z" fill="#DAB865"/>
</svg>
