<svg width="85" height="119" viewBox="0 0 85 119" fill="none" xmlns="http://www.w3.org/2000/svg">
<path d="M80 74H66C63.2386 74 61 71.7614 61 69V21C61 18.2386 63.2386 16 66 16H80C82.7614 16 85 18.2386 85 21V69C85 71.7614 82.7614 74 80 74Z" fill="#DAB865"/>
<path d="M74 92H72C71.4477 92 71 91.5523 71 91V7C71 6.44772 71.4477 6 72 6H74C74.5523 6 75 6.44772 75 7V91C75 91.5523 74.5523 92 74 92Z" fill="#DAB865"/>
<path d="M19 108H5C2.23858 108 0 105.761 0 103V16C0 13.2386 2.23858 11 5 11H19C21.7614 11 24 13.2386 24 16V103C24 105.761 21.7614 108 19 108Z" fill="#DAB865"/>
<path d="M13 119H11C10.4477 119 10 118.552 10 118V1C10 0.447708 10.4477 0 11 0H13C13.5523 0 14 0.447708 14 1V118C14 118.552 13.5523 119 13 119Z" fill="#DAB865"/>
<path d="M50 80H36C33.2386 80 31 77.7614 31 75V42C31 39.2386 33.2386 37 36 37H50C52.7614 37 55 39.2386 55 42V75C55 77.7614 52.7614 80 50 80Z" fill="#DAB865"/>
<path d="M44 95H42C41.4477 95 41 94.5523 41 94V27C41 26.4477 41.4477 26 42 26H44C44.5523 26 45 26.4477 45 27V94C45 94.5523 44.5523 95 44 95Z" fill="#DAB865"/>
</svg>
