<svg width="85" height="122" viewBox="0 0 85 122" fill="none" xmlns="http://www.w3.org/2000/svg">
<path d="M79.5352 20H65.5352C62.7737 20 60.5352 22.2386 60.5352 25V85C60.5352 87.7614 62.7737 90 65.5352 90H79.5352C82.2966 90 84.5352 87.7614 84.5352 85V25C84.5352 22.2386 82.2966 20 79.5352 20Z" fill="#DAB865"/>
<path d="M74 0H72C71.4477 0 71 0.447714 71 0.999999V99C71 99.5523 71.4477 100 72 100H74C74.5523 100 75 99.5523 75 99V1C75 0.447715 74.5523 0 74 0Z" fill="#DAB865"/>
<path d="M19 34H5C2.23858 34 0 36.2386 0 39V106C0 108.761 2.23858 111 5 111H19C21.7614 111 24 108.761 24 106V39C24 36.2386 21.7614 34 19 34Z" fill="#DAB865"/>
<path d="M13 20H11C10.4477 20 10 20.4477 10 21V121C10 121.552 10.4477 122 11 122H13C13.5523 122 14 121.552 14 121V21C14 20.4477 13.5523 20 13 20Z" fill="#DAB865"/>
<path d="M50 11H36C33.2386 11 31 13.2386 31 16V64C31 66.7614 33.2386 69 36 69H50C52.7614 69 55 66.7614 55 64V16C55 13.2386 52.7614 11 50 11Z" fill="#DAB865"/>
<path d="M44 0H42C41.4477 0 41 0.447714 41 0.999999V79C41 79.5523 41.4477 80 42 80H44C44.5523 80 45 79.5523 45 79V1C45 0.447715 44.5523 0 44 0Z" fill="#DAB865"/>
</svg>
