<svg width="85" height="127" viewBox="0 0 85 127" fill="none" xmlns="http://www.w3.org/2000/svg">
<path d="M80 107H66C63.2386 107 61 104.761 61 102V25C61 22.2386 63.2386 20 66 20H80C82.7614 20 85 22.2386 85 25V102C85 104.761 82.7614 107 80 107Z" fill="#DAB865"/>
<path d="M74 127H72C71.4477 127 71 126.552 71 126V1C71 0.447716 71.4477 0 72 0H74C74.5523 0 75 0.447716 75 1V126C75 126.552 74.5523 127 74 127Z" fill="#DAB865"/>
<path d="M19 97H5C2.23858 97 0 94.7614 0 92V36C0 33.2386 2.23858 31 5 31H19C21.7614 31 24 33.2386 24 36V92C24 94.7614 21.7614 97 19 97Z" fill="#DAB865"/>
<path d="M13 89H11C10.4477 89 10 88.5523 10 88V21C10 20.4477 10.4477 20 11 20H13C13.5523 20 14 20.4477 14 21V88C14 88.5523 13.5523 89 13 89Z" fill="#DAB865"/>
<path d="M50 62H36C33.2386 62 31 59.7614 31 57V40C31 37.2386 33.2386 35 36 35H50C52.7614 35 55 37.2386 55 40V57C55 59.7614 52.7614 62 50 62Z" fill="#DAB865"/>
<path d="M44 62H42C41.4477 62 41 61.5523 41 61V23C41 22.4477 41.4477 22 42 22H44C44.5523 22 45 22.4477 45 23V61C45 61.5523 44.5523 62 44 62Z" fill="#DAB865"/>
</svg>
