<svg width="186" height="128" viewBox="0 0 186 128" fill="none" xmlns="http://www.w3.org/2000/svg">
<path d="M19 71H5C2.23858 71 0 73.2386 0 76V114C0 116.761 2.23858 119 5 119H19C21.7614 119 24 116.761 24 114V76C24 73.2386 21.7614 71 19 71Z" fill="#DAB865"/>
<path d="M13 65H11C10.4477 65 10 65.4477 10 66V123C10 123.552 10.4477 124 11 124H13C13.5523 124 14 123.552 14 123V66C14 65.4477 13.5523 65 13 65Z" fill="#DAB865"/>
<path d="M59.2485 73.2896H45.5322C42.7708 73.2896 40.5322 75.5281 40.5322 78.2896V111.886C40.5322 114.647 42.7708 116.886 45.5322 116.886H59.2486C62.01 116.886 64.2486 114.647 64.2486 111.886V78.2896C64.2486 75.5281 62.01 73.2896 59.2485 73.2896Z" fill="#DAB865"/>
<path d="M53.5352 59H51.5352C50.9829 59 50.5352 59.4477 50.5352 60V127C50.5352 127.552 50.9829 128 51.5352 128H53.5352C54.0874 128 54.5352 127.552 54.5352 127V60C54.5352 59.4477 54.0874 59 53.5352 59Z" fill="#DAB865"/>
<path d="M180.535 20H166.535C163.774 20 161.535 22.2386 161.535 25V85C161.535 87.7614 163.774 90 166.535 90H180.535C183.297 90 185.535 87.7614 185.535 85V25C185.535 22.2386 183.297 20 180.535 20Z" fill="#DAB865"/>
<path d="M174.535 0H172.535C171.983 0 171.535 0.447715 171.535 1V104C171.535 104.552 171.983 105 172.535 105H174.535C175.087 105 175.535 104.552 175.535 104V1C175.535 0.447715 175.087 0 174.535 0Z" fill="#DAB865"/>
<path d="M99.5352 47H85.5352C82.7737 47 80.5352 49.2386 80.5352 52V94C80.5352 96.7614 82.7737 99 85.5352 99H99.5352C102.297 99 104.535 96.7614 104.535 94V52C104.535 49.2386 102.297 47 99.5352 47Z" fill="#DAB865"/>
<path d="M93.5352 30H91.5352C90.9829 30 90.5352 30.4477 90.5352 31V109C90.5352 109.552 90.9829 110 91.5352 110H93.5352C94.0874 110 94.5352 109.552 94.5352 109V31C94.5352 30.4477 94.0874 30 93.5352 30Z" fill="#DAB865"/>
<path d="M140.535 59H126.535C123.774 59 121.535 61.2386 121.535 64V94C121.535 96.7614 123.774 99 126.535 99H140.535C143.297 99 145.535 96.7614 145.535 94V64C145.535 61.2386 143.297 59 140.535 59Z" fill="#DAB865"/>
<path d="M134.535 41H132.535C131.983 41 131.535 41.4477 131.535 42V109C131.535 109.552 131.983 110 132.535 110H134.535C135.087 110 135.535 109.552 135.535 109V42C135.535 41.4477 135.087 41 134.535 41Z" fill="#DAB865"/>
</svg>
