<svg width="39" height="61" viewBox="0 0 39 61" fill="none" xmlns="http://www.w3.org/2000/svg">
<path d="M33.348 9.38086H32.5645C29.803 9.38086 27.5645 11.6194 27.5645 14.3809V35.8329C27.5645 38.5944 29.803 40.8329 32.5645 40.8329H33.348C36.1094 40.8329 38.348 38.5944 38.348 35.8329V14.3809C38.348 11.6194 36.1094 9.38086 33.348 9.38086Z" fill="#DAB865"/>
<path d="M34.0629 44.4274V1.29316C34.0629 0.796862 33.6606 0.394531 33.1643 0.394531C32.668 0.394531 32.2656 0.796864 32.2656 1.29316V44.4274C32.2656 44.9237 32.668 45.3261 33.1643 45.3261C33.6606 45.3261 34.0629 44.9237 34.0629 44.4274Z" fill="#DAB865"/>
<path d="M6.1488 13.874H5.36523C2.60381 13.874 0.365234 16.1126 0.365234 18.874V43.4713C0.365234 46.2327 2.60381 48.4713 5.36523 48.4713H6.1488C8.91023 48.4713 11.1488 46.2327 11.1488 43.4713V18.874C11.1488 16.1126 8.91023 13.874 6.1488 13.874Z" fill="#DAB865"/>
<path d="M6.44765 52.5153V18.3674C6.44765 17.8711 6.04532 17.4688 5.54902 17.4688C5.05272 17.4688 4.65039 17.8711 4.65039 18.3674V52.5153C4.65039 53.0117 5.05272 53.414 5.54902 53.414C6.04532 53.414 6.44765 53.0116 6.44765 52.5153Z" fill="#DAB865"/>
<path d="M20.0785 29.5996H19.2949C16.5335 29.5996 14.2949 31.8382 14.2949 34.5996V50.6599C14.2949 53.4213 16.5335 55.6599 19.2949 55.6599H20.0785C22.8399 55.6599 25.0785 53.4213 25.0785 50.6599V34.5996C25.0785 31.8382 22.8399 29.5996 20.0785 29.5996Z" fill="#DAB865"/>
<path d="M20.3754 59.7037V30.4982C20.3754 30.0019 19.9731 29.5996 19.4768 29.5996C18.9805 29.5996 18.5781 30.0019 18.5781 30.4982V59.7037C18.5781 60.2 18.9805 60.6024 19.4768 60.6024C19.9731 60.6024 20.3754 60.2 20.3754 59.7037Z" fill="#DAB865"/>
</svg>
