<svg width="20" height="18" viewBox="0 0 20 18" fill="none" xmlns="http://www.w3.org/2000/svg">
<path d="M18.4259 8.73984C18.1404 8.73984 17.9119 8.96829 17.9119 9.25385V13.9294C17.9119 15.201 16.8763 16.2329 15.6085 16.2329H4.33137C3.05974 16.2329 2.02796 15.1972 2.02796 13.9294V9.1777C2.02796 8.89214 1.79953 8.6637 1.51398 8.6637C1.22844 8.6637 1 8.89214 1 9.1777V13.9294C1 15.7684 2.49626 17.2609 4.33137 17.2609H15.6085C17.4474 17.2609 18.9399 15.7645 18.9399 13.9294V9.25385C18.9399 8.9721 18.7114 8.73984 18.4259 8.73984Z" fill="#DAB865" stroke="#DAB865"/>
<path d="M9.60831 13.179C9.7073 13.278 9.84056 13.3313 9.97 13.3313C10.0995 13.3313 10.2327 13.2818 10.3317 13.179L13.5983 9.91236C13.8001 9.71058 13.8001 9.38696 13.5983 9.18517C13.3966 8.98339 13.0729 8.98339 12.8711 9.18517L10.484 11.5761V1.14802C10.484 0.86247 10.2555 0.634033 9.97 0.634033C9.68446 0.634033 9.45602 0.86247 9.45602 1.14802V11.5761L7.06505 9.18517C6.86327 8.98339 6.53965 8.98339 6.33786 9.18517C6.13608 9.38696 6.13608 9.71058 6.33786 9.91236L9.60831 13.179Z" fill="#DAB865" stroke="#DAB865"/>
</svg>
