<svg width="748" height="896" viewBox="0 0 748 896" fill="none" xmlns="http://www.w3.org/2000/svg">
<g opacity="0.03">
<path d="M336.003 62.9956V93.931L384.079 59.0584L431.595 0L368.426 25.8732L336.003 62.9956Z" fill="#DAB865"/>
<path fill-rule="evenodd" clip-rule="evenodd" d="M97.3029 251.418L159.913 246.356L182.274 237.919L206.311 235.107L168.857 257.042L90.0356 269.417L55.3765 227.232L59.8486 168.736L12.8911 137.801L66.5568 135.551L34.1338 120.927H95.0668L57.0535 111.928L110.719 100.116L129.167 105.178L148.48 113.286L207.429 136.677L112.955 84.3681L176.124 87.1805L258.3 129.365L236.498 106.304L185.627 84.9306C185.627 84.9306 261.654 96.1798 262.213 96.1798L307.493 30.9344L382.961 1.12392L330.413 62.9946L330.972 102.929L384.079 64.682L448.925 38.8088L408.117 64.1196L398.613 77.0562L439.981 61.3073L421.533 78.7435C421.533 78.7435 456.192 69.1817 456.751 68.6192C457.31 68.0568 538.368 60.1823 538.368 60.1823L470.727 87.1805L500.914 92.2426L553.461 84.3681L499.796 113.054L536.132 102.929L597.065 111.929L558.492 120.928H619.426L587.003 135.552L640.668 137.802L593.711 168.737L597.624 228.358L562.965 270.543L484.143 257.606L439.422 227.796L470.727 238.482L493.087 246.919L555.697 251.982L574.704 218.796L564.642 169.862L524.951 149.051L466.255 159.738L440.54 179.424L426.005 211.484L337.68 262.668L300.226 227.233L263.331 219.359L214.696 160.3L213.583 159.592L128.049 148.488L88.3585 169.299L78.2962 218.233L97.3029 251.418ZM300.226 71.4315L318.115 42.746L344.388 30.9344L322.028 60.1823L323.705 132.74L300.226 71.4315Z" fill="#DAB865"/>
<path fill-rule="evenodd" clip-rule="evenodd" d="M723.962 390.347L748 409.471C748 409.471 700.483 309.915 699.924 309.353C699.365 308.79 617.749 290.792 617.749 290.792L631.165 245.795C631.165 245.795 627.811 225.546 627.811 224.421C627.811 222.171 609.363 191.799 609.363 191.799L611.6 236.795L577.499 284.605L543.958 278.98L486.938 266.043L450.602 247.482L482.466 273.918L548.43 302.603L621.103 385.285L692.657 470.779L732.347 574.272L731.788 457.28L675.887 384.723L723.962 390.347ZM602.096 336.351L568.555 305.978L599.301 313.29L690.421 326.789C690.421 326.789 715.577 366.161 716.136 366.724L668.06 348.163L602.096 336.351Z" fill="#DAB865"/>
<path d="M135.874 523.09L125.812 645.144L163.266 758.199L85.0036 633.333L97.861 461.219L135.874 523.09Z" fill="#DAB865"/>
<path d="M218.05 714.325C218.076 714.286 218.094 714.208 218.106 714.093L218.05 714.325Z" fill="#DAB865"/>
<path d="M457.84 712.813C458.587 702.038 469.609 638.393 469.609 638.393L433.273 582.147C433.273 582.147 361.718 604.645 359.482 605.77C357.444 606.796 340.998 667.208 338.112 677.858C336.43 671.637 318.568 605.717 316.437 604.645C315.878 604.645 296.313 598.458 296.313 598.458L301.903 653.017L285.132 595.083L261.653 587.771L263.89 627.706L251.591 584.959L242.647 582.147L206.311 638.393C206.311 638.393 218.58 709.24 218.106 714.093L225.317 683.952L228.671 721.637L271.716 770.009L276.747 731.199L285.132 785.195L337.681 893.722V896L338.232 894.861L338.239 894.875V894.847L390.787 786.32L403.645 710.95L404.763 771.134L447.807 722.762L456.752 656.392L457.84 712.813Z" fill="#DAB865"/>
<path d="M457.84 712.813C457.781 713.676 457.787 714.2 457.87 714.325L457.84 712.813Z" fill="#DAB865"/>
<path d="M540.045 532.089L548.43 642.894L499.796 770.572L598.183 636.144L532.778 466.281L540.045 532.089Z" fill="#DAB865"/>
<path d="M65.4382 664.266L73.8234 571.46L84.4448 518.589L33.0151 667.641L38.6053 711.513L81.0907 797.569L65.4382 664.266Z" fill="#DAB865"/>
<path d="M527.746 518.028V510.716L527.187 496.092L524.951 444.345L501.472 417.91L449.484 397.661V407.223C449.484 407.785 485.261 452.22 485.261 452.22C485.261 452.22 480.23 478.093 480.23 478.655C480.23 479.218 437.744 525.902 437.744 525.902L352.214 482.03V452.22L408.116 411.722L401.408 399.911L391.905 385.287L398.054 401.036L382.401 404.973L338.239 385.287L338.239 384.724L293.517 404.972L277.865 401.035L287.368 367.287L274.511 399.91L267.803 411.722L323.704 452.219V482.029L238.734 525.339C238.734 525.339 196.807 478.655 196.248 478.092C196.248 477.53 191.217 451.657 191.217 451.657C191.217 451.657 226.994 407.222 226.994 406.66V396.535L168.856 419.034L141.464 401.035L150.968 348.164L147.614 296.417L158.235 275.606L146.496 278.981L134.197 295.855L128.607 354.913L112.152 404.582L111.837 404.409L87.7993 424.095L23.5122 624.331L97.3026 442.656L105.879 432.589L148.732 511.277L144.26 638.956L197.366 779.009L282.337 834.692L218.05 764.947L190.099 632.206L240.411 537.151L338.239 503.965L338.239 504.529L435.508 538.276L486.379 627.707L457.869 763.823L394.141 834.693L479.112 779.01L532.218 638.957L527.746 518.028Z" fill="#DAB865"/>
<path d="M214.696 79.8701L257.182 85.4947L272.275 71.4332H235.939L214.696 79.8701Z" fill="#DAB865"/>
<path d="M608.246 723.888L621.662 624.895L551.226 416.222C551.226 416.222 527.188 397.098 527.188 394.849C527.188 392.599 544.518 356.039 544.518 356.039L532.219 308.792L557.375 355.476L554.021 390.911L573.587 402.161L638.992 617.021L608.246 723.888Z" fill="#DAB865"/>
<path d="M271.716 303.728L282.897 352.099L265.567 317.227L259.977 314.977C259.977 314.977 244.883 318.352 230.349 312.164C215.814 305.415 212.46 288.541 212.46 288.541L204.634 282.916L230.349 273.355L258.859 282.354L271.716 303.728Z" fill="#DAB865"/>
<path d="M388.551 349.29L395.818 304.293L408.676 282.92L437.185 273.92L462.9 283.482L455.074 289.107C455.074 289.107 451.72 305.981 437.185 312.73C422.651 318.917 407.557 315.542 407.557 315.542L400.29 316.667L388.551 349.29Z" fill="#DAB865"/>
<path d="M678.122 701.949L705.514 581.02L707.75 558.522L732.347 620.955L678.122 701.949Z" fill="#DAB865"/>
<path d="M625.015 531.525L649.053 617.019L640.109 758.197L680.917 611.957L650.73 523.088L604.891 442.656L568.554 365.599L625.015 531.525Z" fill="#DAB865"/>
<path d="M678.123 484.842L552.903 318.353L608.246 428.595L662.47 511.84L690.98 596.209L697.129 542.775L678.123 484.842Z" fill="#DAB865"/>
<path d="M508.181 411.158L520.48 404.409L544.518 424.095L608.805 624.331L535.014 442.656L508.181 411.158Z" fill="#DAB865"/>
<path d="M588.12 759.885L603.773 654.142L502.032 803.757L588.12 759.885Z" fill="#DAB865"/>
<path d="M-47.4839 581.02L-20.092 701.949L-74.3168 620.955L-49.161 558.522L-47.4839 581.02Z" fill="#DAB865"/>
<path d="M8.97749 617.019L33.0153 531.525L90.0351 365.599L53.1399 442.656L7.30042 523.088L-22.8866 611.957L18.4808 758.197L8.97749 617.019Z" fill="#DAB865"/>
<path d="M105.687 318.353L-20.0917 484.842L-39.0984 542.775L-32.9492 596.209L-3.8802 511.84L49.7856 428.595L105.687 318.353Z" fill="#DAB865"/>
<path d="M79.4139 667.64L95.0664 772.821L181.155 816.693L79.4139 667.64Z" fill="#DAB865"/>
<path fill-rule="evenodd" clip-rule="evenodd" d="M104.57 284.603L142.024 271.667L141.465 276.729L124.694 296.415L102.333 306.539L31.3381 390.346L-38.5391 476.965L-76.5524 581.583L-77.6704 464.591L-23.4457 390.346L-71.5212 397.096L-95 416.782C-95 416.782 -49.1605 317.226 -48.6015 316.101C-48.0425 314.976 33.5742 296.415 33.5742 296.415L19.5988 251.418C19.5988 251.418 22.9529 230.607 22.9529 230.045C22.9529 228.357 40.8414 197.422 40.8414 197.422L39.1644 242.419L74.3826 289.666L104.57 284.603ZM53.7687 339.25L54.2579 339.162L88.358 308.789L57.612 316.101L-33.508 329.6C-33.508 329.6 -34.3273 330.837 -35.6734 332.875L54.2578 318.352L84.4448 310.478L53.7687 339.25ZM-59.1761 369.383C-58.8132 368.523 -56.3744 364.624 -53.1329 359.579C-55.5101 363.384 -57.6576 366.857 -59.1761 369.383Z" fill="#DAB865"/>
</g>
</svg>
