<svg width="207" height="220" viewBox="0 0 207 220" fill="none" xmlns="http://www.w3.org/2000/svg">
<path d="M105.834 15.4677V23.0634L117.639 14.5009L129.306 0L113.795 6.3528L105.834 15.4677Z" fill="#E9E9EB"/>
<path fill-rule="evenodd" clip-rule="evenodd" d="M47.2203 61.7321L62.5943 60.4891L68.085 58.4176L73.9875 57.727L64.7906 63.1131L45.4358 66.1514L36.9252 55.7936L38.0233 41.4307L26.4928 33.835L39.6705 33.2826L31.709 29.6919H46.6712L37.337 27.4822L50.5147 24.582L55.0445 25.825L59.787 27.8159L74.2619 33.5591L51.0636 20.7154L66.5749 21.4059L86.7533 31.7637L81.3998 26.1015L68.9085 20.8535C68.9085 20.8535 87.5769 23.6156 87.7142 23.6156L98.8329 7.59549L117.364 0.275963L104.461 15.4674L104.598 25.2728L117.639 15.8817L133.562 9.52895L123.541 15.7436L121.208 18.92L131.365 15.0531L126.836 19.3344C126.836 19.3344 135.346 16.9866 135.483 16.8485C135.621 16.7104 155.525 14.7769 155.525 14.7769L138.915 21.4059L146.328 22.6489L159.231 20.7154L146.053 27.7587L154.975 25.2728L169.938 27.4825L160.466 29.6922H175.428L167.467 33.2829L180.645 33.8353L169.114 41.431L170.075 56.0701L161.564 66.4279L142.209 63.2515L131.228 55.932L138.915 58.556L144.406 60.6275L159.78 61.8705L164.447 53.7223L161.976 41.7072L152.23 36.5974L137.817 39.2214L131.503 44.055L127.934 51.927L106.245 64.4944L97.0484 55.7939L87.9887 53.8604L76.0464 39.3595L75.773 39.1856L54.77 36.459L45.024 41.5688L42.5532 53.5839L47.2203 61.7321ZM97.0484 17.539L101.441 10.4957L107.893 7.59549L102.402 14.7769L102.814 32.5924L97.0484 17.539Z" fill="#E9E9EB"/>
<path fill-rule="evenodd" clip-rule="evenodd" d="M201.097 95.8442L207 100.54C207 100.54 195.332 76.0953 195.195 75.9572C195.058 75.8191 175.017 71.3998 175.017 71.3998L178.311 60.3514C178.311 60.3514 177.487 55.3797 177.487 55.1035C177.487 54.551 172.958 47.0934 172.958 47.0934L173.507 58.1417L165.133 69.8806L156.897 68.4996L142.896 65.3232L133.974 60.7657L141.798 67.2566L157.995 74.2999L175.84 94.6013L193.41 115.593L203.156 141.004L203.019 112.279L189.292 94.4632L201.097 95.8442ZM171.173 82.5862L162.937 75.1286L170.487 76.9239L192.861 80.2384C192.861 80.2384 199.038 89.9057 199.176 90.0438L187.371 85.4864L171.173 82.5862Z" fill="#E9E9EB"/>
<path d="M56.6915 128.437L54.2207 158.406L63.4177 186.165L44.2002 155.506L47.3573 113.246L56.6915 128.437Z" fill="#E9E9EB"/>
<path d="M76.8699 175.392C76.8763 175.383 76.8808 175.364 76.8836 175.335L76.8699 175.392Z" fill="#E9E9EB"/>
<path d="M135.751 175.021C135.934 172.375 138.641 156.748 138.641 156.748L129.718 142.938C129.718 142.938 112.148 148.462 111.599 148.738C111.098 148.99 107.06 163.823 106.351 166.438C105.938 164.911 101.552 148.725 101.029 148.462C100.892 148.462 96.0874 146.943 96.0874 146.943L97.4601 160.339L93.3421 146.114L87.5768 144.319L88.1259 154.124L85.106 143.628L82.9097 142.938L73.9873 156.748C73.9873 156.748 77 174.144 76.8836 175.335L78.6544 167.935L79.478 177.188L90.0476 189.065L91.2831 179.535L93.3421 192.793L106.245 219.441V220L106.381 219.72L106.383 219.724V219.717L119.286 193.07L122.443 174.564L122.718 189.341L133.287 177.464L135.483 161.168L135.751 175.021Z" fill="#E9E9EB"/>
<path d="M135.751 175.021C135.736 175.233 135.738 175.362 135.758 175.392L135.751 175.021Z" fill="#E9E9EB"/>
<path d="M155.936 130.647L157.995 157.853L146.053 189.203L170.212 156.196L154.152 114.489L155.936 130.647Z" fill="#E9E9EB"/>
<path d="M39.3958 163.101L41.4549 140.314L44.0629 127.332L31.4343 163.93L32.807 174.702L43.2393 195.832L39.3958 163.101Z" fill="#E9E9EB"/>
<path d="M152.916 127.194V125.399L152.779 121.808L152.23 109.103L146.465 102.612L133.699 97.64V99.9877C133.699 100.126 142.484 111.036 142.484 111.036C142.484 111.036 141.249 117.389 141.249 117.527C141.249 117.665 130.816 129.128 130.816 129.128L109.814 118.356V111.036L123.541 101.093L121.894 98.1924L119.56 94.6017L121.07 98.4686L117.227 99.4353L106.382 94.6017L106.382 94.4634L95.4011 99.4352L91.5576 98.4684L93.8911 90.1822L90.734 98.1922L89.0867 101.092L102.814 111.036V118.355L81.9488 128.989C81.9488 128.989 71.6537 117.527 71.5165 117.389C71.5165 117.251 70.2811 110.898 70.2811 110.898C70.2811 110.898 79.0662 99.9876 79.0662 99.8495V97.3636L64.7903 102.888L58.0642 98.4684L60.3978 85.4866L59.5742 72.781L62.1823 67.6712L59.2996 68.4998L56.2797 72.6429L54.9071 87.1439L50.8666 99.3392L50.7892 99.2967L44.8867 104.13L29.1009 153.296L47.2202 108.688L49.3261 106.216L59.8487 125.537L58.7506 156.887L71.791 191.274L92.6557 204.947L76.8699 187.822L70.0065 155.229L82.3606 131.89L106.382 123.741L106.382 123.88L130.267 132.166L142.758 154.125L135.758 187.546L120.109 204.947L140.974 191.275L154.014 156.887L152.916 127.194Z" fill="#E9E9EB"/>
<path d="M76.0464 19.611L86.4787 20.992L90.185 17.5394H81.2626L76.0464 19.611Z" fill="#E9E9EB"/>
<path d="M172.683 177.74L175.978 153.434L158.682 102.197C158.682 102.197 152.779 97.5019 152.779 96.9494C152.779 96.397 157.035 87.4202 157.035 87.4202L154.015 75.8195L160.192 87.2822L159.368 95.9827L164.172 98.7448L180.233 151.501L172.683 177.74Z" fill="#E9E9EB"/>
<path d="M90.0478 74.576L92.7931 86.4529L88.5378 77.8905L87.1651 77.338C87.1651 77.338 83.4589 78.1667 79.89 76.6475C76.321 74.9903 75.4974 70.8471 75.4974 70.8471L73.5756 69.4661L79.89 67.1183L86.8906 69.328L90.0478 74.576Z" fill="#E9E9EB"/>
<path d="M118.737 85.7632L120.521 74.7149L123.678 69.4669L130.679 67.2572L136.993 69.605L135.072 70.986C135.072 70.986 134.248 75.1292 130.679 76.7864C127.11 78.3056 123.404 77.4769 123.404 77.4769L121.619 77.7532L118.737 85.7632Z" fill="#E9E9EB"/>
<path d="M189.841 172.354L196.568 142.661L197.117 137.137L203.156 152.467L189.841 172.354Z" fill="#E9E9EB"/>
<path d="M176.801 130.508L182.703 151.5L180.507 186.164L190.528 150.257L183.115 128.437L171.859 108.688L162.937 89.7677L176.801 130.508Z" fill="#E9E9EB"/>
<path d="M189.842 119.046L159.094 78.167L172.683 105.235L185.998 125.675L192.999 146.391L194.509 133.271L189.842 119.046Z" fill="#E9E9EB"/>
<path d="M148.112 100.954L151.132 99.2967L157.035 104.13L172.82 153.296L154.701 108.688L148.112 100.954Z" fill="#E9E9EB"/>
<path d="M167.741 186.579L171.585 160.615L146.602 197.351L167.741 186.579Z" fill="#E9E9EB"/>
<path d="M11.6676 142.661L18.3938 172.354L5.07879 152.467L11.2558 137.137L11.6676 142.661Z" fill="#E9E9EB"/>
<path d="M25.5318 151.5L31.4344 130.508L45.4357 89.7677L36.376 108.688L25.12 128.437L17.7076 150.257L27.8654 186.164L25.5318 151.5Z" fill="#E9E9EB"/>
<path d="M49.2791 78.167L18.3938 119.046L13.7267 133.271L15.2367 146.391L22.3746 125.675L35.5523 105.235L49.2791 78.167Z" fill="#E9E9EB"/>
<path d="M42.8276 163.93L46.6711 189.755L67.8103 200.527L42.8276 163.93Z" fill="#E9E9EB"/>
<path fill-rule="evenodd" clip-rule="evenodd" d="M49.0046 69.8803L58.2016 66.7039L58.0643 67.9468L53.9463 72.7805L48.4555 75.2664L31.0225 95.8439L13.8641 117.112L4.52984 142.799L4.2553 114.074L17.5703 95.8439L5.76525 97.5011L0 102.335C0 102.335 11.256 77.8903 11.3932 77.6141C11.5305 77.3379 31.5716 72.7805 31.5716 72.7805L28.1399 61.7322C28.1399 61.7322 28.9635 56.6223 28.9635 56.4842C28.9635 56.0699 33.3561 48.4741 33.3561 48.4741L32.9443 59.5225L41.5922 71.1232L49.0046 69.8803ZM36.5304 83.2981L36.6505 83.2764L45.0239 75.8188L37.4741 77.6141L15.0995 80.9286C15.0995 80.9286 14.8983 81.2322 14.5678 81.7326L36.6505 78.1669L44.0629 76.2334L36.5304 83.2981ZM8.79662 90.6966C8.88572 90.4856 9.48458 89.5282 10.2805 88.2894C9.69681 89.2237 9.16948 90.0766 8.79662 90.6966Z" fill="#E9E9EB"/>
</svg>
