<svg width="47" height="35" viewBox="0 0 47 35" fill="none" xmlns="http://www.w3.org/2000/svg">
<path d="M45.0935 33.5394V33.6268H45.1793C45.1954 33.627 45.2113 33.6232 45.2253 33.6156C45.2309 33.6119 45.2354 33.6069 45.2384 33.601C45.2414 33.5952 45.2429 33.5887 45.2426 33.5822C45.2429 33.5758 45.2414 33.5695 45.2384 33.5638C45.2354 33.5581 45.2309 33.5532 45.2253 33.5496C45.2115 33.5417 45.1955 33.5379 45.1793 33.5385H45.0935V33.5394ZM45.1802 33.4775C45.217 33.4754 45.2534 33.4854 45.2833 33.5059C45.2952 33.5153 45.3047 33.5271 45.311 33.5405C45.3173 33.554 45.3202 33.5686 45.3194 33.5833C45.3199 33.5959 45.3176 33.6085 45.3126 33.6203C45.3076 33.632 45.3001 33.6425 45.2904 33.6513C45.2674 33.6703 45.2385 33.6817 45.2081 33.6838L45.3231 33.8084H45.2345L45.1287 33.6847H45.0945V33.8084H45.0204V33.4778H45.1814L45.1802 33.4775ZM45.1572 33.9224C45.1961 33.9228 45.2346 33.9153 45.2702 33.9006C45.3045 33.8865 45.3357 33.8664 45.3622 33.8414C45.3887 33.8163 45.4098 33.7866 45.4245 33.754C45.4547 33.6847 45.4547 33.6069 45.4245 33.5376C45.4096 33.5051 45.3885 33.4754 45.3622 33.4502C45.3357 33.4252 45.3045 33.4051 45.2702 33.391C45.2343 33.3771 45.1959 33.3701 45.1572 33.3705C45.1179 33.3701 45.0788 33.3771 45.0422 33.391C45.0071 33.4048 44.9752 33.4249 44.9482 33.4502C44.9075 33.4899 44.88 33.54 44.869 33.5944C44.8581 33.6488 44.8643 33.705 44.8868 33.7561C44.9008 33.7889 44.9217 33.8187 44.9482 33.8435C44.9752 33.8689 45.0072 33.889 45.0422 33.9028C45.0786 33.9175 45.1177 33.9249 45.1572 33.9246V33.9224ZM45.1572 33.2909C45.2583 33.2908 45.3554 33.3285 45.4275 33.3958C45.4623 33.4281 45.4899 33.4667 45.5089 33.5092C45.5286 33.5529 45.5387 33.5999 45.5387 33.6474C45.5387 33.6949 45.5286 33.742 45.5089 33.7856C45.4895 33.8279 45.4619 33.8664 45.4275 33.899C45.3922 33.9312 45.3512 33.9571 45.3063 33.9755C45.2592 33.9945 45.2084 34.0042 45.1572 34.0039C45.1054 34.0043 45.0541 33.9946 45.0064 33.9755C44.961 33.9575 44.9195 33.9316 44.8842 33.899C44.8499 33.8652 44.8226 33.8255 44.804 33.7819C44.7843 33.7382 44.7742 33.6912 44.7742 33.6437C44.7742 33.5962 44.7843 33.5492 44.804 33.5055C44.8229 33.463 44.8506 33.4244 44.8854 33.3921C44.9202 33.359 44.9618 33.333 45.0075 33.3156C45.0553 33.2965 45.1066 33.2869 45.1584 33.2872L45.1572 33.2909ZM9.93964 32.0142C9.93964 31.3838 10.3743 30.8659 11.0848 30.8659C11.7638 30.8659 12.2219 31.3615 12.2219 32.0142C12.2219 32.6669 11.7638 33.1625 11.0848 33.1625C10.3743 33.1625 9.93964 32.6446 9.93964 32.0142ZM12.9959 32.0142V30.2202H12.175V30.6573C11.9146 30.3343 11.5197 30.1317 10.9827 30.1317C9.92469 30.1317 9.09439 30.9201 9.09439 32.0151C9.09439 33.11 9.92423 33.8984 10.9827 33.8984C11.5195 33.8984 11.9146 33.6956 12.175 33.3729V33.8084H12.995V32.0142H12.9959ZM40.732 32.0142C40.732 31.3838 41.1667 30.8659 41.8774 30.8659C42.5571 30.8659 43.0146 31.3615 43.0146 32.0142C43.0146 32.6669 42.5571 33.1625 41.8774 33.1625C41.167 33.1625 40.732 32.6446 40.732 32.0142ZM43.7892 32.0142V28.7803H42.9676V30.6573C42.7073 30.3343 42.3124 30.1317 41.7753 30.1317C40.7173 30.1317 39.887 30.9201 39.887 32.0151C39.887 33.11 40.7169 33.8984 41.7753 33.8984C42.3124 33.8984 42.7073 33.6956 42.9676 33.3729V33.8084H43.7892V32.0142ZM23.184 30.829C23.713 30.829 24.0527 31.1441 24.1394 31.6989H22.1807C22.2683 31.181 22.5993 30.829 23.1842 30.829H23.184ZM23.2005 30.1298C22.0942 30.1298 21.3203 30.8946 21.3203 32.0131C21.3203 33.1535 22.1253 33.8964 23.2555 33.8964C23.824 33.8964 24.3448 33.7616 24.8029 33.3939L24.4007 32.8159C24.0842 33.0563 23.6812 33.1911 23.3024 33.1911C22.7734 33.1911 22.2918 32.9584 22.1733 32.3127H24.9763C24.9844 32.2157 24.9927 32.1178 24.9927 32.0129C24.9844 30.8948 24.2567 30.1296 23.2001 30.1296L23.2005 30.1298ZM33.1108 32.0129C33.1108 31.3825 33.5455 30.8646 34.2559 30.8646C34.9349 30.8646 35.393 31.3602 35.393 32.0129C35.393 32.6656 34.9349 33.1611 34.2559 33.1611C33.5455 33.1611 33.1105 32.6433 33.1105 32.0129H33.1108ZM36.1668 32.0129V30.2202H35.3464V30.6573C35.0851 30.3343 34.6911 30.1317 34.154 30.1317C33.096 30.1317 32.2657 30.9201 32.2657 32.0151C32.2657 33.11 33.0956 33.8984 34.154 33.8984C34.6911 33.8984 35.0851 33.6956 35.3464 33.3729V33.8084H36.167V32.0142L36.1668 32.0129ZM28.4751 32.0129C28.4751 33.1008 29.2723 33.8962 30.489 33.8962C31.0575 33.8962 31.4364 33.776 31.846 33.4686L31.4518 32.8382C31.1436 33.0486 30.82 33.1611 30.4628 33.1611C29.8075 33.1535 29.3256 32.7034 29.3256 32.0129C29.3256 31.3224 29.8075 30.8725 30.4628 30.8646C30.819 30.8646 31.1426 30.9772 31.4518 31.1876L31.846 30.5572C31.4357 30.2497 31.0569 30.1296 30.489 30.1296C29.2723 30.1296 28.4751 30.9247 28.4751 32.0129ZM39.0574 30.1296C38.5838 30.1296 38.2754 30.34 38.0622 30.6551V30.2202H37.2487V33.8064H38.0705V31.7961C38.0705 31.2027 38.3389 30.8729 38.8755 30.8729C39.0512 30.8705 39.2257 30.9012 39.3888 30.9632L39.6418 30.2281C39.4601 30.1602 39.2232 30.1302 39.0569 30.1302L39.0574 30.1296ZM17.0542 30.5054C16.6593 30.258 16.1151 30.1302 15.5148 30.1302C14.5585 30.1302 13.9428 30.5657 13.9428 31.2783C13.9428 31.863 14.4012 32.2237 15.2453 32.3363L15.6331 32.3887C16.0832 32.4488 16.2957 32.5613 16.2957 32.7639C16.2957 33.0412 15.9967 33.1994 15.4353 33.1994C14.8667 33.1994 14.4564 33.0268 14.1797 32.8242L13.794 33.4323C14.2441 33.7474 14.8126 33.8977 15.4284 33.8977C16.5186 33.8977 17.1504 33.41 17.1504 32.7272C17.1504 32.0968 16.6531 31.7671 15.8315 31.6545L15.4447 31.6012C15.0893 31.5575 14.8046 31.4896 14.8046 31.2492C14.8046 30.987 15.073 30.8292 15.5233 30.8292C16.0052 30.8292 16.4716 31.0018 16.7003 31.1367L17.0556 30.5063L17.0542 30.5054ZM27.646 30.1309C27.1724 30.1309 26.864 30.3413 26.6517 30.6564V30.2202H25.8382V33.8064H26.659V31.7961C26.659 31.2027 26.9274 30.8729 27.464 30.8729C27.6397 30.8705 27.8142 30.9012 27.9774 30.9632L28.2304 30.2281C28.0487 30.1602 27.8118 30.1302 27.6455 30.1302L27.646 30.1309ZM20.6411 30.2202H19.2988V29.1323H18.469V30.2202H17.7033V30.933H18.469V32.569C18.469 33.4011 18.8089 33.8966 19.78 33.8966C20.1362 33.8966 20.5465 33.7918 20.8069 33.6194L20.5698 32.9516C20.3248 33.0864 20.0564 33.1544 19.843 33.1544C19.4327 33.1544 19.2988 32.914 19.2988 32.5541V30.9337H20.6411V30.2202ZM8.36851 33.8073V31.5566C8.36851 30.709 7.79995 30.1387 6.8834 30.1311C6.40155 30.1234 5.90452 30.2659 5.55653 30.7691C5.29617 30.3714 4.88585 30.1311 4.30901 30.1311C3.90582 30.1311 3.51183 30.2436 3.2034 30.6636V30.2202H2.38184V33.8064H3.20984V31.818C3.20984 31.1954 3.57324 30.8646 4.13444 30.8646C4.67954 30.8646 4.95531 31.2022 4.95531 31.8101V33.806H5.78515V31.8175C5.78515 31.195 6.16396 30.8642 6.70883 30.8642C7.26934 30.8642 7.53683 31.2018 7.53683 31.8097V33.8055L8.36851 33.8073Z" fill="white"/>
<path d="M45.5614 21.8779V21.3535H45.4176L45.2513 21.7134L45.0859 21.3535H44.9417V21.8779H45.0439V21.4829L45.1993 21.8237H45.3051L45.4606 21.482V21.8779H45.5618H45.5614ZM44.6494 21.8779V21.4433H44.8334V21.3548H44.3633V21.4433H44.5473V21.8779H44.6485H44.6494Z" fill="#F79410"/>
<path d="M29.223 24.1273H16.7832V2.88818H29.2232L29.223 24.1273Z" fill="#FF5F00"/>
<path d="M17.572 13.5076C17.572 9.19924 19.6954 5.36135 23.0018 2.88805C20.499 1.01313 17.4034 -0.00445949 14.2161 1.46914e-05C6.36456 1.46914e-05 0 6.04747 0 13.5076C0 20.9677 6.36456 27.0152 14.2161 27.0152C17.4035 27.0197 20.4992 26.0021 23.0021 24.1271C19.6958 21.6543 17.572 17.8161 17.572 13.5076Z" fill="#EB001B"/>
<path d="M46.0061 13.5081C46.0061 20.9682 39.6416 27.0156 31.7901 27.0156C28.6023 27.0201 25.5063 26.0025 23.0029 24.1276C26.3103 21.6543 28.4337 17.8166 28.4337 13.5081C28.4337 9.19951 26.3103 5.36184 23.0029 2.88854C25.5062 1.01367 28.6022 -0.00389278 31.7898 0.00050246C39.6413 0.00050246 46.0059 6.04796 46.0059 13.5081" fill="#F79E1B"/>
</svg>
