<svg width="38" height="80" viewBox="0 0 38 80" fill="none" xmlns="http://www.w3.org/2000/svg">
<path d="M6 28.2316C4.89062 28.2316 4 29.1148 4 30.215V45.09C4 46.1902 4.89062 47.0734 6 47.0734V49.0567C6 49.599 6.45312 50.0484 7 50.0484C7.54687 50.0484 8 49.599 8 49.0567V47.0734C9.10937 47.0734 10 46.1902 10 45.09V30.215C10 29.1148 9.10937 28.2316 8 28.2316V26.2483C8 25.7059 7.54687 25.2566 7 25.2566C6.45312 25.2566 6 25.7059 6 26.2483V28.2316ZM6 30.215H8V45.09H6V30.215Z" fill="#DAB865"/>
<path d="M14 41.1232C12.8906 41.1232 12 42.0064 12 43.1066V47.0732C12 48.1734 12.8906 49.0566 14 49.0566V55.0066C14 55.5489 14.4531 55.9983 15 55.9983C15.5469 55.9983 16 55.5489 16 55.0066V49.0566C17.1094 49.0566 18 48.1734 18 47.0732V43.1066C18 42.0064 17.1094 41.1232 16 41.1232V39.1399C16 38.5975 15.5469 38.1482 15 38.1482C14.4531 38.1482 14 38.5975 14 39.1399V41.1232ZM14 43.1066H16V47.0732H14V43.1066Z" fill="#DAB865"/>
<path d="M22 36.1651C20.8906 36.1651 20 37.0484 20 38.1485V47.0735C20 48.1737 20.8906 49.0569 22 49.0569V53.0236C22 53.5659 22.4531 54.0152 23 54.0152C23.5469 54.0152 24 53.5659 24 53.0236V49.0569C25.1094 49.0569 26 48.1737 26 47.0735V38.1485C26 37.0484 25.1094 36.1651 24 36.1651V32.1985C24 31.6561 23.5469 31.2068 23 31.2068C22.4531 31.2068 22 31.6561 22 32.1985V36.1651ZM22 38.1485H24V47.0735H22V38.1485Z" fill="#DAB865"/>
<path d="M30 30.2151C28.8906 30.2151 28 31.0983 28 32.1984V44.0985C28 45.1986 28.8906 46.0818 30 46.0818V50.0485C30 50.5908 30.4531 51.0402 31 51.0402C31.5469 51.0402 32 50.5908 32 50.0485V46.0818C33.1094 46.0818 34 45.1986 34 44.0985V32.1984C34 31.0983 33.1094 30.2151 32 30.2151V22.2817C32 21.7394 31.5469 21.29 31 21.29C30.4531 21.29 30 21.7394 30 22.2817V30.2151ZM30 32.1984H32V44.0985H30V32.1984Z" fill="#DAB865"/>
<path d="M32 0H6C2.6875 0 0 2.66512 0 5.95003V74.05C0 77.3349 2.6875 80 6 80H32C35.3125 80 38 77.3349 38 74.05V5.95003C38 2.66512 35.3125 0 32 0ZM6 1.98334H6.51562L9.60938 5.82607C10.1719 6.53883 11.0312 6.9417 11.9531 6.9417H26.0312C26.9375 6.9417 27.8125 6.53883 28.375 5.82607L31.4688 1.98334H31.9844C34.1875 1.98334 35.9844 3.76525 35.9844 5.95003V67.8675H2V5.95003C2 3.76525 3.79688 1.98334 6 1.98334ZM7 73.0583C7 72.516 7.45312 72.0666 8 72.0666H30C30.5469 72.0666 31 72.516 31 73.0583C31 73.6006 30.5469 74.05 30 74.05H8C7.45312 74.05 7 73.6161 7 73.0583Z" fill="#6B6B79"/>
</svg>
