<svg width="9" height="11" viewBox="0 0 9 11" fill="none" xmlns="http://www.w3.org/2000/svg">
<path d="M5.9553 10.2458C6.14155 10.0584 6.24609 9.80498 6.24609 9.5408C6.24609 9.27661 6.14155 9.02316 5.9553 8.8358L2.4153 5.2458L5.9553 1.7058C6.14155 1.51844 6.24609 1.26498 6.24609 1.0008C6.24609 0.736612 6.14155 0.483161 5.9553 0.295798C5.86234 0.20207 5.75174 0.127675 5.62988 0.0769067C5.50802 0.026138 5.37731 -3.79756e-08 5.2453 -4.3746e-08C5.11329 -4.95165e-08 4.98258 0.0261379 4.86072 0.0769066C4.73887 0.127675 4.62826 0.20207 4.5353 0.295798L0.295301 4.5358C0.201573 4.62876 0.127179 4.73936 0.0764101 4.86122C0.0256414 4.98308 -0.000497088 5.11379 -0.000497094 5.2458C-0.000497099 5.37781 0.0256414 5.50852 0.07641 5.63037C0.127179 5.75223 0.201573 5.86283 0.295301 5.9558L4.5353 10.2458C4.62826 10.3395 4.73886 10.4139 4.86072 10.4647C4.98258 10.5155 5.11329 10.5416 5.2453 10.5416C5.37731 10.5416 5.50802 10.5155 5.62988 10.4647C5.75174 10.4139 5.86234 10.3395 5.9553 10.2458Z" fill="#DAB865"/>
<circle cx="7" cy="5" r="2" fill="#DAB865"/>
</svg>
