<svg width="94" height="110" viewBox="0 0 94 110" fill="none" xmlns="http://www.w3.org/2000/svg">
<g clip-path="url(#clip0)">
<path d="M6.42369 24.3079V44.8762C6.42369 66.9937 16.6481 81.6319 25.213 90.0194C34.4738 99.0481 44.6446 103.429 47 103.643C49.4089 103.482 59.5797 99.1015 68.787 90.0194C77.3519 81.6319 87.5763 66.9937 87.5763 44.8762V24.3079C73.6583 20.2477 59.6868 14.3176 47 7.05197C33.992 14.5313 20.6629 20.1943 6.42369 24.3079ZM73.3907 53.5843C73.3907 68.1156 61.5604 79.9223 47 79.9223C32.4396 79.9223 20.6093 68.1156 20.6093 53.5843C20.6093 39.0529 32.4396 27.2462 47 27.2462C61.6139 27.2462 73.3907 39.0529 73.3907 53.5843ZM92.287 19.0189C77.1378 14.8519 61.8815 8.38757 48.1777 0.320544C47.4282 -0.106848 46.5718 -0.106848 45.8223 0.320544C31.7437 8.60126 17.2904 14.745 1.71298 19.0189C0.6959 19.2861 0 20.1943 0 21.2093V44.8762C0 69.2375 11.2415 85.3715 20.7164 94.5605C30.8872 104.497 42.7175 110 47 110C51.2825 110 63.1663 104.497 73.2836 94.5605C82.705 85.3181 94 69.1841 94 44.8762V21.2093C94 20.1943 93.3041 19.2861 92.287 19.0189ZM91.8588 44.8762C91.8588 68.4896 80.9385 84.0894 71.7847 93.0646C62.5239 102.147 51.4431 107.596 47.2677 107.863H46.9465H46.6253C42.5034 107.543 31.369 102.093 22.1082 93.0646C13.0615 84.0894 2.14123 68.4896 2.14123 44.8762V21.1025L5.24601 20.1943C19.164 16.134 32.172 10.6314 44.9123 3.31229L47.0535 2.08354L49.1948 3.31229C61.5604 10.3643 75.2642 16.2409 88.861 20.1943L91.9123 21.1025V44.8762H91.8588Z" fill="#6B6B79"/>
<path d="M46.9995 76.0224C34.5804 76.0224 24.5166 65.9787 24.5166 53.5843C24.5166 41.19 34.5804 31.1462 46.9995 31.1462C59.4187 31.1462 69.4824 41.19 69.4824 53.5843C69.4824 65.9787 59.4187 76.0224 46.9995 76.0224ZM46.9995 33.2832C35.7581 33.2832 26.6578 42.4187 26.6578 53.5843C26.6578 64.7499 35.8116 73.8854 46.9995 73.8854C58.1874 73.8854 67.3412 64.7499 67.3412 53.5843C67.3412 42.4187 58.241 33.2832 46.9995 33.2832Z" fill="#DAB865"/>
<path d="M40.951 65.8184H53.0489C54.4942 65.8184 55.6184 64.6431 55.6184 63.2541V54.3323C55.6184 52.9432 54.4942 51.8213 53.1024 51.7679V47.9748C53.1024 44.6091 50.3188 41.8311 46.9464 41.8311C43.574 41.8311 40.7904 44.6091 40.7904 47.9748V51.7679C39.3986 51.8213 38.2744 52.9432 38.2744 54.3323V63.2541C38.3815 64.6965 39.5056 65.8184 40.951 65.8184ZM43.1992 47.9214C43.1992 45.8379 44.9122 44.1283 46.9999 44.1283C49.0876 44.1283 50.8006 45.8379 50.8006 47.9214V51.7145H43.1992V47.9214ZM40.6833 54.3323C40.6833 54.172 40.7904 54.0652 40.951 54.0652H42.0216H51.9783H53.0489C53.2095 54.0652 53.3166 54.172 53.3166 54.3323V63.2541C53.3166 63.4144 53.2095 63.5212 53.0489 63.5212H40.951C40.7904 63.5212 40.6833 63.4144 40.6833 63.2541V54.3323Z" fill="#DAB865"/>
<path d="M45.822 60.1554C45.822 60.7965 46.3573 61.3307 46.9997 61.3307C47.642 61.3307 48.1773 60.7965 48.1773 60.1554V59.0335C48.445 58.7663 48.6591 58.3389 48.6591 57.9116C48.6591 57.0033 47.9097 56.3088 47.0532 56.3088C46.1432 56.3088 45.4473 57.0568 45.4473 57.9116C45.4473 58.3389 45.6079 58.7663 45.929 59.0335V60.1554H45.822Z" fill="#010101"/>
</g>
<defs>
<clipPath id="clip0">
<rect width="94" height="110" fill="white"/>
</clipPath>
</defs>
</svg>
