<svg width="60" height="34" viewBox="0 0 60 34" fill="none" xmlns="http://www.w3.org/2000/svg">
<rect width="60" height="34" rx="6" fill="white"/>
<g clip-path="url(#clip0)">
<path d="M8.57017 14.5652C8.57017 14.5652 7.97835 17.6973 7.82075 19.4513C7.75776 20.1523 8.95962 20.392 9.33983 20.4264C10.2643 20.51 11.0658 19.938 11.0658 19.938C11.0658 19.938 10.5471 20.0189 9.98903 19.9581C9.33013 19.8024 9.36555 19.449 9.32431 19.3391C9.28586 18.8782 9.39278 18.2675 9.51404 17.7288C9.63538 17.19 9.7711 16.7234 9.7711 16.7234L11.0861 16.7141L11.2603 15.9323L9.99768 15.9039L10.213 14.6048L8.57017 14.5652Z" fill="#F40814"/>
<path fill-rule="evenodd" clip-rule="evenodd" d="M8.56612 14.5652L10.2207 14.6097L10.0071 16.0475L11.2603 16.079L11.0826 16.9689L9.7776 16.9791C9.77666 16.9828 9.77545 16.9874 9.774 16.9931C9.77008 17.0084 9.76436 17.0309 9.75711 17.0597C9.74262 17.1174 9.72204 17.2006 9.69771 17.3024C9.64903 17.5059 9.58531 17.784 9.52517 18.0819C9.40501 18.6776 9.2994 19.3513 9.33707 19.8592C9.34225 19.8751 9.3462 19.8948 9.35027 19.9167C9.35103 19.9207 9.35179 19.9249 9.35257 19.9291C9.35618 19.9487 9.36012 19.9701 9.36528 19.9931C9.37779 20.0488 9.3973 20.1132 9.43545 20.179C9.51141 20.3099 9.66271 20.449 9.98643 20.5345C10.2619 20.5679 10.5277 20.5624 10.7248 20.5485C10.8235 20.5415 10.9048 20.5324 10.9615 20.5251C10.9898 20.5215 11.012 20.5182 11.0271 20.5159C11.0346 20.5148 11.0403 20.5139 11.0442 20.5132C11.0461 20.5129 11.0476 20.5127 11.0486 20.5125L11.0497 20.5123L11.0499 20.5123L11.05 20.5123C11.05 20.5123 11.05 20.5123 11.0508 20.5169L11.05 20.5123L11.0599 20.5344L11.0521 20.5246C11.0599 20.5344 11.0599 20.5344 11.0599 20.5344L11.0599 20.5345L11.0597 20.5346L11.0593 20.5349C11.0589 20.5353 11.0583 20.5357 11.0575 20.5363C11.0559 20.5376 11.0536 20.5394 11.0506 20.5417C11.0444 20.5464 11.0354 20.5532 11.0235 20.5618C10.9998 20.579 10.965 20.6035 10.9204 20.6326C10.8312 20.6908 10.7026 20.7673 10.5453 20.841C10.2308 20.9882 9.80044 21.1242 9.33885 21.0776C9.14928 21.0585 8.75537 20.9824 8.41624 20.8134C8.07765 20.6447 7.78888 20.3809 7.82077 19.9849C7.89898 19.0138 8.08488 17.6615 8.25119 16.5521C8.33435 15.9974 8.41263 15.5034 8.47011 15.148C8.49886 14.9703 8.5224 14.8273 8.53876 14.7287C8.54694 14.6794 8.55333 14.6412 8.55767 14.6153C8.55984 14.6024 8.56149 14.5925 8.56261 14.5859L8.56429 14.576C8.5643 14.5759 8.5643 14.5759 8.57663 14.578L8.5643 14.5759L8.56612 14.5652ZM8.58715 14.5908C8.58604 14.5974 8.58443 14.607 8.58234 14.6195C8.578 14.6454 8.57162 14.6835 8.56344 14.7328C8.54709 14.8314 8.52355 14.9744 8.49481 15.152C8.43733 15.5073 8.35907 16.0012 8.27593 16.5558C8.10963 17.6651 7.92384 19.0168 7.84571 19.987C7.81511 20.3668 8.0912 20.6235 8.42737 20.791C8.763 20.9581 9.15376 21.0337 9.34135 21.0527C9.79676 21.0986 10.2224 20.9644 10.5347 20.8182C10.6908 20.7452 10.8183 20.6692 10.9068 20.6116C10.9484 20.5845 10.9813 20.5614 11.0046 20.5446C10.9931 20.5462 10.9798 20.5481 10.9647 20.55C10.9076 20.5574 10.8258 20.5665 10.7266 20.5735C10.5283 20.5875 10.2604 20.5931 9.98257 20.5593L9.98173 20.5592L9.9809 20.559C9.65159 20.4721 9.49386 20.3296 9.41382 20.1916C9.37394 20.1228 9.35371 20.0558 9.34088 19.9986C9.3356 19.9751 9.33155 19.9531 9.32794 19.9335C9.32717 19.9293 9.32642 19.9253 9.32568 19.9213C9.32143 19.8985 9.31764 19.88 9.31286 19.8657L9.31235 19.8642L9.31224 19.8627C9.27395 19.3507 9.38037 18.6732 9.50065 18.0769C9.56087 17.7786 9.62465 17.5003 9.67338 17.2965C9.69774 17.1946 9.71834 17.1114 9.73285 17.0536C9.74011 17.0247 9.74584 17.0022 9.74977 16.9869C9.75173 16.9792 9.75323 16.9734 9.75425 16.9695L9.75577 16.9636L9.75579 16.9635C9.75579 16.9635 9.7558 16.9635 9.7679 16.9667L9.7558 16.9635L9.75822 16.9542L11.0621 16.944L11.2299 16.1033L9.9782 16.0719L10.1918 14.634L8.58715 14.5908Z" fill="#F30000"/>
<path d="M9.42374 11.3054C7.6963 11.3344 6.05115 12.0099 4.84764 13.1843C3.64413 14.3586 2.98005 15.9365 3.00046 17.5732C3.02085 19.21 3.72406 20.7726 4.95651 21.9197C6.18896 23.0668 7.85048 23.7053 9.57816 23.6956C11.3059 23.686 12.9593 23.029 14.1774 21.8681C15.3955 20.7073 16.0792 19.137 16.0792 17.5001L16.0773 17.3538C16.0365 15.7174 15.3139 14.1628 14.0672 13.0296C12.8206 11.8963 11.1512 11.2764 9.42379 11.3054H9.42374ZM9.44531 12.4597C10.8509 12.4361 12.2093 12.9404 13.2236 13.8625C14.238 14.7846 14.8261 16.0496 14.8592 17.3811L14.8607 17.5001C14.8607 18.832 14.3044 20.1097 13.3133 21.0543C12.3222 21.9988 10.9768 22.5334 9.57102 22.5413C8.16523 22.5491 6.81327 22.0297 5.81044 21.0963C4.80762 20.1629 4.23542 18.8914 4.21883 17.5596C4.20223 16.2278 4.74258 14.944 5.72186 13.9884C6.70114 13.0328 8.03977 12.4832 9.44535 12.4597H9.44531Z" fill="#F70000" fill-opacity="0.745"/>
<path fill-rule="evenodd" clip-rule="evenodd" d="M9.42404 11.3054C11.1514 11.2765 12.8207 11.8963 14.0672 13.0296C15.3139 14.1628 16.0365 15.7174 16.0773 17.3538L16.0773 17.354L16.0792 17.5001C16.0792 19.137 15.3955 20.7073 14.1774 21.8681C12.9593 23.029 11.3059 23.686 9.57816 23.6956C7.85048 23.7053 6.18896 23.0668 4.95651 21.9197C3.72406 20.7726 3.02085 19.21 3.00046 17.5732C2.98005 15.9365 3.64413 14.3586 4.84764 13.1843C6.05115 12.0099 7.6963 11.3344 9.42374 11.3054L9.42379 11.3054L9.42404 11.3054ZM14.0439 13.0526C12.8037 11.9252 11.1429 11.3085 9.42438 11.3374L9.42408 11.3374C7.70564 11.3663 6.06908 12.0382 4.87183 13.2065C3.67453 14.3748 3.01387 15.9446 3.03417 17.5729C3.05446 19.2012 3.75405 20.7557 4.98014 21.8969C6.20623 23.0381 7.85918 23.6733 9.57796 23.6637C11.2968 23.6541 12.9417 23.0005 14.1535 21.8456C15.3653 20.6908 16.0454 19.1286 16.0455 17.5002C16.0455 17.5002 16.0455 17.5001 16.0455 17.5001L16.0436 17.3546C16.0436 17.3545 16.0436 17.3545 16.0436 17.3545C16.003 15.7266 15.2841 14.18 14.0439 13.0526ZM9.44607 12.4886C10.8435 12.4652 12.194 12.9666 13.2025 13.8834C14.211 14.8002 14.7957 16.0579 14.8287 17.3817C14.8287 17.3817 14.8287 17.3818 14.8287 17.3817L14.8301 17.5001C14.8301 17.5001 14.8301 17.5002 14.8301 17.5002C14.8301 18.8244 14.277 20.0947 13.2916 21.0339C12.3062 21.973 10.9685 22.5045 9.57084 22.5123C8.17312 22.5201 6.82893 22.0036 5.83187 21.0756C4.83481 20.1476 4.2659 18.8834 4.24941 17.5593C4.2329 16.2352 4.77015 14.9587 5.7438 14.0086C6.71745 13.0585 8.04839 12.5121 9.4459 12.4886M9.44525 12.4567C10.8517 12.4331 12.2108 12.9377 13.2258 13.8604C14.2408 14.783 14.8292 16.0487 14.8624 17.381L14.8624 17.3812L14.8639 17.4999L14.8639 17.5001C14.8639 18.8328 14.3072 20.1113 13.3155 21.0564C12.3238 22.0015 10.9777 22.5364 9.57104 22.5442C8.16442 22.5521 6.81166 22.0323 5.80824 21.0984C4.80482 20.1644 4.23229 18.8922 4.21569 17.5597C4.19908 16.2271 4.73975 14.9425 5.71961 13.9863C6.69942 13.0302 8.03875 12.4803 9.44509 12.4567" fill="#F30000"/>
<path d="M18.9338 14.3817C18.9338 14.3817 18.3125 17.9598 18.147 19.9635C18.0809 20.7643 19.3427 21.0381 19.7419 21.0775C20.7124 21.173 21.5539 20.5195 21.5539 20.5195C21.5539 20.5195 21.0093 20.6119 20.4235 20.5425C19.7317 20.3646 19.7689 19.9608 19.7256 19.8353C19.6852 19.3088 19.7974 18.6111 19.9248 17.9957C20.0521 17.3803 20.1946 16.8472 20.1946 16.8472L21.5753 16.8366L21.7581 15.9435L20.4325 15.911L20.6586 14.427L18.9338 14.3817ZM23.3414 13.9263L22.0979 20.942L23.7924 20.9321C23.8227 20.9319 24.0849 18.8543 24.296 17.7904C24.378 17.3772 24.4455 17.0527 24.4455 17.0527C24.4455 17.0527 24.9576 16.7126 25.3864 16.5613C27.1525 15.9384 27.0706 17.4076 27.0706 17.4076L26.4755 20.942H28.17L28.7719 17.0663C28.7719 17.0663 28.839 15.679 26.9002 15.7167C25.6637 15.807 24.744 16.3806 24.5453 16.3754C24.6391 15.5664 24.6987 15.4254 24.9425 13.9131L23.3414 13.9263ZM33.0062 18.3019L33.081 17.7864C33.081 17.7864 30.6466 17.3343 29.6225 18.443C28.5984 19.5517 29.1783 20.3799 29.4106 20.5929C29.643 20.8059 30.0966 21.1304 31.0447 21.0762C31.9929 21.0219 33.3646 20.3661 33.3646 20.3661L33.284 20.942H34.8171L35.4324 17.161C35.4324 17.161 35.2916 15.5722 32.9814 15.6521C30.6711 15.7321 29.9755 16.8356 29.9755 16.8356L30.1974 17.0427C30.1974 17.0427 31.5121 16.0643 32.5375 16.2439C33.563 16.4234 33.8549 17.1299 33.8549 17.1299L33.4721 19.8295C33.4721 19.8295 32.2861 20.5108 31.5237 20.2802C30.7612 20.0496 30.4966 19.2497 31.0363 18.7097C31.576 18.1696 33.0062 18.3019 33.0062 18.3019ZM35.967 15.8514L37.5103 20.942H38.0852L40.4657 17.9598L41.6962 20.942H42.3015L44.9706 16.7923L46.234 16.8068L46.368 15.8514H44.3681L42.4138 18.9452L41.25 15.8514H40.7087C40.7087 15.8514 38.428 19.0503 38.4423 18.9945C38.4566 18.9387 37.5697 15.8514 37.5697 15.8514H35.967Z" fill="#0951A0"/>
<path d="M46.4389 14.5652C46.4389 14.5652 45.8413 17.9464 45.6821 19.8399C45.6185 20.5966 46.8322 20.8554 47.2162 20.8926C48.1498 20.9828 48.9592 20.3653 48.9592 20.3653C48.9592 20.3653 48.4354 20.4527 47.8719 20.387C47.2064 20.2189 47.2422 19.8374 47.2006 19.7188C47.1618 19.2212 47.2697 18.5619 47.3922 17.9803C47.5147 17.3988 47.6518 16.895 47.6518 16.895L49.5081 16.9048L49.5948 16.0104H47.8806L48.0981 14.6079L46.4389 14.5652ZM49.3326 18.4718C49.234 21.1253 51.7821 21.4316 53.9843 20.8209C54.9375 20.5173 55.5853 19.5405 55.5853 19.5405L55.2845 19.4566C55.2845 19.4566 54.6162 20.083 53.7611 20.286C51.995 20.687 50.6733 19.7395 51.0153 18.0494C51.4057 16.818 52.9012 16.143 54.0716 16.7913C54.5822 17.0894 54.3918 17.8164 54.3918 17.8164L51.7915 17.8537C51.7915 17.8537 51.5004 18.4688 51.6751 18.4128C51.8497 18.3569 55.9991 18.4315 55.9991 18.4315C55.9991 18.4315 56.0486 17.5817 55.8686 17.0987C55.6886 16.6157 55.1253 16.2595 54.538 16.0104C51.4193 15.179 49.6831 16.7417 49.3326 18.4718Z" fill="#0951A0"/>
<path d="M56.8524 14.7829H56.5337V15.8695H56.3193V14.7829H56.0049V14.5652H56.8524V14.7829Z" fill="#0951A0"/>
<path d="M57.2554 14.5652L57.5227 15.5112L57.7885 14.5652H58.07V15.8695H57.8549V15.513L57.8764 14.8975L57.5955 15.8695H57.4483L57.1682 14.8984L57.1897 15.513V15.8695H56.9753V14.5652H57.2554Z" fill="#0951A0"/>
</g>
<defs>
<clipPath id="clip0">
<rect width="55" height="15" fill="white" transform="translate(3 10)"/>
</clipPath>
</defs>
</svg>
