<svg width="94" height="94" viewBox="0 0 94 94" fill="none" xmlns="http://www.w3.org/2000/svg">
<g clip-path="url(#clip0)">
<path d="M34.6986 27.5085L34.549 27.4711C33.3526 27.0973 32.0813 27.1347 30.9222 27.5085C27.9309 28.5176 26.2857 31.6945 27.1457 34.7594C27.744 36.5908 29.1274 37.9737 30.8848 38.4969L31.0343 38.5343C32.2308 38.9081 33.5021 38.8707 34.6612 38.4969C37.6525 37.4878 39.2977 34.3108 38.4377 31.246C37.8394 29.4146 36.4934 28.0317 34.6986 27.5085ZM32.8291 36.7403C30.7726 36.7403 29.09 35.0584 29.09 33.0027C29.09 30.947 30.7726 29.2651 32.8291 29.2651C34.8856 29.2651 36.5681 30.947 36.5681 33.0027C36.5308 35.0584 34.8856 36.7403 32.8291 36.7403ZM51.2253 32.5542L51.1131 32.4421C41.915 22.2759 26.1736 21.5283 16.0781 30.7228C15.9285 30.8723 15.7416 31.0218 15.592 31.2087C15.2555 31.5077 14.8816 31.844 14.5825 32.2178L14.4703 32.4421C14.2833 32.7411 14.3207 33.1522 14.5451 33.4138L14.6946 33.6007L14.8442 33.7502C19.2937 38.6464 25.351 41.487 31.9691 41.7486C38.5498 42.0102 44.8689 39.7303 49.767 35.32C49.9166 35.1705 50.0662 35.021 50.2531 34.8715C50.627 34.5351 50.9635 34.1987 51.2627 33.825L51.3374 33.7128C51.5618 33.3017 51.5244 32.8532 51.2253 32.5542ZM47.7479 34.1613C44.0463 37.2635 39.6342 39.1323 34.923 39.5808L34.5864 39.6182L33.6891 39.7303C33.1282 39.7677 32.5673 39.7677 32.0065 39.6929L31.2961 39.6182L30.7352 39.5808C25.9866 39.1323 21.4249 37.1888 17.9102 34.1613C17.6859 33.9745 17.4989 33.7128 17.4241 33.4512C17.2372 32.8532 17.4615 32.2552 17.8728 31.9188C21.5745 28.7792 26.024 26.9104 30.7352 26.4619L31.0717 26.4246L32.0439 26.3124C32.53 26.2751 33.016 26.2751 33.5021 26.2751H33.6143L34.3995 26.3872L34.9603 26.4246C39.7463 26.8731 44.308 28.8166 47.8227 31.8814C48.2714 32.2552 48.4584 32.8532 48.2714 33.4512C48.1592 33.7128 47.9723 33.9371 47.7479 34.1613Z" fill="#DAB865"/>
<path d="M32.829 6.76489C18.3588 6.76489 6.61816 18.5383 6.61816 32.9653C6.61816 47.4297 18.3962 59.1657 32.829 59.1657C47.2992 59.1657 59.0398 47.3923 59.0398 32.9653C59.0398 18.5383 47.2618 6.76489 32.829 6.76489ZM32.829 57.5212C19.2936 57.5212 8.30074 46.5327 8.30074 33.0027C8.30074 19.4726 19.2936 8.48418 32.829 8.48418C46.3644 8.48418 57.3572 19.4726 57.3572 33.0027C57.3572 46.5327 46.3644 57.5212 32.829 57.5212Z" fill="#DAB865"/>
<path d="M80.3146 7.25098H64.461C63.6384 7.25098 62.9654 7.88636 62.8906 8.70863V8.78338C62.8906 8.82076 62.8906 8.82076 62.8906 8.85813C62.8906 8.89551 62.8906 8.89551 62.8906 8.93289V10.241C62.8906 10.241 70.1818 18.3889 70.1818 32.6665C70.1818 43.3186 67.3027 48.7007 65.8819 50.7563C65.4332 51.3917 65.508 52.2514 66.0314 52.812L72.3131 59.577C72.7617 60.0629 73.4348 60.3619 74.1078 60.3993L75.3043 60.4367C75.9399 60.4367 76.5756 60.6983 77.0243 61.1842L83.4181 67.5754H86.6711C87.531 67.5754 88.2415 66.8653 88.2415 66.0057V15.1746C88.2415 10.8017 84.6894 7.25098 80.3146 7.25098ZM72.6496 46.0844C72.6496 45.2247 73.36 44.5146 74.22 44.5146H82.1468C83.0068 44.5146 83.7172 45.2247 83.7172 46.0844C83.7172 46.944 83.0068 47.6542 82.1468 47.6542H74.22C73.36 47.6915 72.6496 46.9814 72.6496 46.0844ZM74.2574 28.6673H82.1842C83.0442 28.6673 83.7546 29.3774 83.7546 30.2371C83.7546 31.0967 83.0442 31.8068 82.1842 31.8068H74.2574C73.3974 31.8068 72.687 31.0967 72.687 30.2371C72.6496 29.3774 73.36 28.6673 74.2574 28.6673ZM72.6496 22.3134C72.6496 21.4538 73.36 20.7436 74.22 20.7436H82.1468C83.0068 20.7436 83.7172 21.4538 83.7172 22.3134C83.7172 23.173 83.0068 23.8832 82.1468 23.8832H74.22C73.36 23.8832 72.6496 23.173 72.6496 22.3134ZM74.2574 36.5909H82.1842C83.0442 36.5909 83.7546 37.3011 83.7546 38.1607C83.7546 39.0204 83.0442 39.7305 82.1842 39.7305H74.2574C73.3974 39.7305 72.687 39.0204 72.687 38.1607C72.6496 37.3011 73.36 36.5909 74.2574 36.5909ZM82.1842 55.6152H75.8278C74.9678 55.6152 74.2574 54.9051 74.2574 54.0454C74.2574 53.1858 74.9678 52.4756 75.8278 52.4756H82.1842C83.0442 52.4756 83.7546 53.1858 83.7546 54.0454C83.7546 54.9051 83.0442 55.6152 82.1842 55.6152ZM82.1842 15.9595H71.0792C70.2192 15.9595 69.5088 15.2494 69.5088 14.3897C69.5088 13.5301 70.2192 12.82 71.0792 12.82H82.1842C83.0442 12.82 83.7546 13.5301 83.7546 14.3897C83.7546 15.2494 83.0442 15.9595 82.1842 15.9595Z" fill="#6B6B79"/>
<path d="M69.4718 85.8894L61.8067 78.4142C61.3206 77.9283 61.0215 77.2556 60.9467 76.5828L60.8719 75.4615C60.8346 74.8261 60.5728 74.2281 60.1615 73.7796L53.4686 66.2297C52.8704 65.5569 51.8608 65.4074 51.113 65.9307C48.6826 67.5379 42.6253 70.6774 32.0438 70.6774C20.5649 70.6774 13.0493 65.9681 10.5442 64.0993C9.90854 63.6134 9.12334 63.3892 8.30074 63.3892C8.26335 63.3892 8.26335 63.3892 8.22596 63.3892C8.18857 63.3892 8.18857 63.3892 8.15118 63.3892H8.0764C7.2538 63.4639 6.61816 64.1367 6.61816 64.9589V80.8063C6.61816 85.1792 10.1703 88.7299 14.545 88.7299H65.3214C65.3962 88.7299 65.5084 88.7299 65.5832 88.7299H68.3875C69.21 88.7299 69.9579 88.1319 70.0326 87.3096C70.1822 86.749 69.9205 86.2257 69.4718 85.8894ZM14.6198 74.3402H54.2912C55.1512 74.3402 55.8616 75.0504 55.8616 75.91C55.8616 76.7697 55.1512 77.4798 54.2912 77.4798H14.6198C13.7598 77.4798 13.0493 76.7697 13.0493 75.91C13.0493 75.013 13.7598 74.3402 14.6198 74.3402ZM58.5911 83.8337H14.545C13.7224 83.8337 13.012 83.1236 13.012 82.2639C13.012 81.4043 13.685 80.6941 14.545 80.6941H58.5911C59.4137 80.6941 60.1241 81.4043 60.1241 82.2639C60.1241 83.1236 59.4137 83.8337 58.5911 83.8337Z" fill="#6B6B79"/>
<path d="M66.4416 75.5366L66.479 75.574L82.9682 92.0567C85.5108 94.5982 89.5116 94.5982 92.0541 92.0567C93.288 90.8233 93.9611 89.2161 93.9611 87.4968C93.9611 85.8149 93.288 84.2077 92.0541 82.937L75.5649 66.6038C74.7423 65.7815 73.8449 65.4077 72.7606 65.4077H71.3023L59.2626 51.8777L59.5991 51.3918C69.8067 36.5537 66.1424 16.1091 51.3731 5.79342C44.2689 0.859821 35.6317 -1.00897 26.9945 0.523439C18.3198 2.05584 10.8043 6.87732 5.794 14.0908C-4.48842 28.8916 -0.78675 49.3362 14.0199 59.6893C25.9101 67.9867 41.5768 67.5008 52.9436 58.4559L53.5044 58.0073L65.2825 71.2757V72.8455C65.2825 73.9294 65.7311 74.9386 66.4416 75.5366ZM72.798 67.127C73.4336 67.127 73.9571 67.3513 74.4432 67.8372L90.9324 84.3199C91.8298 85.2169 92.3533 86.4129 92.3533 87.6837C92.3533 88.9545 91.8672 90.1505 90.9324 91.0849L90.8576 91.1223C89.8855 91.9072 88.6142 92.393 87.5299 92.393C86.3708 92.393 85.249 91.9819 84.2021 91.1223L84.1273 91.0849L67.6755 74.6022C67.1894 74.1163 66.965 73.6304 66.965 72.9576V71.3879L71.2276 67.127H72.798ZM32.8274 63.8753C15.7773 63.8753 1.94276 50.0089 1.94276 33.003C1.94276 15.9596 15.8147 2.1306 32.8274 2.1306C49.8775 2.1306 63.7121 15.997 63.7121 33.003C63.7121 50.0089 49.8401 63.8753 32.8274 63.8753ZM54.7757 57.073L55.2618 56.5871C56.0096 55.8396 56.9817 54.8678 57.58 54.1203L58.1409 53.4475L69.6945 66.3795L66.0677 69.7807L54.7757 57.073Z" fill="#DAB865"/>
</g>
<defs>
<clipPath id="clip0">
<rect width="94" height="94" fill="white"/>
</clipPath>
</defs>
</svg>
