<svg width="16" height="16" viewBox="0 0 16 16" fill="none" xmlns="http://www.w3.org/2000/svg">
<path d="M14.4758 1.94126C14.4741 1.74058 14.3915 1.55218 14.2591 1.4221C14.1268 1.29201 13.9408 1.2087 13.7363 1.21432L5.8661 1.27117C5.45703 1.27468 5.13182 1.60553 5.13533 2.01459C5.13884 2.42366 5.46969 2.74887 5.87876 2.74536L11.9699 2.69992L1.49034 13.3608C1.20339 13.6527 1.20736 14.1158 1.49929 14.4028C1.79121 14.6897 2.25431 14.6858 2.54126 14.3938L13.0208 3.73294L13.0624 9.58C13.0659 9.98907 13.3967 10.3143 13.8058 10.3108C14.2149 10.3073 14.5401 9.97641 14.5366 9.56734L14.4758 1.94126Z" fill="#DAB865" stroke="#DAB865"/>
</svg>
