<svg width="60" height="34" viewBox="0 0 60 34" fill="none" xmlns="http://www.w3.org/2000/svg">
<rect y="0.000488281" width="60" height="34" rx="6" fill="white"/>
<path d="M30.8517 13.9932C30.8234 16.2913 32.8387 17.5738 34.3568 18.3363C35.9166 19.1187 36.4405 19.6203 36.4345 20.3199C36.4226 21.3907 35.1903 21.8632 34.0368 21.8816C32.0245 21.9138 30.8547 21.3217 29.9245 20.8737L29.1996 24.37C30.1328 24.8133 31.8608 25.1999 33.6528 25.2168C37.8589 25.2168 40.6109 23.0767 40.6258 19.7584C40.6421 15.5472 34.9745 15.314 35.0132 13.4317C35.0266 12.861 35.5549 12.2519 36.7129 12.097C37.2859 12.0188 38.868 11.9589 40.6615 12.8104L41.3655 9.42763C40.401 9.06558 39.1612 8.71886 37.6178 8.71886C33.6588 8.71886 30.874 10.8881 30.8517 13.9932ZM48.13 9.01035C47.362 9.01035 46.7146 9.47212 46.4259 10.1809L40.4174 24.9683H44.6205L45.457 22.5858H50.5933L51.0785 24.9683H54.783L51.5503 9.01035H48.13ZM48.7179 13.3212L49.931 19.3135H46.6089L48.7179 13.3212ZM25.7556 9.01035L22.4425 24.9683H26.4477L29.7593 9.01035H25.7556ZM19.8304 9.01035L15.6616 19.8719L13.9753 10.6365C13.7773 9.60559 12.9959 9.01035 12.1282 9.01035H5.31303L5.21777 9.47365C6.61683 9.78661 8.20639 10.2913 9.16936 10.8313C9.75875 11.1612 9.92693 11.4496 10.1204 12.2335L13.3144 24.9683H17.5473L24.0365 9.01035H19.8304Z" fill="url(#paint0_linear)"/>
<defs>
<linearGradient id="paint0_linear" x1="28.005" y1="25.5478" x2="28.4972" y2="8.60498" gradientUnits="userSpaceOnUse">
<stop stop-color="#222357"/>
<stop offset="1" stop-color="#254AA5"/>
</linearGradient>
</defs>
</svg>
