<svg width="94" height="68" viewBox="0 0 94 68" fill="none" xmlns="http://www.w3.org/2000/svg">
<path d="M60.9224 27.5206C54.6957 20.3421 43.726 19.1636 36.0057 24.8323C35.5617 25.1635 35.1177 25.5141 34.7039 25.894C29.1938 30.7836 27.3671 38.4296 30.0818 45.16C32.8066 51.8905 39.5177 56.3125 47.0058 56.3125C48.1361 56.3125 49.2765 56.2054 50.3865 56.0106C53.1517 55.5041 55.7554 54.384 57.9958 52.7281C58.4398 52.397 58.8838 52.0463 59.2976 51.6665C66.4325 45.3354 67.149 34.6991 60.9224 27.5206ZM37.0956 26.4882C37.247 26.3713 37.4085 26.2641 37.57 26.1473C37.8021 25.9817 38.0342 25.8258 38.2663 25.6797C38.4379 25.5726 38.6094 25.4752 38.781 25.3778C39.0232 25.2414 39.2553 25.1148 39.5076 24.9882C39.6892 24.9005 39.8709 24.8129 40.0525 24.7252C40.2947 24.6083 40.547 24.5012 40.7993 24.4038C40.9709 24.3356 41.1425 24.2674 41.314 24.209C40.3654 25.3486 39.5883 26.6245 39.003 27.9784C38.2764 27.5791 37.58 27.1213 36.9342 26.6148C36.9947 26.5661 37.0351 26.5271 37.0956 26.4882ZM35.4507 27.9297C36.3388 28.6407 37.2874 29.2641 38.3067 29.7998C37.4589 32.3907 37.0048 35.0887 36.9443 37.8062H30.9094C31.1516 34.0952 32.7562 30.5985 35.4507 27.9297ZM30.8993 39.7542H36.9342C36.9947 42.4717 37.4489 45.1698 38.2966 47.7606C37.2874 48.2964 36.3287 48.9197 35.4406 49.6308C32.7562 46.9717 31.1516 43.4652 30.8993 39.7542ZM40.7993 53.1664C40.547 53.0593 40.2947 52.9522 40.0425 52.845C39.8608 52.7573 39.6791 52.6697 39.5076 52.582C39.2553 52.4554 39.0131 52.319 38.781 52.1827C38.6094 52.0853 38.4479 51.9879 38.2764 51.8807C38.0342 51.7346 37.8021 51.569 37.57 51.4035C37.4085 51.2963 37.2571 51.1892 37.1057 51.0723C37.0553 51.0333 37.0048 50.9846 36.9544 50.9457C37.6103 50.4392 38.2966 49.9911 39.0232 49.5918C39.5984 50.9457 40.3755 52.2119 41.3241 53.3612C41.1425 53.3028 40.9709 53.2346 40.7993 53.1664ZM45.9865 54.2281C43.948 53.7119 42.1315 51.6762 40.8397 48.7444C42.4746 48.0918 44.2205 47.7022 45.9865 47.5951V54.2281ZM45.9865 45.647C43.9883 45.7542 42.0104 46.173 40.1535 46.9035C39.4168 44.5854 39.0131 42.1795 38.9424 39.764H45.9865V45.647ZM45.9865 37.8062H38.9525C39.0232 35.3809 39.4268 32.9848 40.1636 30.6667C42.0204 31.3972 43.9883 31.816 45.9966 31.9232V37.8062H45.9865ZM45.9865 29.9751C44.2205 29.868 42.4746 29.4784 40.8397 28.8258C42.1315 25.8843 43.948 23.8486 45.9865 23.3421V29.9751ZM63.0921 37.8062H57.0572C56.9967 35.0887 56.5325 32.3907 55.6948 29.7998C56.704 29.2641 57.6627 28.6407 58.5508 27.9297C61.2352 30.5985 62.8499 34.0952 63.0921 37.8062ZM53.1921 24.4038C53.4444 24.5109 53.6967 24.6181 53.949 24.7252C54.1306 24.8129 54.3123 24.9005 54.4838 24.9882C54.7361 25.1148 54.9783 25.2512 55.2104 25.3875C55.382 25.4849 55.5435 25.5823 55.715 25.6895C55.9572 25.8356 56.1893 26.0012 56.4214 26.1667C56.5829 26.2739 56.7343 26.381 56.8857 26.4979C56.9361 26.5369 56.9866 26.5856 57.037 26.6245C56.3811 27.131 55.6948 27.5791 54.9682 27.9784C54.393 26.6245 53.6159 25.3583 52.6673 24.209C52.8489 24.2674 53.0205 24.3356 53.1921 24.4038ZM48.0049 23.3421C50.0434 23.8583 51.86 25.894 53.1517 28.8258C51.5168 29.4784 49.7709 29.868 48.0049 29.9751V23.3421ZM48.0049 31.9232C50.0031 31.816 51.9811 31.3972 53.8379 30.6667C54.5746 32.9848 54.9783 35.3907 55.049 37.8062H48.0049V31.9232ZM48.0049 39.7542H55.0389C54.9682 42.1795 54.5646 44.5756 53.8279 46.8938C51.971 46.1633 50.0031 45.7444 47.9948 45.6373V39.7542H48.0049ZM48.0049 54.2281V47.5951C49.7709 47.7022 51.5168 48.0918 53.1517 48.7444C51.87 51.6762 50.0434 53.7119 48.0049 54.2281ZM56.9059 51.082C56.7545 51.1989 56.593 51.3061 56.4315 51.4229C56.1994 51.5788 55.9673 51.7444 55.7352 51.8905C55.5636 51.9976 55.3921 52.095 55.2205 52.1924C54.9783 52.3288 54.7462 52.4554 54.4939 52.582C54.3123 52.6697 54.1306 52.7573 53.949 52.845C53.7068 52.9619 53.4545 53.069 53.2022 53.1664C53.0306 53.2346 52.859 53.3028 52.6875 53.3612C53.6361 52.2216 54.4132 50.9457 54.9985 49.5918C55.7251 49.9911 56.4214 50.4489 57.0673 50.9554C57.0068 50.9944 56.9563 51.0431 56.9059 51.082ZM58.5508 49.6308C57.6627 48.9197 56.7141 48.2964 55.6948 47.7606C56.5425 45.1698 56.9967 42.4717 57.0572 39.7542H63.0921C62.8499 43.4652 61.2352 46.9717 58.5508 49.6308Z" fill="#DAB865"/>
<path d="M0 64.3571C0 66.3729 1.65737 68 3.71053 68H90.2895C92.3426 68 94 66.3729 94 64.3571V9.71429H0V64.3571ZM47 12.5436C61.7308 12.5436 73.6787 24.2736 73.6787 38.7357C73.6787 53.1979 61.7308 64.9279 47 64.9279C32.2692 64.9279 20.3213 53.1979 20.3213 38.7357C20.3213 24.2736 32.2692 12.5436 47 12.5436ZM90.2895 0H3.71053C1.65737 0 0 1.62714 0 3.64286V7.28571H94V3.64286C94 1.62714 92.3426 0 90.2895 0ZM4.94737 4.85714C4.26711 4.85714 3.71053 4.31071 3.71053 3.64286C3.71053 2.975 4.26711 2.42857 4.94737 2.42857C5.62763 2.42857 6.18421 2.975 6.18421 3.64286C6.18421 4.31071 5.62763 4.85714 4.94737 4.85714ZM9.89474 4.85714C9.21447 4.85714 8.6579 4.31071 8.6579 3.64286C8.6579 2.975 9.21447 2.42857 9.89474 2.42857C10.575 2.42857 11.1316 2.975 11.1316 3.64286C11.1316 4.31071 10.575 4.85714 9.89474 4.85714ZM14.8421 4.85714C14.1618 4.85714 13.6053 4.31071 13.6053 3.64286C13.6053 2.975 14.1618 2.42857 14.8421 2.42857C15.5224 2.42857 16.0789 2.975 16.0789 3.64286C16.0789 4.31071 15.5224 4.85714 14.8421 4.85714Z" fill="#6B6B79"/>
</svg>
