<svg width="94" height="50" viewBox="0 0 94 50" fill="none" xmlns="http://www.w3.org/2000/svg">
<g clip-path="url(#clip0)">
<path d="M94.0003 38.8673C94.0003 34.8494 90.7743 31.6128 86.7695 31.6128H84.8506V38.8673H94.0003Z" fill="#6B6B79"/>
<path d="M9.17752 31.6128H7.23077C3.22604 31.6128 0 34.8494 0 38.8673H9.17752V31.6128Z" fill="#6B6B79"/>
<path d="M84.8501 50.0001H86.769C90.7737 50.0001 93.9998 46.7635 93.9998 42.7456H84.8223V50.0001H84.8501Z" fill="#6B6B79"/>
<path d="M85.4343 42.7456H0C0 46.7635 3.22604 50.0001 7.23077 50.0001H85.4343V42.7456Z" fill="#6B6B79"/>
<path d="M69.3877 28.6273H24.6403L24.4456 28.2645C23.8616 27.2601 23.0551 26.423 22.0539 25.865L21.6924 25.6697V12.0257L22.0539 11.8304C23.0551 11.2445 23.8894 10.4353 24.4456 9.43084L24.6403 9.06812H69.3877L69.5823 9.43084C70.1664 10.4353 70.9729 11.2724 71.974 11.8304L72.3356 12.0257V25.6697L71.974 25.865C70.9729 26.4509 70.1385 27.2601 69.5823 28.2645L69.3877 28.6273ZM25.419 27.2322H68.5811C69.193 26.2835 69.9995 25.4744 70.9172 24.8884V12.8349C69.9717 12.221 69.1652 11.4119 68.5811 10.4911H25.419C24.8072 11.4398 24.0007 12.2489 23.0829 12.8349V24.8884C24.0285 25.4744 24.8072 26.2835 25.419 27.2322Z" fill="#DAB865"/>
<path d="M36.1543 21.3448C34.7638 21.3448 33.6514 20.2288 33.6514 18.8337C33.6514 17.4386 34.7638 16.3225 36.1543 16.3225C37.5449 16.3225 38.6573 17.4386 38.6573 18.8337C38.6573 20.2288 37.5449 21.3448 36.1543 21.3448ZM36.1543 17.7176C35.5425 17.7176 35.0419 18.2198 35.0419 18.8337C35.0419 19.4475 35.5425 19.9497 36.1543 19.9497C36.7662 19.9497 37.2668 19.4475 37.2668 18.8337C37.2668 18.2198 36.7662 17.7176 36.1543 17.7176Z" fill="#DAB865"/>
<path d="M57.8467 21.3448C56.4562 21.3448 55.3438 20.2288 55.3438 18.8337C55.3438 17.4386 56.4562 16.3225 57.8467 16.3225C59.2372 16.3225 60.3497 17.4386 60.3497 18.8337C60.3497 20.2288 59.2372 21.3448 57.8467 21.3448ZM57.8467 17.7176C57.2349 17.7176 56.7343 18.2198 56.7343 18.8337C56.7343 19.4475 57.2349 19.9497 57.8467 19.9497C58.4585 19.9497 58.9591 19.4475 58.9591 18.8337C58.9869 18.2198 58.4864 17.7176 57.8467 17.7176Z" fill="#DAB865"/>
<path d="M47.0002 24.9999C43.6351 24.9999 40.8818 22.2377 40.8818 18.8615C40.8818 15.4854 43.6351 12.7231 47.0002 12.7231C50.3653 12.7231 53.1185 15.4854 53.1185 18.8615C53.1185 22.2377 50.3931 24.9999 47.0002 24.9999ZM47.0002 14.0903C44.386 14.0903 42.2724 16.2109 42.2724 18.8336C42.2724 21.4564 44.386 23.5769 47.0002 23.5769C49.6144 23.5769 51.728 21.4564 51.728 18.8336C51.728 16.2388 49.6144 14.0903 47.0002 14.0903Z" fill="#DAB865"/>
<path d="M47 21.3448C45.6095 21.3448 44.4971 20.2288 44.4971 18.8337C44.4971 17.4386 45.6095 16.3225 47 16.3225C48.3906 16.3225 49.503 17.4386 49.503 18.8337C49.503 20.2288 48.3906 21.3448 47 21.3448ZM47 17.7176C46.3882 17.7176 45.8876 18.2198 45.8876 18.8337C45.8876 19.4475 46.3882 19.9497 47 19.9497C47.6119 19.9497 48.1125 19.4475 48.1125 18.8337C48.1125 18.2198 47.6119 17.7176 47 17.7176Z" fill="#DAB865"/>
<path d="M78.4543 37.6953H15.5744C13.9335 37.6953 12.5986 36.356 12.5986 34.7098V2.98549C12.5986 1.33929 13.9335 0 15.5744 0H78.4543C80.0951 0 81.43 1.33929 81.43 2.98549V34.7098C81.43 36.356 80.0951 37.6953 78.4543 37.6953ZM15.5744 1.39509C14.7122 1.39509 13.9892 2.12054 13.9892 2.98549V34.7098C13.9892 35.5748 14.7122 36.3002 15.5744 36.3002H78.4543C79.3164 36.3002 80.0395 35.5748 80.0395 34.7098V2.98549C80.0395 2.12054 79.3164 1.39509 78.4543 1.39509H15.5744ZM70.2223 32.2545H23.9176C22.9442 32.2545 21.943 31.529 21.5537 30.4967C21.2756 29.7433 20.6359 29.1016 19.885 28.8225C18.8838 28.4319 18.133 27.4275 18.133 26.423V11.2723C18.133 10.2679 18.856 9.26339 19.885 8.87277C20.6359 8.59375 21.2756 7.95201 21.5537 7.19866C21.943 6.1942 22.9442 5.44085 23.9176 5.44085H70.1945C71.1679 5.44085 72.169 6.16629 72.5584 7.19866C72.8365 7.95201 73.4761 8.59375 74.227 8.87277C75.2282 9.26339 75.9791 10.2679 75.9791 11.2723V26.423C75.9791 27.4275 75.256 28.4319 74.227 28.8225C73.4761 29.1016 72.8365 29.7433 72.5584 30.4967C72.1969 31.5011 71.1957 32.2545 70.2223 32.2545ZM23.9176 6.83594C23.5004 6.83594 23.0276 7.22656 22.8608 7.70089C22.4158 8.84487 21.5259 9.73772 20.3856 10.1842C19.9128 10.3516 19.5235 10.8538 19.5235 11.2723V26.423C19.5235 26.8415 19.9128 27.3438 20.3856 27.5112C21.5259 27.9576 22.4158 28.8504 22.8608 29.9944C23.0276 30.4688 23.5282 30.8594 23.9176 30.8594H70.1945C70.6116 30.8594 71.0844 30.4688 71.2513 29.9944C71.6963 28.8504 72.5862 27.9576 73.7264 27.5112C74.1992 27.3438 74.5886 26.8415 74.5886 26.423V11.2723C74.5886 10.8538 74.1992 10.3516 73.7264 10.1842C72.5862 9.73772 71.6963 8.84487 71.2513 7.70089C71.0566 7.22656 70.5838 6.83594 70.1945 6.83594H23.9176Z" fill="#DAB865"/>
<path d="M6.92471 0.362793H5.53418V22.8237H6.92471V0.362793Z" fill="#6B6B79"/>
<path d="M6.92474 24.8326L9.06616 21.1217C9.37208 20.5915 8.98273 19.9219 8.37089 19.9219H4.08805C3.47622 19.9219 3.08687 20.5915 3.39279 21.1217L5.56202 24.8326C5.86793 25.3627 6.61882 25.3627 6.92474 24.8326Z" fill="#6B6B79"/>
<path d="M88.4657 2.73438H87.0752V25.1953H88.4657V2.73438Z" fill="#6B6B79"/>
<path d="M87.1026 0.753313L84.9611 4.46425C84.6552 4.99439 85.0446 5.66403 85.6564 5.66403H89.9393C90.5511 5.66403 90.9404 4.99439 90.6345 4.46425L88.4931 0.753313C88.1594 0.223179 87.4085 0.223179 87.1026 0.753313Z" fill="#6B6B79"/>
</g>
<defs>
<clipPath id="clip0">
<rect width="94" height="50" fill="white"/>
</clipPath>
</defs>
</svg>
